<ttFont>
    <TTGlyph name="A" xMin="10" yMin="0" xMax="619" yMax="678">
      <contour>
        <pt x="10" y="0" on="1"/>
        <pt x="307" y="678" on="1"/>
        <pt x="322" y="678" on="1"/>
        <pt x="619" y="0" on="1"/>
        <pt x="510" y="0" on="1"/>
        <pt x="435" y="180" on="1"/>
        <pt x="138" y="180" on="1"/>
        <pt x="64" y="0" on="1"/>
      </contour>
      <contour>
        <pt x="153" y="218" on="1"/>
        <pt x="419" y="218" on="1"/>
        <pt x="287" y="542" on="1"/>
      </contour>
    </TTGlyph>
    <TTGlyph name="AE" xMin="10" yMin="0" xMax="767" yMax="661">
      <contour>
        <pt x="375" y="0" on="1"/>
        <pt x="375" y="180" on="1"/>
        <pt x="158" y="180" on="1"/>
        <pt x="64" y="0" on="1"/>
        <pt x="10" y="0" on="1"/>
        <pt x="375" y="661" on="1"/>
        <pt x="751" y="661" on="1"/>
        <pt x="741" y="594" on="1"/>
        <pt x="580" y="625" on="1"/>
        <pt x="531" y="625" on="0"/>
        <pt x="472" y="608" on="1"/>
        <pt x="472" y="366" on="1"/>
        <pt x="669" y="366" on="1"/>
        <pt x="669" y="328" on="1"/>
        <pt x="472" y="328" on="1"/>
        <pt x="472" y="36" on="1"/>
        <pt x="767" y="67" on="1"/>
        <pt x="757" y="0" on="1"/>
      </contour>
      <contour>
        <pt x="375" y="218" on="1"/>
        <pt x="375" y="593" on="1"/>
        <pt x="178" y="218" on="1"/>
      </contour>
    </TTGlyph>
    <TTGlyph name="Aacute" xMin="10" yMin="0" xMax="619" yMax="928">
      <contour>
        <pt x="10" y="0" on="1"/>
        <pt x="307" y="678" on="1"/>
        <pt x="322" y="678" on="1"/>
        <pt x="619" y="0" on="1"/>
        <pt x="510" y="0" on="1"/>
        <pt x="435" y="180" on="1"/>
        <pt x="138" y="180" on="1"/>
        <pt x="64" y="0" on="1"/>
      </contour>
      <contour>
        <pt x="153" y="218" on="1"/>
        <pt x="419" y="218" on="1"/>
        <pt x="287" y="542" on="1"/>
      </contour>
      <contour>
        <pt x="305" y="734" on="1"/>
        <pt x="265" y="734" on="1"/>
        <pt x="437" y="928" on="1"/>
        <pt x="493" y="876" on="1"/>
      </contour>
    </TTGlyph>
    <TTGlyph name="Acircumflex" xMin="10" yMin="0" xMax="619" yMax="886">
      <contour>
        <pt x="10" y="0" on="1"/>
        <pt x="307" y="678" on="1"/>
        <pt x="322" y="678" on="1"/>
        <pt x="619" y="0" on="1"/>
        <pt x="510" y="0" on="1"/>
        <pt x="435" y="180" on="1"/>
        <pt x="138" y="180" on="1"/>
        <pt x="64" y="0" on="1"/>
      </contour>
      <contour>
        <pt x="153" y="218" on="1"/>
        <pt x="419" y="218" on="1"/>
        <pt x="287" y="542" on="1"/>
      </contour>
      <contour>
        <pt x="339" y="886" on="1"/>
        <pt x="465" y="719" on="1"/>
        <pt x="425" y="719" on="1"/>
        <pt x="315" y="812" on="1"/>
        <pt x="206" y="719" on="1"/>
        <pt x="166" y="719" on="1"/>
        <pt x="291" y="886" on="1"/>
      </contour>
    </TTGlyph>
    <TTGlyph name="Adieresis" xMin="10" yMin="0" xMax="619" yMax="811">
      <contour>
        <pt x="10" y="0" on="1"/>
        <pt x="307" y="678" on="1"/>
        <pt x="322" y="678" on="1"/>
        <pt x="619" y="0" on="1"/>
        <pt x="510" y="0" on="1"/>
        <pt x="435" y="180" on="1"/>
        <pt x="138" y="180" on="1"/>
        <pt x="64" y="0" on="1"/>
      </contour>
      <contour>
        <pt x="153" y="218" on="1"/>
        <pt x="419" y="218" on="1"/>
        <pt x="287" y="542" on="1"/>
      </contour>
      <contour>
        <pt x="166" y="753" on="1"/>
        <pt x="166" y="765" on="1"/>
        <pt x="166" y="792" on="0"/>
        <pt x="198" y="808" on="1"/>
        <pt x="212" y="811" on="1"/>
        <pt x="216" y="811" on="1"/>
        <pt x="247" y="811" on="0"/>
        <pt x="261" y="782" on="1"/>
        <pt x="265" y="774" on="0"/>
        <pt x="265" y="768" on="0"/>
        <pt x="266" y="765" on="1"/>
        <pt x="266" y="757" on="1"/>
        <pt x="266" y="740" on="0"/>
        <pt x="247" y="721" on="1"/>
        <pt x="243" y="719" on="0"/>
        <pt x="241" y="717" on="1"/>
        <pt x="239" y="717" on="0"/>
        <pt x="237" y="716" on="1"/>
        <pt x="230" y="711" on="0"/>
        <pt x="220" y="711" on="1"/>
        <pt x="216" y="711" on="1"/>
        <pt x="198" y="711" on="0"/>
        <pt x="184" y="722" on="0"/>
        <pt x="182" y="723" on="1"/>
        <pt x="179" y="725" on="0"/>
        <pt x="179" y="727" on="1"/>
        <pt x="173" y="732" on="0"/>
        <pt x="169" y="743" on="1"/>
      </contour>
      <contour>
        <pt x="363" y="740" on="0"/>
        <pt x="363" y="782" on="0"/>
        <pt x="392" y="811" on="0"/>
        <pt x="434" y="811" on="0"/>
        <pt x="463" y="782" on="0"/>
        <pt x="463" y="740" on="0"/>
        <pt x="434" y="711" on="0"/>
        <pt x="392" y="711" on="0"/>
      </contour>
    </TTGlyph>
    <TTGlyph name="Agrave" xMin="10" yMin="0" xMax="619" yMax="907">
      <contour>
        <pt x="10" y="0" on="1"/>
        <pt x="307" y="678" on="1"/>
        <pt x="322" y="678" on="1"/>
        <pt x="619" y="0" on="1"/>
        <pt x="510" y="0" on="1"/>
        <pt x="435" y="180" on="1"/>
        <pt x="138" y="180" on="1"/>
        <pt x="64" y="0" on="1"/>
      </contour>
      <contour>
        <pt x="153" y="218" on="1"/>
        <pt x="419" y="218" on="1"/>
        <pt x="287" y="542" on="1"/>
      </contour>
      <contour>
        <pt x="389" y="719" on="1"/>
        <pt x="349" y="719" on="1"/>
        <pt x="161" y="857" on="1"/>
        <pt x="217" y="907" on="1"/>
      </contour>
    </TTGlyph>
    <TTGlyph name="Aring" xMin="10" yMin="0" xMax="619" yMax="898">
      <contour>
        <pt x="10" y="0" on="1"/>
        <pt x="307" y="678" on="1"/>
        <pt x="322" y="678" on="1"/>
        <pt x="619" y="0" on="1"/>
        <pt x="510" y="0" on="1"/>
        <pt x="435" y="180" on="1"/>
        <pt x="138" y="180" on="1"/>
        <pt x="64" y="0" on="1"/>
      </contour>
      <contour>
        <pt x="153" y="218" on="1"/>
        <pt x="419" y="218" on="1"/>
        <pt x="287" y="542" on="1"/>
      </contour>
      <contour>
        <pt x="214" y="757" on="0"/>
        <pt x="214" y="839" on="0"/>
        <pt x="271" y="898" on="0"/>
        <pt x="354" y="898" on="0"/>
        <pt x="413" y="839" on="0"/>
        <pt x="413" y="757" on="0"/>
        <pt x="354" y="699" on="0"/>
        <pt x="271" y="699" on="0"/>
      </contour>
      <contour>
        <pt x="379" y="825" on="0"/>
        <pt x="341" y="864" on="0"/>
        <pt x="282" y="864" on="0"/>
        <pt x="248" y="821" on="0"/>
        <pt x="248" y="776" on="0"/>
        <pt x="281" y="733" on="0"/>
        <pt x="340" y="733" on="0"/>
        <pt x="379" y="771" on="0"/>
      </contour>
    </TTGlyph>
    <TTGlyph name="Atilde" xMin="10" yMin="0" xMax="619" yMax="848">
      <contour>
        <pt x="10" y="0" on="1"/>
        <pt x="307" y="678" on="1"/>
        <pt x="322" y="678" on="1"/>
        <pt x="619" y="0" on="1"/>
        <pt x="510" y="0" on="1"/>
        <pt x="435" y="180" on="1"/>
        <pt x="138" y="180" on="1"/>
        <pt x="64" y="0" on="1"/>
      </contour>
      <contour>
        <pt x="153" y="218" on="1"/>
        <pt x="419" y="218" on="1"/>
        <pt x="287" y="542" on="1"/>
      </contour>
      <contour>
        <pt x="350" y="744" on="0"/>
        <pt x="249" y="785" on="0"/>
        <pt x="223" y="785" on="0"/>
        <pt x="201" y="765" on="0"/>
        <pt x="184" y="742" on="1"/>
        <pt x="157" y="757" on="1"/>
        <pt x="184" y="822" on="0"/>
        <pt x="259" y="846" on="1"/>
        <pt x="281" y="846" on="0"/>
        <pt x="382" y="805" on="0"/>
        <pt x="408" y="805" on="0"/>
        <pt x="430" y="825" on="0"/>
        <pt x="447" y="848" on="1"/>
        <pt x="474" y="833" on="1"/>
        <pt x="447" y="768" on="0"/>
        <pt x="372" y="744" on="1"/>
      </contour>
    </TTGlyph>
    <TTGlyph name="B" xMin="90" yMin="0" xMax="568" yMax="662">
      <contour>
        <pt x="90" y="0" on="1"/>
        <pt x="90" y="662" on="1"/>
        <pt x="279" y="662" on="1"/>
        <pt x="394" y="662" on="0"/>
        <pt x="530" y="584" on="0"/>
        <pt x="530" y="506" on="1"/>
        <pt x="530" y="451" on="0"/>
        <pt x="453" y="370" on="0"/>
        <pt x="384" y="349" on="1"/>
        <pt x="475" y="332" on="0"/>
        <pt x="568" y="243" on="0"/>
        <pt x="568" y="137" on="0"/>
        <pt x="514" y="62" on="0"/>
        <pt x="472" y="42" on="1"/>
        <pt x="387" y="0" on="0"/>
        <pt x="298" y="0" on="1"/>
      </contour>
      <contour>
        <pt x="187" y="359" on="1"/>
        <pt x="259" y="359" on="1"/>
        <pt x="350" y="359" on="0"/>
        <pt x="429" y="440" on="0"/>
        <pt x="429" y="501" on="1"/>
        <pt x="429" y="542" on="0"/>
        <pt x="374" y="609" on="0"/>
        <pt x="317" y="626" on="1"/>
        <pt x="249" y="626" on="0"/>
        <pt x="187" y="606" on="1"/>
      </contour>
      <contour>
        <pt x="187" y="330" on="1"/>
        <pt x="187" y="45" on="1"/>
        <pt x="219" y="35" on="0"/>
        <pt x="353" y="35" on="0"/>
        <pt x="457" y="109" on="0"/>
        <pt x="457" y="241" on="0"/>
        <pt x="343" y="330" on="0"/>
        <pt x="263" y="330" on="1"/>
      </contour>
    </TTGlyph>
    <TTGlyph name="C" xMin="28" yMin="-12" xMax="602" yMax="674">
      <contour>
        <pt x="395" y="-12" on="1"/>
        <pt x="240" y="-12" on="0"/>
        <pt x="28" y="156" on="0"/>
        <pt x="28" y="313" on="1"/>
        <pt x="28" y="405" on="0"/>
        <pt x="98" y="549" on="0"/>
        <pt x="155" y="590" on="1"/>
        <pt x="270" y="674" on="0"/>
        <pt x="413" y="674" on="1"/>
        <pt x="496" y="674" on="0"/>
        <pt x="586" y="644" on="1"/>
        <pt x="576" y="576" on="1"/>
        <pt x="529" y="596" on="0"/>
        <pt x="503" y="606" on="1"/>
        <pt x="428" y="633" on="0"/>
        <pt x="352" y="633" on="1"/>
        <pt x="247" y="609" on="0"/>
        <pt x="134" y="449" on="0"/>
        <pt x="134" y="329" on="1"/>
        <pt x="134" y="182" on="0"/>
        <pt x="288" y="23" on="0"/>
        <pt x="540" y="23" on="0"/>
        <pt x="602" y="77" on="1"/>
        <pt x="602" y="22" on="1"/>
        <pt x="516" y="-12" on="0"/>
      </contour>
    </TTGlyph>
    <TTGlyph name="Ccedilla" xMin="28" yMin="-215" xMax="602" yMax="674">
      <contour>
        <pt x="28" y="313" on="1"/>
        <pt x="28" y="405" on="0"/>
        <pt x="98" y="549" on="0"/>
        <pt x="155" y="590" on="1"/>
        <pt x="270" y="674" on="0"/>
        <pt x="413" y="674" on="1"/>
        <pt x="496" y="674" on="0"/>
        <pt x="586" y="644" on="1"/>
        <pt x="576" y="576" on="1"/>
        <pt x="529" y="596" on="0"/>
        <pt x="503" y="606" on="1"/>
        <pt x="428" y="633" on="0"/>
        <pt x="352" y="633" on="1"/>
        <pt x="247" y="609" on="0"/>
        <pt x="134" y="449" on="0"/>
        <pt x="134" y="329" on="1"/>
        <pt x="134" y="182" on="0"/>
        <pt x="288" y="23" on="0"/>
        <pt x="540" y="23" on="0"/>
        <pt x="602" y="77" on="1"/>
        <pt x="602" y="22" on="1"/>
        <pt x="516" y="-12" on="0"/>
        <pt x="395" y="-12" on="1"/>
        <pt x="383" y="-12" on="1"/>
        <pt x="363" y="-65" on="1"/>
        <pt x="396" y="-65" on="0"/>
        <pt x="458" y="-100" on="0"/>
        <pt x="475" y="-132" on="1"/>
        <pt x="475" y="-166" on="0"/>
        <pt x="404" y="-215" on="0"/>
        <pt x="305" y="-215" on="0"/>
        <pt x="266" y="-199" on="1"/>
        <pt x="280" y="-168" on="1"/>
        <pt x="309" y="-180" on="0"/>
        <pt x="366" y="-180" on="0"/>
        <pt x="400" y="-157" on="0"/>
        <pt x="400" y="-141" on="1"/>
        <pt x="379" y="-100" on="0"/>
        <pt x="313" y="-100" on="1"/>
        <pt x="349" y="-10" on="1"/>
        <pt x="210" y="2" on="0"/>
        <pt x="28" y="168" on="0"/>
      </contour>
    </TTGlyph>
    <TTGlyph name="D" xMin="90" yMin="0" xMax="665" yMax="662">
      <contour>
        <pt x="90" y="0" on="1"/>
        <pt x="90" y="662" on="1"/>
        <pt x="279" y="662" on="1"/>
        <pt x="397" y="662" on="0"/>
        <pt x="492" y="612" on="1"/>
        <pt x="543" y="586" on="0"/>
        <pt x="619" y="508" on="0"/>
        <pt x="665" y="387" on="0"/>
        <pt x="665" y="313" on="1"/>
        <pt x="665" y="207" on="0"/>
        <pt x="612" y="134" on="1"/>
        <pt x="515" y="0" on="0"/>
        <pt x="298" y="0" on="1"/>
      </contour>
      <contour>
        <pt x="278" y="34" on="1"/>
        <pt x="405" y="34" on="0"/>
        <pt x="559" y="184" on="0"/>
        <pt x="559" y="329" on="1"/>
        <pt x="559" y="441" on="0"/>
        <pt x="437" y="600" on="0"/>
        <pt x="340" y="626" on="1"/>
        <pt x="253" y="626" on="0"/>
        <pt x="188" y="605" on="1"/>
        <pt x="188" y="43" on="1"/>
        <pt x="220" y="34" on="0"/>
      </contour>
    </TTGlyph>
    <TTGlyph name="Delta" xMin="40" yMin="0" xMax="589" yMax="678">
      <contour>
        <pt x="589" y="0" on="1"/>
        <pt x="40" y="0" on="1"/>
        <pt x="307" y="678" on="1"/>
        <pt x="322" y="678" on="1"/>
      </contour>
      <contour>
        <pt x="287" y="502" on="1"/>
        <pt x="115" y="54" on="1"/>
        <pt x="459" y="54" on="1"/>
      </contour>
    </TTGlyph>
    <TTGlyph name="E" xMin="90" yMin="0" xMax="497" yMax="662">
      <contour>
        <pt x="90" y="0" on="1"/>
        <pt x="90" y="662" on="1"/>
        <pt x="491" y="662" on="1"/>
        <pt x="481" y="595" on="1"/>
        <pt x="295" y="626" on="1"/>
        <pt x="246" y="626" on="0"/>
        <pt x="187" y="609" on="1"/>
        <pt x="187" y="366" on="1"/>
        <pt x="409" y="366" on="1"/>
        <pt x="409" y="328" on="1"/>
        <pt x="187" y="328" on="1"/>
        <pt x="187" y="36" on="1"/>
        <pt x="497" y="67" on="1"/>
        <pt x="487" y="0" on="1"/>
      </contour>
    </TTGlyph>
    <TTGlyph name="Eacute" xMin="90" yMin="0" xMax="497" yMax="907">
      <contour>
        <pt x="90" y="0" on="1"/>
        <pt x="90" y="662" on="1"/>
        <pt x="491" y="662" on="1"/>
        <pt x="481" y="595" on="1"/>
        <pt x="295" y="626" on="1"/>
        <pt x="246" y="626" on="0"/>
        <pt x="187" y="609" on="1"/>
        <pt x="187" y="366" on="1"/>
        <pt x="409" y="366" on="1"/>
        <pt x="409" y="328" on="1"/>
        <pt x="187" y="328" on="1"/>
        <pt x="187" y="36" on="1"/>
        <pt x="497" y="67" on="1"/>
        <pt x="487" y="0" on="1"/>
      </contour>
      <contour>
        <pt x="273" y="719" on="1"/>
        <pt x="233" y="719" on="1"/>
        <pt x="405" y="907" on="1"/>
        <pt x="461" y="857" on="1"/>
      </contour>
    </TTGlyph>
    <TTGlyph name="Ecircumflex" xMin="90" yMin="0" xMax="497" yMax="886">
      <contour>
        <pt x="90" y="0" on="1"/>
        <pt x="90" y="662" on="1"/>
        <pt x="491" y="662" on="1"/>
        <pt x="481" y="595" on="1"/>
        <pt x="295" y="626" on="1"/>
        <pt x="246" y="626" on="0"/>
        <pt x="187" y="609" on="1"/>
        <pt x="187" y="366" on="1"/>
        <pt x="409" y="366" on="1"/>
        <pt x="409" y="328" on="1"/>
        <pt x="187" y="328" on="1"/>
        <pt x="187" y="36" on="1"/>
        <pt x="497" y="67" on="1"/>
        <pt x="487" y="0" on="1"/>
      </contour>
      <contour>
        <pt x="329" y="886" on="1"/>
        <pt x="455" y="719" on="1"/>
        <pt x="415" y="719" on="1"/>
        <pt x="305" y="812" on="1"/>
        <pt x="196" y="719" on="1"/>
        <pt x="156" y="719" on="1"/>
        <pt x="281" y="886" on="1"/>
      </contour>
    </TTGlyph>
    <TTGlyph name="Edieresis" xMin="90" yMin="0" xMax="497" yMax="811">
      <contour>
        <pt x="90" y="0" on="1"/>
        <pt x="90" y="662" on="1"/>
        <pt x="491" y="662" on="1"/>
        <pt x="481" y="595" on="1"/>
        <pt x="295" y="626" on="1"/>
        <pt x="246" y="626" on="0"/>
        <pt x="187" y="609" on="1"/>
        <pt x="187" y="366" on="1"/>
        <pt x="409" y="366" on="1"/>
        <pt x="409" y="328" on="1"/>
        <pt x="187" y="328" on="1"/>
        <pt x="187" y="36" on="1"/>
        <pt x="497" y="67" on="1"/>
        <pt x="487" y="0" on="1"/>
      </contour>
      <contour>
        <pt x="342" y="740" on="0"/>
        <pt x="342" y="782" on="0"/>
        <pt x="371" y="811" on="0"/>
        <pt x="413" y="811" on="0"/>
        <pt x="442" y="782" on="0"/>
        <pt x="442" y="740" on="0"/>
        <pt x="413" y="711" on="0"/>
        <pt x="371" y="711" on="0"/>
      </contour>
      <contour>
        <pt x="203" y="711" on="1"/>
        <pt x="187" y="711" on="1"/>
        <pt x="177" y="714" on="1"/>
        <pt x="159" y="720" on="0"/>
        <pt x="149" y="739" on="1"/>
        <pt x="145" y="751" on="0"/>
        <pt x="145" y="757" on="1"/>
        <pt x="145" y="761" on="1"/>
        <pt x="145" y="774" on="0"/>
        <pt x="153" y="788" on="0"/>
        <pt x="155" y="792" on="1"/>
        <pt x="164" y="800" on="1"/>
        <pt x="172" y="806" on="0"/>
        <pt x="177" y="808" on="1"/>
        <pt x="191" y="811" on="1"/>
        <pt x="199" y="811" on="1"/>
        <pt x="213" y="808" on="1"/>
        <pt x="216" y="806" on="1"/>
        <pt x="218" y="806" on="0"/>
        <pt x="220" y="804" on="1"/>
        <pt x="232" y="795" on="1"/>
        <pt x="238" y="786" on="1"/>
        <pt x="245" y="774" on="0"/>
        <pt x="245" y="761" on="1"/>
        <pt x="245" y="757" on="1"/>
        <pt x="242" y="743" on="1"/>
        <pt x="240" y="738" on="0"/>
        <pt x="234" y="730" on="1"/>
        <pt x="232" y="725" on="0"/>
        <pt x="229" y="724" on="1"/>
        <pt x="224" y="719" on="0"/>
        <pt x="213" y="714" on="1"/>
      </contour>
    </TTGlyph>
    <TTGlyph name="Egrave" xMin="90" yMin="0" xMax="497" yMax="907">
      <contour>
        <pt x="90" y="0" on="1"/>
        <pt x="90" y="662" on="1"/>
        <pt x="491" y="662" on="1"/>
        <pt x="481" y="595" on="1"/>
        <pt x="295" y="626" on="1"/>
        <pt x="246" y="626" on="0"/>
        <pt x="187" y="609" on="1"/>
        <pt x="187" y="366" on="1"/>
        <pt x="409" y="366" on="1"/>
        <pt x="409" y="328" on="1"/>
        <pt x="187" y="328" on="1"/>
        <pt x="187" y="36" on="1"/>
        <pt x="497" y="67" on="1"/>
        <pt x="487" y="0" on="1"/>
      </contour>
      <contour>
        <pt x="381" y="719" on="1"/>
        <pt x="341" y="719" on="1"/>
        <pt x="153" y="857" on="1"/>
        <pt x="209" y="907" on="1"/>
      </contour>
    </TTGlyph>
    <TTGlyph name="Eth" xMin="5" yMin="0" xMax="665" yMax="662">
      <contour>
        <pt x="90" y="0" on="1"/>
        <pt x="90" y="316" on="1"/>
        <pt x="5" y="316" on="1"/>
        <pt x="5" y="359" on="1"/>
        <pt x="90" y="359" on="1"/>
        <pt x="90" y="662" on="1"/>
        <pt x="279" y="662" on="1"/>
        <pt x="397" y="662" on="0"/>
        <pt x="492" y="612" on="1"/>
        <pt x="543" y="586" on="0"/>
        <pt x="619" y="508" on="0"/>
        <pt x="665" y="387" on="0"/>
        <pt x="665" y="313" on="1"/>
        <pt x="665" y="207" on="0"/>
        <pt x="612" y="134" on="1"/>
        <pt x="515" y="0" on="0"/>
        <pt x="298" y="0" on="1"/>
      </contour>
      <contour>
        <pt x="278" y="34" on="1"/>
        <pt x="405" y="34" on="0"/>
        <pt x="559" y="184" on="0"/>
        <pt x="559" y="329" on="1"/>
        <pt x="559" y="441" on="0"/>
        <pt x="437" y="600" on="0"/>
        <pt x="340" y="626" on="1"/>
        <pt x="253" y="626" on="0"/>
        <pt x="188" y="605" on="1"/>
        <pt x="188" y="359" on="1"/>
        <pt x="332" y="359" on="1"/>
        <pt x="332" y="316" on="1"/>
        <pt x="188" y="316" on="1"/>
        <pt x="188" y="43" on="1"/>
        <pt x="220" y="34" on="0"/>
      </contour>
    </TTGlyph>
    <TTGlyph name="Euro" xMin="18" yMin="-13" xMax="482" yMax="677">
      <contour>
        <pt x="70" y="326" on="1"/>
        <pt x="71" y="360" on="1"/>
        <pt x="18" y="360" on="1"/>
        <pt x="18" y="398" on="1"/>
        <pt x="75" y="398" on="1"/>
        <pt x="85" y="470" on="0"/>
        <pt x="149" y="584" on="0"/>
        <pt x="190" y="615" on="1"/>
        <pt x="274" y="677" on="0"/>
        <pt x="422" y="677" on="0"/>
        <pt x="470" y="647" on="1"/>
        <pt x="460" y="581" on="1"/>
        <pt x="355" y="636" on="0"/>
        <pt x="311" y="636" on="1"/>
        <pt x="256" y="617" on="0"/>
        <pt x="174" y="492" on="0"/>
        <pt x="165" y="398" on="1"/>
        <pt x="381" y="398" on="1"/>
        <pt x="381" y="360" on="1"/>
        <pt x="163" y="360" on="1"/>
        <pt x="163" y="352" on="1"/>
        <pt x="163" y="309" on="0"/>
        <pt x="166" y="273" on="1"/>
        <pt x="381" y="273" on="1"/>
        <pt x="381" y="234" on="1"/>
        <pt x="171" y="234" on="1"/>
        <pt x="189" y="124" on="0"/>
        <pt x="286" y="21" on="0"/>
        <pt x="353" y="21" on="1"/>
        <pt x="438" y="21" on="0"/>
        <pt x="482" y="75" on="1"/>
        <pt x="482" y="20" on="1"/>
        <pt x="419" y="-13" on="0"/>
        <pt x="283" y="-13" on="0"/>
        <pt x="179" y="35" on="0"/>
        <pt x="92" y="150" on="0"/>
        <pt x="77" y="234" on="1"/>
        <pt x="18" y="234" on="1"/>
        <pt x="18" y="273" on="1"/>
        <pt x="72" y="273" on="1"/>
        <pt x="70" y="307" on="0"/>
      </contour>
    </TTGlyph>
    <TTGlyph name="F" xMin="90" yMin="0" xMax="481" yMax="662">
      <contour>
        <pt x="187" y="366" on="1"/>
        <pt x="399" y="366" on="1"/>
        <pt x="399" y="328" on="1"/>
        <pt x="187" y="328" on="1"/>
        <pt x="187" y="0" on="1"/>
        <pt x="90" y="0" on="1"/>
        <pt x="90" y="662" on="1"/>
        <pt x="481" y="662" on="1"/>
        <pt x="481" y="595" on="1"/>
        <pt x="296" y="626" on="1"/>
        <pt x="246" y="626" on="0"/>
        <pt x="187" y="609" on="1"/>
      </contour>
    </TTGlyph>
    <TTGlyph name="G" xMin="32" yMin="-12" xMax="606" yMax="674">
      <contour>
        <pt x="509" y="285" on="1"/>
        <pt x="606" y="285" on="1"/>
        <pt x="606" y="22" on="1"/>
        <pt x="520" y="-12" on="0"/>
        <pt x="399" y="-12" on="1"/>
        <pt x="252" y="-12" on="0"/>
        <pt x="146" y="66" on="1"/>
        <pt x="94" y="105" on="0"/>
        <pt x="32" y="232" on="0"/>
        <pt x="32" y="386" on="0"/>
        <pt x="80" y="509" on="0"/>
        <pt x="157" y="591" on="0"/>
        <pt x="208" y="620" on="1"/>
        <pt x="303" y="674" on="0"/>
        <pt x="417" y="674" on="1"/>
        <pt x="461" y="674" on="0"/>
        <pt x="563" y="654" on="0"/>
        <pt x="590" y="643" on="1"/>
        <pt x="580" y="576" on="1"/>
        <pt x="445" y="633" on="0"/>
        <pt x="356" y="633" on="1"/>
        <pt x="255" y="607" on="0"/>
        <pt x="138" y="445" on="0"/>
        <pt x="138" y="328" on="1"/>
        <pt x="138" y="182" on="0"/>
        <pt x="292" y="23" on="0"/>
        <pt x="418" y="23" on="1"/>
        <pt x="468" y="23" on="0"/>
        <pt x="509" y="33" on="1"/>
      </contour>
    </TTGlyph>
    <TTGlyph name="H" xMin="90" yMin="0" xMax="587" yMax="662">
      <contour>
        <pt x="187" y="328" on="1"/>
        <pt x="187" y="0" on="1"/>
        <pt x="90" y="0" on="1"/>
        <pt x="90" y="662" on="1"/>
        <pt x="187" y="662" on="1"/>
        <pt x="187" y="366" on="1"/>
        <pt x="490" y="366" on="1"/>
        <pt x="490" y="662" on="1"/>
        <pt x="587" y="662" on="1"/>
        <pt x="587" y="0" on="1"/>
        <pt x="490" y="0" on="1"/>
        <pt x="490" y="328" on="1"/>
      </contour>
    </TTGlyph>
    <TTGlyph name="I" xMin="90" yMin="0" xMax="182" yMax="662">
      <contour>
        <pt x="182" y="662" on="1"/>
        <pt x="182" y="0" on="1"/>
        <pt x="90" y="0" on="1"/>
        <pt x="90" y="662" on="1"/>
      </contour>
    </TTGlyph>
    <TTGlyph name="Iacute" xMin="90" yMin="0" xMax="321" yMax="907">
      <contour>
        <pt x="182" y="662" on="1"/>
        <pt x="182" y="0" on="1"/>
        <pt x="90" y="0" on="1"/>
        <pt x="90" y="662" on="1"/>
      </contour>
      <contour>
        <pt x="133" y="719" on="1"/>
        <pt x="93" y="719" on="1"/>
        <pt x="265" y="907" on="1"/>
        <pt x="321" y="857" on="1"/>
      </contour>
    </TTGlyph>
    <TTGlyph name="Icircumflex" xMin="-14" yMin="0" xMax="285" yMax="886">
      <contour>
        <pt x="182" y="662" on="1"/>
        <pt x="182" y="0" on="1"/>
        <pt x="90" y="0" on="1"/>
        <pt x="90" y="662" on="1"/>
      </contour>
      <contour>
        <pt x="159" y="886" on="1"/>
        <pt x="285" y="719" on="1"/>
        <pt x="245" y="719" on="1"/>
        <pt x="135" y="812" on="1"/>
        <pt x="26" y="719" on="1"/>
        <pt x="-14" y="719" on="1"/>
        <pt x="111" y="886" on="1"/>
      </contour>
    </TTGlyph>
    <TTGlyph name="Idieresis" xMin="-10" yMin="0" xMax="287" yMax="811">
      <contour>
        <pt x="182" y="662" on="1"/>
        <pt x="182" y="0" on="1"/>
        <pt x="90" y="0" on="1"/>
        <pt x="90" y="662" on="1"/>
      </contour>
      <contour>
        <pt x="187" y="740" on="0"/>
        <pt x="187" y="782" on="0"/>
        <pt x="216" y="811" on="0"/>
        <pt x="258" y="811" on="0"/>
        <pt x="287" y="782" on="0"/>
        <pt x="287" y="740" on="0"/>
        <pt x="258" y="711" on="0"/>
        <pt x="216" y="711" on="0"/>
      </contour>
      <contour>
        <pt x="74" y="798" on="1"/>
        <pt x="88" y="784" on="0"/>
        <pt x="89" y="768" on="0"/>
        <pt x="90" y="765" on="1"/>
        <pt x="90" y="761" on="1"/>
        <pt x="90" y="755" on="0"/>
        <pt x="90" y="751" on="1"/>
        <pt x="88" y="741" on="0"/>
        <pt x="83" y="736" on="1"/>
        <pt x="78" y="725" on="0"/>
        <pt x="74" y="724" on="1"/>
        <pt x="61" y="711" on="0"/>
        <pt x="27" y="711" on="0"/>
        <pt x="16" y="717" on="0"/>
        <pt x="13" y="719" on="0"/>
        <pt x="9" y="721" on="1"/>
        <pt x="2" y="727" on="0"/>
        <pt x="-3" y="736" on="1"/>
        <pt x="-10" y="741" on="0"/>
        <pt x="-10" y="770" on="0"/>
        <pt x="-7" y="779" on="1"/>
        <pt x="5" y="811" on="0"/>
        <pt x="40" y="811" on="1"/>
        <pt x="44" y="811" on="1"/>
        <pt x="47" y="810" on="0"/>
        <pt x="52" y="810" on="0"/>
        <pt x="67" y="803" on="0"/>
      </contour>
    </TTGlyph>
    <TTGlyph name="Igrave" xMin="-45" yMin="0" xMax="183" yMax="907">
      <contour>
        <pt x="182" y="662" on="1"/>
        <pt x="182" y="0" on="1"/>
        <pt x="90" y="0" on="1"/>
        <pt x="90" y="662" on="1"/>
      </contour>
      <contour>
        <pt x="183" y="719" on="1"/>
        <pt x="143" y="719" on="1"/>
        <pt x="-45" y="857" on="1"/>
        <pt x="11" y="907" on="1"/>
      </contour>
    </TTGlyph>
    <TTGlyph name="J" xMin="-53" yMin="-224" xMax="278" yMax="662">
      <contour>
        <pt x="179" y="41" on="1"/>
        <pt x="179" y="662" on="1"/>
        <pt x="278" y="662" on="1"/>
        <pt x="278" y="41" on="1"/>
        <pt x="278" y="-69" on="0"/>
        <pt x="143" y="-224" on="0"/>
        <pt x="47" y="-224" on="1"/>
        <pt x="-4" y="-224" on="0"/>
        <pt x="-53" y="-210" on="1"/>
        <pt x="-43" y="-132" on="1"/>
        <pt x="-16" y="-150" on="0"/>
        <pt x="68" y="-177" on="0"/>
        <pt x="98" y="-177" on="1"/>
        <pt x="132" y="-156" on="0"/>
        <pt x="179" y="-31" on="0"/>
      </contour>
    </TTGlyph>
    <TTGlyph name="K" xMin="90" yMin="-13" xMax="609" yMax="662">
      <contour>
        <pt x="192" y="0" on="1"/>
        <pt x="90" y="0" on="1"/>
        <pt x="90" y="662" on="1"/>
        <pt x="192" y="662" on="1"/>
        <pt x="192" y="336" on="1"/>
        <pt x="501" y="662" on="1"/>
        <pt x="567" y="662" on="1"/>
        <pt x="254" y="354" on="1"/>
        <pt x="609" y="0" on="1"/>
        <pt x="481" y="-13" on="1"/>
        <pt x="192" y="326" on="1"/>
      </contour>
    </TTGlyph>
    <TTGlyph name="L" xMin="90" yMin="0" xMax="467" yMax="662">
      <contour>
        <pt x="90" y="0" on="1"/>
        <pt x="90" y="662" on="1"/>
        <pt x="188" y="662" on="1"/>
        <pt x="188" y="54" on="1"/>
        <pt x="249" y="36" on="0"/>
        <pt x="286" y="36" on="1"/>
        <pt x="467" y="67" on="1"/>
        <pt x="455" y="0" on="1"/>
      </contour>
    </TTGlyph>
    <TTGlyph name="Lslash" xMin="3" yMin="0" xMax="467" yMax="662">
      <contour>
        <pt x="90" y="0" on="1"/>
        <pt x="90" y="251" on="1"/>
        <pt x="3" y="196" on="1"/>
        <pt x="3" y="245" on="1"/>
        <pt x="90" y="300" on="1"/>
        <pt x="90" y="662" on="1"/>
        <pt x="188" y="662" on="1"/>
        <pt x="188" y="363" on="1"/>
        <pt x="313" y="443" on="1"/>
        <pt x="313" y="394" on="1"/>
        <pt x="188" y="314" on="1"/>
        <pt x="188" y="54" on="1"/>
        <pt x="249" y="36" on="0"/>
        <pt x="286" y="36" on="1"/>
        <pt x="467" y="67" on="1"/>
        <pt x="455" y="0" on="1"/>
      </contour>
    </TTGlyph>
    <TTGlyph name="M" xMin="82" yMin="0" xMax="803" yMax="662">
      <contour>
        <pt x="443" y="157" on="1"/>
        <pt x="664" y="662" on="1"/>
        <pt x="766" y="662" on="1"/>
        <pt x="803" y="0" on="1"/>
        <pt x="701" y="0" on="1"/>
        <pt x="674" y="569" on="1"/>
        <pt x="670" y="569" on="1"/>
        <pt x="418" y="0" on="1"/>
        <pt x="404" y="0" on="1"/>
        <pt x="157" y="546" on="1"/>
        <pt x="153" y="546" on="1"/>
        <pt x="126" y="0" on="1"/>
        <pt x="82" y="0" on="1"/>
        <pt x="119" y="662" on="1"/>
        <pt x="212" y="662" on="1"/>
      </contour>
    </TTGlyph>
    <TTGlyph name="N" xMin="90" yMin="-11" xMax="593" yMax="662">
      <contour>
        <pt x="593" y="-11" on="1"/>
        <pt x="576" y="-11" on="1"/>
        <pt x="138" y="537" on="1"/>
        <pt x="134" y="537" on="1"/>
        <pt x="134" y="0" on="1"/>
        <pt x="90" y="0" on="1"/>
        <pt x="90" y="662" on="1"/>
        <pt x="164" y="662" on="1"/>
        <pt x="545" y="181" on="1"/>
        <pt x="549" y="181" on="1"/>
        <pt x="549" y="662" on="1"/>
        <pt x="593" y="662" on="1"/>
      </contour>
    </TTGlyph>
    <TTGlyph name="Ntilde" xMin="90" yMin="-11" xMax="593" yMax="848">
      <contour>
        <pt x="593" y="-11" on="1"/>
        <pt x="576" y="-11" on="1"/>
        <pt x="138" y="537" on="1"/>
        <pt x="134" y="537" on="1"/>
        <pt x="134" y="0" on="1"/>
        <pt x="90" y="0" on="1"/>
        <pt x="90" y="662" on="1"/>
        <pt x="164" y="662" on="1"/>
        <pt x="545" y="181" on="1"/>
        <pt x="549" y="181" on="1"/>
        <pt x="549" y="662" on="1"/>
        <pt x="593" y="662" on="1"/>
      </contour>
      <contour>
        <pt x="395" y="744" on="0"/>
        <pt x="294" y="785" on="0"/>
        <pt x="268" y="785" on="0"/>
        <pt x="246" y="765" on="0"/>
        <pt x="229" y="742" on="1"/>
        <pt x="202" y="757" on="1"/>
        <pt x="229" y="822" on="0"/>
        <pt x="304" y="846" on="1"/>
        <pt x="326" y="846" on="0"/>
        <pt x="427" y="805" on="0"/>
        <pt x="453" y="805" on="0"/>
        <pt x="475" y="825" on="0"/>
        <pt x="492" y="848" on="1"/>
        <pt x="519" y="833" on="1"/>
        <pt x="492" y="768" on="0"/>
        <pt x="417" y="744" on="1"/>
      </contour>
    </TTGlyph>
    <TTGlyph name="O" xMin="34" yMin="-12" xMax="691" yMax="674">
      <contour>
        <pt x="391" y="674" on="1"/>
        <pt x="521" y="674" on="0"/>
        <pt x="691" y="503" on="0"/>
        <pt x="691" y="351" on="1"/>
        <pt x="691" y="253" on="0"/>
        <pt x="623" y="106" on="0"/>
        <pt x="568" y="66" on="1"/>
        <pt x="461" y="-12" on="0"/>
        <pt x="203" y="-12" on="0"/>
        <pt x="34" y="161" on="0"/>
        <pt x="34" y="313" on="1"/>
        <pt x="34" y="392" on="0"/>
        <pt x="79" y="519" on="0"/>
        <pt x="152" y="599" on="0"/>
        <pt x="200" y="626" on="1"/>
        <pt x="288" y="674" on="0"/>
      </contour>
      <contour>
        <pt x="216" y="70" on="0"/>
        <pt x="304" y="21" on="0"/>
        <pt x="419" y="21" on="0"/>
        <pt x="509" y="79" on="0"/>
        <pt x="534" y="126" on="1"/>
        <pt x="585" y="220" on="0"/>
        <pt x="585" y="328" on="1"/>
        <pt x="585" y="461" on="0"/>
        <pt x="532" y="542" on="1"/>
        <pt x="473" y="633" on="0"/>
        <pt x="337" y="633" on="1"/>
        <pt x="240" y="599" on="0"/>
        <pt x="140" y="433" on="0"/>
        <pt x="140" y="328" on="1"/>
        <pt x="140" y="200" on="0"/>
        <pt x="190" y="114" on="1"/>
      </contour>
    </TTGlyph>
    <TTGlyph name="OE" xMin="34" yMin="0" xMax="794" yMax="662">
      <contour>
        <pt x="343" y="0" on="1"/>
        <pt x="210" y="0" on="0"/>
        <pt x="34" y="166" on="0"/>
        <pt x="34" y="312" on="1"/>
        <pt x="34" y="388" on="0"/>
        <pt x="81" y="510" on="0"/>
        <pt x="155" y="588" on="0"/>
        <pt x="204" y="614" on="1"/>
        <pt x="296" y="662" on="0"/>
        <pt x="402" y="662" on="1"/>
        <pt x="778" y="662" on="1"/>
        <pt x="768" y="595" on="1"/>
        <pt x="607" y="626" on="1"/>
        <pt x="558" y="626" on="0"/>
        <pt x="499" y="609" on="1"/>
        <pt x="499" y="366" on="1"/>
        <pt x="696" y="366" on="1"/>
        <pt x="696" y="328" on="1"/>
        <pt x="499" y="328" on="1"/>
        <pt x="499" y="36" on="1"/>
        <pt x="794" y="67" on="1"/>
        <pt x="784" y="0" on="1"/>
      </contour>
      <contour>
        <pt x="372" y="623" on="1"/>
        <pt x="261" y="623" on="0"/>
        <pt x="143" y="463" on="0"/>
        <pt x="143" y="202" on="0"/>
        <pt x="268" y="32" on="0"/>
        <pt x="372" y="32" on="1"/>
        <pt x="392" y="32" on="0"/>
        <pt x="402" y="33" on="1"/>
        <pt x="402" y="620" on="1"/>
        <pt x="387" y="623" on="0"/>
      </contour>
    </TTGlyph>
    <TTGlyph name="Oacute" xMin="34" yMin="-12" xMax="691" yMax="907">
      <contour>
        <pt x="391" y="674" on="1"/>
        <pt x="521" y="674" on="0"/>
        <pt x="691" y="503" on="0"/>
        <pt x="691" y="351" on="1"/>
        <pt x="691" y="253" on="0"/>
        <pt x="623" y="106" on="0"/>
        <pt x="568" y="66" on="1"/>
        <pt x="461" y="-12" on="0"/>
        <pt x="203" y="-12" on="0"/>
        <pt x="34" y="161" on="0"/>
        <pt x="34" y="313" on="1"/>
        <pt x="34" y="392" on="0"/>
        <pt x="79" y="519" on="0"/>
        <pt x="152" y="599" on="0"/>
        <pt x="200" y="626" on="1"/>
        <pt x="288" y="674" on="0"/>
      </contour>
      <contour>
        <pt x="216" y="70" on="0"/>
        <pt x="304" y="21" on="0"/>
        <pt x="419" y="21" on="0"/>
        <pt x="509" y="79" on="0"/>
        <pt x="534" y="126" on="1"/>
        <pt x="585" y="220" on="0"/>
        <pt x="585" y="328" on="1"/>
        <pt x="585" y="461" on="0"/>
        <pt x="532" y="542" on="1"/>
        <pt x="473" y="633" on="0"/>
        <pt x="337" y="633" on="1"/>
        <pt x="240" y="599" on="0"/>
        <pt x="140" y="433" on="0"/>
        <pt x="140" y="328" on="1"/>
        <pt x="140" y="200" on="0"/>
        <pt x="190" y="114" on="1"/>
      </contour>
      <contour>
        <pt x="328" y="719" on="1"/>
        <pt x="288" y="719" on="1"/>
        <pt x="460" y="907" on="1"/>
        <pt x="516" y="857" on="1"/>
      </contour>
    </TTGlyph>
    <TTGlyph name="Ocircumflex" xMin="34" yMin="-12" xMax="691" yMax="886">
      <contour>
        <pt x="391" y="674" on="1"/>
        <pt x="521" y="674" on="0"/>
        <pt x="691" y="503" on="0"/>
        <pt x="691" y="351" on="1"/>
        <pt x="691" y="253" on="0"/>
        <pt x="623" y="106" on="0"/>
        <pt x="568" y="66" on="1"/>
        <pt x="461" y="-12" on="0"/>
        <pt x="203" y="-12" on="0"/>
        <pt x="34" y="161" on="0"/>
        <pt x="34" y="313" on="1"/>
        <pt x="34" y="392" on="0"/>
        <pt x="79" y="519" on="0"/>
        <pt x="152" y="599" on="0"/>
        <pt x="200" y="626" on="1"/>
        <pt x="288" y="674" on="0"/>
      </contour>
      <contour>
        <pt x="216" y="70" on="0"/>
        <pt x="304" y="21" on="0"/>
        <pt x="419" y="21" on="0"/>
        <pt x="509" y="79" on="0"/>
        <pt x="534" y="126" on="1"/>
        <pt x="585" y="220" on="0"/>
        <pt x="585" y="328" on="1"/>
        <pt x="585" y="461" on="0"/>
        <pt x="532" y="542" on="1"/>
        <pt x="473" y="633" on="0"/>
        <pt x="337" y="633" on="1"/>
        <pt x="240" y="599" on="0"/>
        <pt x="140" y="433" on="0"/>
        <pt x="140" y="328" on="1"/>
        <pt x="140" y="200" on="0"/>
        <pt x="190" y="114" on="1"/>
      </contour>
      <contour>
        <pt x="384" y="886" on="1"/>
        <pt x="510" y="719" on="1"/>
        <pt x="470" y="719" on="1"/>
        <pt x="360" y="812" on="1"/>
        <pt x="251" y="719" on="1"/>
        <pt x="211" y="719" on="1"/>
        <pt x="336" y="886" on="1"/>
      </contour>
    </TTGlyph>
    <TTGlyph name="Odieresis" xMin="34" yMin="-12" xMax="691" yMax="811">
      <contour>
        <pt x="391" y="674" on="1"/>
        <pt x="521" y="674" on="0"/>
        <pt x="691" y="503" on="0"/>
        <pt x="691" y="351" on="1"/>
        <pt x="691" y="253" on="0"/>
        <pt x="623" y="106" on="0"/>
        <pt x="568" y="66" on="1"/>
        <pt x="461" y="-12" on="0"/>
        <pt x="203" y="-12" on="0"/>
        <pt x="34" y="161" on="0"/>
        <pt x="34" y="313" on="1"/>
        <pt x="34" y="392" on="0"/>
        <pt x="79" y="519" on="0"/>
        <pt x="152" y="599" on="0"/>
        <pt x="200" y="626" on="1"/>
        <pt x="288" y="674" on="0"/>
      </contour>
      <contour>
        <pt x="216" y="70" on="0"/>
        <pt x="304" y="21" on="0"/>
        <pt x="419" y="21" on="0"/>
        <pt x="509" y="79" on="0"/>
        <pt x="534" y="126" on="1"/>
        <pt x="585" y="220" on="0"/>
        <pt x="585" y="328" on="1"/>
        <pt x="585" y="461" on="0"/>
        <pt x="532" y="542" on="1"/>
        <pt x="473" y="633" on="0"/>
        <pt x="337" y="633" on="1"/>
        <pt x="240" y="599" on="0"/>
        <pt x="140" y="433" on="0"/>
        <pt x="140" y="328" on="1"/>
        <pt x="140" y="200" on="0"/>
        <pt x="190" y="114" on="1"/>
      </contour>
      <contour>
        <pt x="269" y="711" on="1"/>
        <pt x="257" y="711" on="1"/>
        <pt x="247" y="713" on="0"/>
        <pt x="238" y="719" on="0"/>
        <pt x="234" y="721" on="1"/>
        <pt x="216" y="735" on="0"/>
        <pt x="215" y="757" on="1"/>
        <pt x="215" y="761" on="1"/>
        <pt x="215" y="782" on="0"/>
        <pt x="244" y="811" on="0"/>
        <pt x="265" y="811" on="1"/>
        <pt x="296" y="811" on="0"/>
        <pt x="310" y="782" on="1"/>
        <pt x="315" y="772" on="0"/>
        <pt x="315" y="761" on="1"/>
        <pt x="315" y="757" on="1"/>
        <pt x="315" y="756" on="0"/>
        <pt x="314" y="752" on="1"/>
        <pt x="313" y="741" on="0"/>
        <pt x="308" y="736" on="1"/>
        <pt x="302" y="727" on="1"/>
        <pt x="296" y="721" on="1"/>
        <pt x="292" y="719" on="0"/>
        <pt x="290" y="717" on="1"/>
        <pt x="276" y="711" on="0"/>
      </contour>
      <contour>
        <pt x="412" y="740" on="0"/>
        <pt x="412" y="782" on="0"/>
        <pt x="441" y="811" on="0"/>
        <pt x="483" y="811" on="0"/>
        <pt x="512" y="782" on="0"/>
        <pt x="512" y="740" on="0"/>
        <pt x="483" y="711" on="0"/>
        <pt x="441" y="711" on="0"/>
      </contour>
    </TTGlyph>
    <TTGlyph name="Ograve" xMin="34" yMin="-12" xMax="691" yMax="907">
      <contour>
        <pt x="391" y="674" on="1"/>
        <pt x="521" y="674" on="0"/>
        <pt x="691" y="503" on="0"/>
        <pt x="691" y="351" on="1"/>
        <pt x="691" y="253" on="0"/>
        <pt x="623" y="106" on="0"/>
        <pt x="568" y="66" on="1"/>
        <pt x="461" y="-12" on="0"/>
        <pt x="203" y="-12" on="0"/>
        <pt x="34" y="161" on="0"/>
        <pt x="34" y="313" on="1"/>
        <pt x="34" y="392" on="0"/>
        <pt x="79" y="519" on="0"/>
        <pt x="152" y="599" on="0"/>
        <pt x="200" y="626" on="1"/>
        <pt x="288" y="674" on="0"/>
      </contour>
      <contour>
        <pt x="216" y="70" on="0"/>
        <pt x="304" y="21" on="0"/>
        <pt x="419" y="21" on="0"/>
        <pt x="509" y="79" on="0"/>
        <pt x="534" y="126" on="1"/>
        <pt x="585" y="220" on="0"/>
        <pt x="585" y="328" on="1"/>
        <pt x="585" y="461" on="0"/>
        <pt x="532" y="542" on="1"/>
        <pt x="473" y="633" on="0"/>
        <pt x="337" y="633" on="1"/>
        <pt x="240" y="599" on="0"/>
        <pt x="140" y="433" on="0"/>
        <pt x="140" y="328" on="1"/>
        <pt x="140" y="200" on="0"/>
        <pt x="190" y="114" on="1"/>
      </contour>
      <contour>
        <pt x="436" y="719" on="1"/>
        <pt x="396" y="719" on="1"/>
        <pt x="208" y="857" on="1"/>
        <pt x="264" y="907" on="1"/>
      </contour>
    </TTGlyph>
    <TTGlyph name="Omega" xMin="64" yMin="0" xMax="661" yMax="674">
      <contour>
        <pt x="651" y="0" on="1"/>
        <pt x="459" y="0" on="1"/>
        <pt x="459" y="131" on="1"/>
        <pt x="506" y="167" on="0"/>
        <pt x="555" y="300" on="0"/>
        <pt x="555" y="443" on="0"/>
        <pt x="518" y="558" on="0"/>
        <pt x="429" y="633" on="0"/>
        <pt x="298" y="633" on="0"/>
        <pt x="252" y="590" on="1"/>
        <pt x="170" y="511" on="0"/>
        <pt x="170" y="368" on="1"/>
        <pt x="170" y="188" on="0"/>
        <pt x="267" y="126" on="1"/>
        <pt x="267" y="0" on="1"/>
        <pt x="75" y="0" on="1"/>
        <pt x="75" y="64" on="1"/>
        <pt x="210" y="51" on="1"/>
        <pt x="210" y="103" on="1"/>
        <pt x="142" y="134" on="0"/>
        <pt x="64" y="261" on="0"/>
        <pt x="64" y="425" on="0"/>
        <pt x="105" y="537" on="0"/>
        <pt x="171" y="607" on="0"/>
        <pt x="214" y="631" on="1"/>
        <pt x="292" y="674" on="0"/>
        <pt x="389" y="674" on="1"/>
        <pt x="507" y="674" on="0"/>
        <pt x="661" y="524" on="0"/>
        <pt x="661" y="389" on="1"/>
        <pt x="661" y="205" on="0"/>
        <pt x="516" y="123" on="1"/>
        <pt x="516" y="51" on="1"/>
        <pt x="651" y="64" on="1"/>
      </contour>
    </TTGlyph>
    <TTGlyph name="Oslash" xMin="34" yMin="-80" xMax="691" yMax="734">
      <contour>
        <pt x="543" y="636" on="1"/>
        <pt x="609" y="734" on="1"/>
        <pt x="658" y="734" on="1"/>
        <pt x="577" y="614" on="1"/>
        <pt x="691" y="526" on="0"/>
        <pt x="691" y="351" on="1"/>
        <pt x="691" y="253" on="0"/>
        <pt x="623" y="106" on="0"/>
        <pt x="568" y="66" on="1"/>
        <pt x="461" y="-12" on="0"/>
        <pt x="333" y="-12" on="1"/>
        <pt x="246" y="-12" on="0"/>
        <pt x="178" y="27" on="1"/>
        <pt x="105" y="-80" on="1"/>
        <pt x="56" y="-80" on="1"/>
        <pt x="145" y="50" on="1"/>
        <pt x="34" y="140" on="0"/>
        <pt x="34" y="313" on="1"/>
        <pt x="34" y="392" on="0"/>
        <pt x="79" y="519" on="0"/>
        <pt x="152" y="599" on="0"/>
        <pt x="200" y="626" on="1"/>
        <pt x="288" y="674" on="0"/>
        <pt x="475" y="674" on="0"/>
      </contour>
      <contour>
        <pt x="362" y="21" on="1"/>
        <pt x="419" y="21" on="0"/>
        <pt x="509" y="79" on="0"/>
        <pt x="534" y="126" on="1"/>
        <pt x="585" y="220" on="0"/>
        <pt x="585" y="328" on="1"/>
        <pt x="585" y="466" on="0"/>
        <pt x="530" y="545" on="1"/>
        <pt x="215" y="81" on="1"/>
        <pt x="270" y="21" on="0"/>
      </contour>
      <contour>
        <pt x="240" y="599" on="0"/>
        <pt x="140" y="433" on="0"/>
        <pt x="140" y="197" on="0"/>
        <pt x="189" y="116" on="1"/>
        <pt x="502" y="576" on="1"/>
        <pt x="440" y="633" on="0"/>
        <pt x="337" y="633" on="1"/>
      </contour>
    </TTGlyph>
    <TTGlyph name="Otilde" xMin="34" yMin="-12" xMax="691" yMax="848">
      <contour>
        <pt x="391" y="674" on="1"/>
        <pt x="521" y="674" on="0"/>
        <pt x="691" y="503" on="0"/>
        <pt x="691" y="351" on="1"/>
        <pt x="691" y="253" on="0"/>
        <pt x="623" y="106" on="0"/>
        <pt x="568" y="66" on="1"/>
        <pt x="461" y="-12" on="0"/>
        <pt x="203" y="-12" on="0"/>
        <pt x="34" y="161" on="0"/>
        <pt x="34" y="313" on="1"/>
        <pt x="34" y="392" on="0"/>
        <pt x="79" y="519" on="0"/>
        <pt x="152" y="599" on="0"/>
        <pt x="200" y="626" on="1"/>
        <pt x="288" y="674" on="0"/>
      </contour>
      <contour>
        <pt x="216" y="70" on="0"/>
        <pt x="304" y="21" on="0"/>
        <pt x="419" y="21" on="0"/>
        <pt x="509" y="79" on="0"/>
        <pt x="534" y="126" on="1"/>
        <pt x="585" y="220" on="0"/>
        <pt x="585" y="328" on="1"/>
        <pt x="585" y="461" on="0"/>
        <pt x="532" y="542" on="1"/>
        <pt x="473" y="633" on="0"/>
        <pt x="337" y="633" on="1"/>
        <pt x="240" y="599" on="0"/>
        <pt x="140" y="433" on="0"/>
        <pt x="140" y="328" on="1"/>
        <pt x="140" y="200" on="0"/>
        <pt x="190" y="114" on="1"/>
      </contour>
      <contour>
        <pt x="397" y="744" on="0"/>
        <pt x="296" y="785" on="0"/>
        <pt x="270" y="785" on="0"/>
        <pt x="248" y="765" on="0"/>
        <pt x="231" y="742" on="1"/>
        <pt x="204" y="757" on="1"/>
        <pt x="231" y="822" on="0"/>
        <pt x="306" y="846" on="1"/>
        <pt x="328" y="846" on="0"/>
        <pt x="429" y="805" on="0"/>
        <pt x="455" y="805" on="0"/>
        <pt x="477" y="825" on="0"/>
        <pt x="494" y="848" on="1"/>
        <pt x="521" y="833" on="1"/>
        <pt x="494" y="768" on="0"/>
        <pt x="419" y="744" on="1"/>
      </contour>
    </TTGlyph>
    <TTGlyph name="P" xMin="90" yMin="0" xMax="535" yMax="662">
      <contour>
        <pt x="535" y="490" on="1"/>
        <pt x="535" y="394" on="0"/>
        <pt x="394" y="295" on="0"/>
        <pt x="273" y="295" on="1"/>
        <pt x="187" y="295" on="1"/>
        <pt x="187" y="0" on="1"/>
        <pt x="90" y="0" on="1"/>
        <pt x="90" y="662" on="1"/>
        <pt x="305" y="662" on="1"/>
        <pt x="406" y="662" on="0"/>
        <pt x="535" y="570" on="0"/>
      </contour>
      <contour>
        <pt x="187" y="324" on="1"/>
        <pt x="276" y="324" on="1"/>
        <pt x="323" y="324" on="0"/>
        <pt x="390" y="360" on="0"/>
        <pt x="405" y="388" on="1"/>
        <pt x="432" y="438" on="0"/>
        <pt x="432" y="485" on="1"/>
        <pt x="432" y="508" on="0"/>
        <pt x="420" y="540" on="1"/>
        <pt x="396" y="606" on="0"/>
        <pt x="321" y="626" on="1"/>
        <pt x="249" y="626" on="0"/>
        <pt x="187" y="609" on="1"/>
      </contour>
    </TTGlyph>
    <TTGlyph name="Q" xMin="34" yMin="-180" xMax="691" yMax="674">
      <contour>
        <pt x="391" y="674" on="1"/>
        <pt x="521" y="674" on="0"/>
        <pt x="691" y="503" on="0"/>
        <pt x="691" y="351" on="1"/>
        <pt x="691" y="268" on="0"/>
        <pt x="642" y="137" on="0"/>
        <pt x="600" y="96" on="1"/>
        <pt x="520" y="16" on="0"/>
        <pt x="409" y="-4" on="1"/>
        <pt x="573" y="-121" on="1"/>
        <pt x="490" y="-180" on="1"/>
        <pt x="342" y="-12" on="1"/>
        <pt x="333" y="-12" on="1"/>
        <pt x="203" y="-12" on="0"/>
        <pt x="34" y="161" on="0"/>
        <pt x="34" y="313" on="1"/>
        <pt x="34" y="392" on="0"/>
        <pt x="79" y="519" on="0"/>
        <pt x="152" y="599" on="0"/>
        <pt x="200" y="626" on="1"/>
        <pt x="288" y="674" on="0"/>
      </contour>
      <contour>
        <pt x="216" y="70" on="0"/>
        <pt x="304" y="21" on="0"/>
        <pt x="419" y="21" on="0"/>
        <pt x="509" y="79" on="0"/>
        <pt x="534" y="126" on="1"/>
        <pt x="585" y="220" on="0"/>
        <pt x="585" y="328" on="1"/>
        <pt x="585" y="461" on="0"/>
        <pt x="532" y="542" on="1"/>
        <pt x="473" y="633" on="0"/>
        <pt x="337" y="633" on="1"/>
        <pt x="240" y="599" on="0"/>
        <pt x="140" y="433" on="0"/>
        <pt x="140" y="328" on="1"/>
        <pt x="140" y="200" on="0"/>
        <pt x="190" y="114" on="1"/>
      </contour>
    </TTGlyph>
    <TTGlyph name="R" xMin="90" yMin="-14" xMax="613" yMax="662">
      <contour>
        <pt x="188" y="316" on="1"/>
        <pt x="188" y="0" on="1"/>
        <pt x="90" y="0" on="1"/>
        <pt x="90" y="662" on="1"/>
        <pt x="306" y="662" on="1"/>
        <pt x="407" y="662" on="0"/>
        <pt x="536" y="572" on="0"/>
        <pt x="536" y="425" on="0"/>
        <pt x="433" y="340" on="0"/>
        <pt x="345" y="324" on="1"/>
        <pt x="613" y="0" on="1"/>
        <pt x="497" y="-14" on="1"/>
        <pt x="265" y="316" on="1"/>
      </contour>
      <contour>
        <pt x="188" y="346" on="1"/>
        <pt x="252" y="346" on="1"/>
        <pt x="432" y="346" on="0"/>
        <pt x="432" y="488" on="1"/>
        <pt x="432" y="512" on="0"/>
        <pt x="420" y="542" on="1"/>
        <pt x="397" y="605" on="0"/>
        <pt x="322" y="625" on="1"/>
        <pt x="254" y="625" on="0"/>
        <pt x="188" y="608" on="1"/>
      </contour>
    </TTGlyph>
    <TTGlyph name="S" xMin="69" yMin="-12" xMax="497" yMax="674">
      <contour>
        <pt x="162" y="547" on="1"/>
        <pt x="162" y="503" on="0"/>
        <pt x="231" y="428" on="0"/>
        <pt x="330" y="371" on="0"/>
        <pt x="428" y="312" on="0"/>
        <pt x="497" y="226" on="0"/>
        <pt x="497" y="174" on="1"/>
        <pt x="497" y="92" on="0"/>
        <pt x="376" y="-12" on="0"/>
        <pt x="170" y="-12" on="0"/>
        <pt x="69" y="27" on="1"/>
        <pt x="69" y="74" on="1"/>
        <pt x="171" y="23" on="0"/>
        <pt x="314" y="23" on="0"/>
        <pt x="394" y="93" on="0"/>
        <pt x="394" y="155" on="1"/>
        <pt x="394" y="197" on="0"/>
        <pt x="328" y="266" on="0"/>
        <pt x="234" y="317" on="0"/>
        <pt x="140" y="371" on="0"/>
        <pt x="74" y="454" on="0"/>
        <pt x="74" y="572" on="0"/>
        <pt x="179" y="674" on="0"/>
        <pt x="283" y="674" on="1"/>
        <pt x="351" y="674" on="0"/>
        <pt x="455" y="643" on="1"/>
        <pt x="445" y="575" on="1"/>
        <pt x="310" y="633" on="0"/>
        <pt x="214" y="633" on="1"/>
        <pt x="162" y="608" on="0"/>
      </contour>
    </TTGlyph>
    <TTGlyph name="Scaron" xMin="69" yMin="-12" xMax="497" yMax="885">
      <contour>
        <pt x="162" y="547" on="1"/>
        <pt x="162" y="503" on="0"/>
        <pt x="231" y="428" on="0"/>
        <pt x="330" y="371" on="0"/>
        <pt x="428" y="312" on="0"/>
        <pt x="497" y="226" on="0"/>
        <pt x="497" y="174" on="1"/>
        <pt x="497" y="92" on="0"/>
        <pt x="376" y="-12" on="0"/>
        <pt x="170" y="-12" on="0"/>
        <pt x="69" y="27" on="1"/>
        <pt x="69" y="74" on="1"/>
        <pt x="171" y="23" on="0"/>
        <pt x="314" y="23" on="0"/>
        <pt x="394" y="93" on="0"/>
        <pt x="394" y="155" on="1"/>
        <pt x="394" y="197" on="0"/>
        <pt x="328" y="266" on="0"/>
        <pt x="234" y="317" on="0"/>
        <pt x="140" y="371" on="0"/>
        <pt x="74" y="454" on="0"/>
        <pt x="74" y="572" on="0"/>
        <pt x="179" y="674" on="0"/>
        <pt x="283" y="674" on="1"/>
        <pt x="351" y="674" on="0"/>
        <pt x="455" y="643" on="1"/>
        <pt x="445" y="575" on="1"/>
        <pt x="310" y="633" on="0"/>
        <pt x="214" y="633" on="1"/>
        <pt x="162" y="608" on="0"/>
      </contour>
      <contour>
        <pt x="251" y="718" on="1"/>
        <pt x="125" y="885" on="1"/>
        <pt x="165" y="885" on="1"/>
        <pt x="275" y="792" on="1"/>
        <pt x="384" y="885" on="1"/>
        <pt x="424" y="885" on="1"/>
        <pt x="299" y="718" on="1"/>
      </contour>
    </TTGlyph>
    <TTGlyph name="T" xMin="10" yMin="0" xMax="525" yMax="662">
      <contour>
        <pt x="316" y="0" on="1"/>
        <pt x="219" y="0" on="1"/>
        <pt x="219" y="614" on="1"/>
        <pt x="185" y="622" on="0"/>
        <pt x="151" y="622" on="1"/>
        <pt x="16" y="591" on="1"/>
        <pt x="10" y="662" on="1"/>
        <pt x="525" y="662" on="1"/>
        <pt x="520" y="591" on="1"/>
        <pt x="384" y="622" on="1"/>
        <pt x="350" y="622" on="0"/>
        <pt x="316" y="614" on="1"/>
      </contour>
    </TTGlyph>
    <TTGlyph name="Thorn" xMin="90" yMin="0" xMax="535" yMax="662">
      <contour>
        <pt x="187" y="194" on="1"/>
        <pt x="276" y="194" on="1"/>
        <pt x="323" y="194" on="0"/>
        <pt x="390" y="230" on="0"/>
        <pt x="405" y="258" on="1"/>
        <pt x="432" y="308" on="0"/>
        <pt x="432" y="355" on="1"/>
        <pt x="432" y="378" on="0"/>
        <pt x="420" y="410" on="1"/>
        <pt x="396" y="476" on="0"/>
        <pt x="321" y="496" on="1"/>
        <pt x="249" y="496" on="0"/>
        <pt x="187" y="479" on="1"/>
      </contour>
      <contour>
        <pt x="187" y="532" on="1"/>
        <pt x="305" y="532" on="1"/>
        <pt x="406" y="532" on="0"/>
        <pt x="535" y="440" on="0"/>
        <pt x="535" y="360" on="1"/>
        <pt x="535" y="264" on="0"/>
        <pt x="394" y="165" on="0"/>
        <pt x="273" y="165" on="1"/>
        <pt x="187" y="165" on="1"/>
        <pt x="187" y="0" on="1"/>
        <pt x="90" y="0" on="1"/>
        <pt x="90" y="662" on="1"/>
        <pt x="187" y="662" on="1"/>
      </contour>
    </TTGlyph>
    <TTGlyph name="U" xMin="75" yMin="-12" xMax="582" yMax="662">
      <contour>
        <pt x="582" y="662" on="1"/>
        <pt x="582" y="256" on="1"/>
        <pt x="582" y="163" on="0"/>
        <pt x="562" y="116" on="1"/>
        <pt x="553" y="95" on="0"/>
        <pt x="514" y="42" on="0"/>
        <pt x="488" y="26" on="1"/>
        <pt x="422" y="-12" on="0"/>
        <pt x="323" y="-12" on="1"/>
        <pt x="75" y="-12" on="0"/>
        <pt x="75" y="243" on="1"/>
        <pt x="75" y="662" on="1"/>
        <pt x="177" y="662" on="1"/>
        <pt x="177" y="235" on="1"/>
        <pt x="177" y="206" on="0"/>
        <pt x="179" y="170" on="0"/>
        <pt x="198" y="104" on="0"/>
        <pt x="231" y="64" on="0"/>
        <pt x="302" y="32" on="0"/>
        <pt x="351" y="32" on="1"/>
        <pt x="538" y="32" on="0"/>
        <pt x="538" y="232" on="1"/>
        <pt x="538" y="662" on="1"/>
      </contour>
    </TTGlyph>
    <TTGlyph name="Uacute" xMin="75" yMin="-12" xMax="582" yMax="907">
      <contour>
        <pt x="582" y="662" on="1"/>
        <pt x="582" y="256" on="1"/>
        <pt x="582" y="163" on="0"/>
        <pt x="562" y="116" on="1"/>
        <pt x="553" y="95" on="0"/>
        <pt x="514" y="42" on="0"/>
        <pt x="488" y="26" on="1"/>
        <pt x="422" y="-12" on="0"/>
        <pt x="323" y="-12" on="1"/>
        <pt x="75" y="-12" on="0"/>
        <pt x="75" y="243" on="1"/>
        <pt x="75" y="662" on="1"/>
        <pt x="177" y="662" on="1"/>
        <pt x="177" y="235" on="1"/>
        <pt x="177" y="206" on="0"/>
        <pt x="179" y="170" on="0"/>
        <pt x="198" y="104" on="0"/>
        <pt x="231" y="64" on="0"/>
        <pt x="302" y="32" on="0"/>
        <pt x="351" y="32" on="1"/>
        <pt x="538" y="32" on="0"/>
        <pt x="538" y="232" on="1"/>
        <pt x="538" y="662" on="1"/>
      </contour>
      <contour>
        <pt x="372" y="719" on="1"/>
        <pt x="332" y="719" on="1"/>
        <pt x="504" y="907" on="1"/>
        <pt x="560" y="857" on="1"/>
      </contour>
    </TTGlyph>
    <TTGlyph name="Ucircumflex" xMin="75" yMin="-12" xMax="582" yMax="886">
      <contour>
        <pt x="582" y="662" on="1"/>
        <pt x="582" y="256" on="1"/>
        <pt x="582" y="163" on="0"/>
        <pt x="562" y="116" on="1"/>
        <pt x="553" y="95" on="0"/>
        <pt x="514" y="42" on="0"/>
        <pt x="488" y="26" on="1"/>
        <pt x="422" y="-12" on="0"/>
        <pt x="323" y="-12" on="1"/>
        <pt x="75" y="-12" on="0"/>
        <pt x="75" y="243" on="1"/>
        <pt x="75" y="662" on="1"/>
        <pt x="177" y="662" on="1"/>
        <pt x="177" y="235" on="1"/>
        <pt x="177" y="206" on="0"/>
        <pt x="179" y="170" on="0"/>
        <pt x="198" y="104" on="0"/>
        <pt x="231" y="64" on="0"/>
        <pt x="302" y="32" on="0"/>
        <pt x="351" y="32" on="1"/>
        <pt x="538" y="32" on="0"/>
        <pt x="538" y="232" on="1"/>
        <pt x="538" y="662" on="1"/>
      </contour>
      <contour>
        <pt x="378" y="886" on="1"/>
        <pt x="504" y="719" on="1"/>
        <pt x="464" y="719" on="1"/>
        <pt x="354" y="812" on="1"/>
        <pt x="245" y="719" on="1"/>
        <pt x="205" y="719" on="1"/>
        <pt x="330" y="886" on="1"/>
      </contour>
    </TTGlyph>
    <TTGlyph name="Udieresis" xMin="75" yMin="-12" xMax="582" yMax="811">
      <contour>
        <pt x="582" y="662" on="1"/>
        <pt x="582" y="256" on="1"/>
        <pt x="582" y="163" on="0"/>
        <pt x="562" y="116" on="1"/>
        <pt x="553" y="95" on="0"/>
        <pt x="514" y="42" on="0"/>
        <pt x="488" y="26" on="1"/>
        <pt x="422" y="-12" on="0"/>
        <pt x="323" y="-12" on="1"/>
        <pt x="75" y="-12" on="0"/>
        <pt x="75" y="243" on="1"/>
        <pt x="75" y="662" on="1"/>
        <pt x="177" y="662" on="1"/>
        <pt x="177" y="235" on="1"/>
        <pt x="177" y="206" on="0"/>
        <pt x="179" y="170" on="0"/>
        <pt x="198" y="104" on="0"/>
        <pt x="231" y="64" on="0"/>
        <pt x="302" y="32" on="0"/>
        <pt x="351" y="32" on="1"/>
        <pt x="538" y="32" on="0"/>
        <pt x="538" y="232" on="1"/>
        <pt x="538" y="662" on="1"/>
      </contour>
      <contour>
        <pt x="402" y="740" on="0"/>
        <pt x="402" y="782" on="0"/>
        <pt x="431" y="811" on="0"/>
        <pt x="473" y="811" on="0"/>
        <pt x="502" y="782" on="0"/>
        <pt x="502" y="740" on="0"/>
        <pt x="473" y="711" on="0"/>
        <pt x="431" y="711" on="0"/>
      </contour>
      <contour>
        <pt x="205" y="753" on="1"/>
        <pt x="205" y="761" on="1"/>
        <pt x="205" y="782" on="0"/>
        <pt x="234" y="811" on="0"/>
        <pt x="255" y="811" on="1"/>
        <pt x="259" y="811" on="1"/>
        <pt x="273" y="808" on="1"/>
        <pt x="289" y="798" on="1"/>
        <pt x="292" y="795" on="1"/>
        <pt x="298" y="786" on="1"/>
        <pt x="300" y="784" on="0"/>
        <pt x="300" y="782" on="1"/>
        <pt x="302" y="779" on="1"/>
        <pt x="305" y="765" on="1"/>
        <pt x="305" y="757" on="1"/>
        <pt x="305" y="756" on="0"/>
        <pt x="304" y="752" on="1"/>
        <pt x="303" y="738" on="0"/>
        <pt x="289" y="724" on="1"/>
        <pt x="274" y="711" on="0"/>
        <pt x="240" y="711" on="0"/>
        <pt x="228" y="719" on="0"/>
        <pt x="224" y="721" on="1"/>
        <pt x="208" y="734" on="0"/>
      </contour>
    </TTGlyph>
    <TTGlyph name="Ugrave" xMin="75" yMin="-12" xMax="582" yMax="907">
      <contour>
        <pt x="582" y="662" on="1"/>
        <pt x="582" y="256" on="1"/>
        <pt x="582" y="163" on="0"/>
        <pt x="562" y="116" on="1"/>
        <pt x="553" y="95" on="0"/>
        <pt x="514" y="42" on="0"/>
        <pt x="488" y="26" on="1"/>
        <pt x="422" y="-12" on="0"/>
        <pt x="323" y="-12" on="1"/>
        <pt x="75" y="-12" on="0"/>
        <pt x="75" y="243" on="1"/>
        <pt x="75" y="662" on="1"/>
        <pt x="177" y="662" on="1"/>
        <pt x="177" y="235" on="1"/>
        <pt x="177" y="206" on="0"/>
        <pt x="179" y="170" on="0"/>
        <pt x="198" y="104" on="0"/>
        <pt x="231" y="64" on="0"/>
        <pt x="302" y="32" on="0"/>
        <pt x="351" y="32" on="1"/>
        <pt x="538" y="32" on="0"/>
        <pt x="538" y="232" on="1"/>
        <pt x="538" y="662" on="1"/>
      </contour>
      <contour>
        <pt x="437" y="719" on="1"/>
        <pt x="397" y="719" on="1"/>
        <pt x="209" y="857" on="1"/>
        <pt x="265" y="907" on="1"/>
      </contour>
    </TTGlyph>
    <TTGlyph name="V" xMin="10" yMin="-16" xMax="587" yMax="662">
      <contour>
        <pt x="307" y="-16" on="1"/>
        <pt x="10" y="662" on="1"/>
        <pt x="119" y="662" on="1"/>
        <pt x="339" y="120" on="1"/>
        <pt x="537" y="662" on="1"/>
        <pt x="587" y="662" on="1"/>
        <pt x="323" y="-16" on="1"/>
      </contour>
    </TTGlyph>
    <TTGlyph name="W" xMin="10" yMin="-15" xMax="846" yMax="662">
      <contour>
        <pt x="796" y="662" on="1"/>
        <pt x="846" y="662" on="1"/>
        <pt x="598" y="-15" on="1"/>
        <pt x="582" y="-15" on="1"/>
        <pt x="429" y="395" on="1"/>
        <pt x="279" y="-15" on="1"/>
        <pt x="263" y="-15" on="1"/>
        <pt x="10" y="662" on="1"/>
        <pt x="119" y="662" on="1"/>
        <pt x="295" y="120" on="1"/>
        <pt x="407" y="454" on="1"/>
        <pt x="329" y="662" on="1"/>
        <pt x="438" y="662" on="1"/>
        <pt x="614" y="120" on="1"/>
      </contour>
    </TTGlyph>
    <TTGlyph name="X" xMin="30" yMin="0" xMax="616" yMax="662">
      <contour>
        <pt x="355" y="356" on="1"/>
        <pt x="616" y="0" on="1"/>
        <pt x="491" y="0" on="1"/>
        <pt x="303" y="292" on="1"/>
        <pt x="91" y="0" on="1"/>
        <pt x="30" y="0" on="1"/>
        <pt x="280" y="321" on="1"/>
        <pt x="42" y="662" on="1"/>
        <pt x="167" y="662" on="1"/>
        <pt x="333" y="387" on="1"/>
        <pt x="541" y="662" on="1"/>
        <pt x="602" y="662" on="1"/>
      </contour>
    </TTGlyph>
    <TTGlyph name="Y" xMin="20" yMin="0" xMax="537" yMax="662">
      <contour>
        <pt x="343" y="0" on="1"/>
        <pt x="246" y="0" on="1"/>
        <pt x="246" y="246" on="1"/>
        <pt x="20" y="662" on="1"/>
        <pt x="129" y="662" on="1"/>
        <pt x="314" y="282" on="1"/>
        <pt x="487" y="662" on="1"/>
        <pt x="537" y="662" on="1"/>
        <pt x="343" y="251" on="1"/>
      </contour>
    </TTGlyph>
    <TTGlyph name="Yacute" xMin="20" yMin="0" xMax="537" yMax="907">
      <contour>
        <pt x="343" y="0" on="1"/>
        <pt x="246" y="0" on="1"/>
        <pt x="246" y="246" on="1"/>
        <pt x="20" y="662" on="1"/>
        <pt x="129" y="662" on="1"/>
        <pt x="314" y="282" on="1"/>
        <pt x="487" y="662" on="1"/>
        <pt x="537" y="662" on="1"/>
        <pt x="343" y="251" on="1"/>
      </contour>
      <contour>
        <pt x="303" y="719" on="1"/>
        <pt x="263" y="719" on="1"/>
        <pt x="435" y="907" on="1"/>
        <pt x="491" y="857" on="1"/>
      </contour>
    </TTGlyph>
    <TTGlyph name="Ydieresis" xMin="20" yMin="0" xMax="537" yMax="811">
      <contour>
        <pt x="343" y="0" on="1"/>
        <pt x="246" y="0" on="1"/>
        <pt x="246" y="246" on="1"/>
        <pt x="20" y="662" on="1"/>
        <pt x="129" y="662" on="1"/>
        <pt x="314" y="282" on="1"/>
        <pt x="487" y="662" on="1"/>
        <pt x="537" y="662" on="1"/>
        <pt x="343" y="251" on="1"/>
      </contour>
      <contour>
        <pt x="364" y="740" on="0"/>
        <pt x="364" y="782" on="0"/>
        <pt x="393" y="811" on="0"/>
        <pt x="435" y="811" on="0"/>
        <pt x="464" y="782" on="0"/>
        <pt x="464" y="740" on="0"/>
        <pt x="435" y="711" on="0"/>
        <pt x="393" y="711" on="0"/>
      </contour>
      <contour>
        <pt x="167" y="757" on="1"/>
        <pt x="167" y="769" on="1"/>
        <pt x="170" y="783" on="0"/>
        <pt x="177" y="792" on="1"/>
        <pt x="186" y="800" on="1"/>
        <pt x="199" y="810" on="0"/>
        <pt x="211" y="811" on="0"/>
        <pt x="218" y="811" on="1"/>
        <pt x="230" y="811" on="0"/>
        <pt x="238" y="806" on="1"/>
        <pt x="248" y="804" on="0"/>
        <pt x="265" y="780" on="0"/>
        <pt x="266" y="768" on="0"/>
        <pt x="267" y="765" on="1"/>
        <pt x="267" y="757" on="1"/>
        <pt x="267" y="742" on="0"/>
        <pt x="256" y="730" on="1"/>
        <pt x="254" y="727" on="1"/>
        <pt x="248" y="721" on="1"/>
        <pt x="244" y="719" on="0"/>
        <pt x="242" y="717" on="1"/>
        <pt x="235" y="714" on="1"/>
        <pt x="225" y="711" on="1"/>
        <pt x="209" y="711" on="1"/>
        <pt x="185" y="716" on="0"/>
        <pt x="167" y="748" on="0"/>
      </contour>
    </TTGlyph>
    <TTGlyph name="Z" xMin="16" yMin="0" xMax="541" yMax="662">
      <contour>
        <pt x="16" y="0" on="1"/>
        <pt x="16" y="10" on="1"/>
        <pt x="398" y="609" on="1"/>
        <pt x="339" y="626" on="0"/>
        <pt x="289" y="626" on="1"/>
        <pt x="83" y="595" on="1"/>
        <pt x="73" y="662" on="1"/>
        <pt x="541" y="662" on="1"/>
        <pt x="541" y="652" on="1"/>
        <pt x="147" y="40" on="1"/>
        <pt x="506" y="67" on="1"/>
        <pt x="516" y="0" on="1"/>
      </contour>
    </TTGlyph>
    <TTGlyph name="Zcaron" xMin="16" yMin="0" xMax="541" yMax="885">
      <contour>
        <pt x="16" y="0" on="1"/>
        <pt x="16" y="10" on="1"/>
        <pt x="398" y="609" on="1"/>
        <pt x="339" y="626" on="0"/>
        <pt x="289" y="626" on="1"/>
        <pt x="83" y="595" on="1"/>
        <pt x="73" y="662" on="1"/>
        <pt x="541" y="662" on="1"/>
        <pt x="541" y="652" on="1"/>
        <pt x="147" y="40" on="1"/>
        <pt x="506" y="67" on="1"/>
        <pt x="516" y="0" on="1"/>
      </contour>
      <contour>
        <pt x="277" y="718" on="1"/>
        <pt x="151" y="885" on="1"/>
        <pt x="191" y="885" on="1"/>
        <pt x="301" y="792" on="1"/>
        <pt x="410" y="885" on="1"/>
        <pt x="450" y="885" on="1"/>
        <pt x="325" y="718" on="1"/>
      </contour>
    </TTGlyph>
    <TTGlyph name="a" xMin="33" yMin="-13" xMax="419" yMax="464">
      <contour>
        <pt x="285" y="106" on="1"/>
        <pt x="285" y="209" on="1"/>
        <pt x="213" y="204" on="0"/>
        <pt x="121" y="150" on="0"/>
        <pt x="121" y="88" on="0"/>
        <pt x="153" y="43" on="0"/>
        <pt x="178" y="34" on="1"/>
        <pt x="211" y="40" on="0"/>
        <pt x="285" y="94" on="0"/>
      </contour>
      <contour>
        <pt x="367" y="133" on="1"/>
        <pt x="367" y="62" on="0"/>
        <pt x="419" y="25" on="1"/>
        <pt x="367" y="-13" on="1"/>
        <pt x="286" y="60" on="1"/>
        <pt x="207" y="-12" on="0"/>
        <pt x="140" y="-12" on="1"/>
        <pt x="96" y="-12" on="0"/>
        <pt x="33" y="44" on="0"/>
        <pt x="33" y="129" on="0"/>
        <pt x="84" y="185" on="0"/>
        <pt x="126" y="200" on="1"/>
        <pt x="198" y="227" on="0"/>
        <pt x="285" y="234" on="1"/>
        <pt x="285" y="328" on="1"/>
        <pt x="285" y="411" on="0"/>
        <pt x="189" y="411" on="1"/>
        <pt x="134" y="411" on="0"/>
        <pt x="59" y="387" on="1"/>
        <pt x="50" y="412" on="1"/>
        <pt x="70" y="428" on="0"/>
        <pt x="169" y="464" on="0"/>
        <pt x="259" y="464" on="0"/>
        <pt x="320" y="440" on="0"/>
        <pt x="349" y="410" on="0"/>
        <pt x="365" y="358" on="0"/>
        <pt x="367" y="328" on="0"/>
        <pt x="367" y="303" on="1"/>
      </contour>
    </TTGlyph>
    <TTGlyph name="aacute" xMin="33" yMin="-13" xMax="419" yMax="695">
      <contour>
        <pt x="285" y="106" on="1"/>
        <pt x="285" y="209" on="1"/>
        <pt x="213" y="204" on="0"/>
        <pt x="121" y="150" on="0"/>
        <pt x="121" y="88" on="0"/>
        <pt x="153" y="43" on="0"/>
        <pt x="178" y="34" on="1"/>
        <pt x="211" y="40" on="0"/>
        <pt x="285" y="94" on="0"/>
      </contour>
      <contour>
        <pt x="367" y="133" on="1"/>
        <pt x="367" y="62" on="0"/>
        <pt x="419" y="25" on="1"/>
        <pt x="367" y="-13" on="1"/>
        <pt x="286" y="60" on="1"/>
        <pt x="207" y="-12" on="0"/>
        <pt x="140" y="-12" on="1"/>
        <pt x="96" y="-12" on="0"/>
        <pt x="33" y="44" on="0"/>
        <pt x="33" y="129" on="0"/>
        <pt x="84" y="185" on="0"/>
        <pt x="126" y="200" on="1"/>
        <pt x="198" y="227" on="0"/>
        <pt x="285" y="234" on="1"/>
        <pt x="285" y="328" on="1"/>
        <pt x="285" y="411" on="0"/>
        <pt x="189" y="411" on="1"/>
        <pt x="134" y="411" on="0"/>
        <pt x="59" y="387" on="1"/>
        <pt x="50" y="412" on="1"/>
        <pt x="70" y="428" on="0"/>
        <pt x="169" y="464" on="0"/>
        <pt x="259" y="464" on="0"/>
        <pt x="320" y="440" on="0"/>
        <pt x="349" y="410" on="0"/>
        <pt x="365" y="358" on="0"/>
        <pt x="367" y="328" on="0"/>
        <pt x="367" y="303" on="1"/>
      </contour>
      <contour>
        <pt x="189" y="507" on="1"/>
        <pt x="149" y="507" on="1"/>
        <pt x="321" y="695" on="1"/>
        <pt x="377" y="645" on="1"/>
      </contour>
    </TTGlyph>
    <TTGlyph name="acircumflex" xMin="33" yMin="-13" xMax="419" yMax="674">
      <contour>
        <pt x="378" y="507" on="1"/>
        <pt x="344" y="507" on="1"/>
        <pt x="222" y="610" on="1"/>
        <pt x="101" y="507" on="1"/>
        <pt x="67" y="507" on="1"/>
        <pt x="191" y="674" on="1"/>
        <pt x="253" y="674" on="1"/>
      </contour>
      <contour>
        <pt x="285" y="106" on="1"/>
        <pt x="285" y="209" on="1"/>
        <pt x="213" y="204" on="0"/>
        <pt x="121" y="150" on="0"/>
        <pt x="121" y="88" on="0"/>
        <pt x="153" y="43" on="0"/>
        <pt x="178" y="34" on="1"/>
        <pt x="211" y="40" on="0"/>
        <pt x="285" y="94" on="0"/>
      </contour>
      <contour>
        <pt x="367" y="133" on="1"/>
        <pt x="367" y="62" on="0"/>
        <pt x="419" y="25" on="1"/>
        <pt x="367" y="-13" on="1"/>
        <pt x="286" y="60" on="1"/>
        <pt x="207" y="-12" on="0"/>
        <pt x="140" y="-12" on="1"/>
        <pt x="96" y="-12" on="0"/>
        <pt x="33" y="44" on="0"/>
        <pt x="33" y="129" on="0"/>
        <pt x="84" y="185" on="0"/>
        <pt x="126" y="200" on="1"/>
        <pt x="198" y="227" on="0"/>
        <pt x="285" y="234" on="1"/>
        <pt x="285" y="328" on="1"/>
        <pt x="285" y="411" on="0"/>
        <pt x="189" y="411" on="1"/>
        <pt x="134" y="411" on="0"/>
        <pt x="59" y="387" on="1"/>
        <pt x="50" y="412" on="1"/>
        <pt x="70" y="428" on="0"/>
        <pt x="169" y="464" on="0"/>
        <pt x="259" y="464" on="0"/>
        <pt x="320" y="440" on="0"/>
        <pt x="349" y="410" on="0"/>
        <pt x="365" y="358" on="0"/>
        <pt x="367" y="328" on="0"/>
        <pt x="367" y="303" on="1"/>
      </contour>
    </TTGlyph>
    <TTGlyph name="acute" xMin="93" yMin="507" xMax="321" yMax="695">
      <contour>
        <pt x="133" y="507" on="1"/>
        <pt x="93" y="507" on="1"/>
        <pt x="265" y="695" on="1"/>
        <pt x="321" y="645" on="1"/>
      </contour>
    </TTGlyph>
    <TTGlyph name="adieresis" xMin="33" yMin="-13" xMax="419" yMax="641">
      <contour>
        <pt x="367" y="133" on="1"/>
        <pt x="367" y="62" on="0"/>
        <pt x="419" y="25" on="1"/>
        <pt x="367" y="-13" on="1"/>
        <pt x="286" y="60" on="1"/>
        <pt x="207" y="-12" on="0"/>
        <pt x="140" y="-12" on="1"/>
        <pt x="96" y="-12" on="0"/>
        <pt x="33" y="44" on="0"/>
        <pt x="33" y="129" on="0"/>
        <pt x="84" y="185" on="0"/>
        <pt x="126" y="200" on="1"/>
        <pt x="198" y="227" on="0"/>
        <pt x="285" y="234" on="1"/>
        <pt x="285" y="328" on="1"/>
        <pt x="285" y="411" on="0"/>
        <pt x="189" y="411" on="1"/>
        <pt x="134" y="411" on="0"/>
        <pt x="59" y="387" on="1"/>
        <pt x="50" y="412" on="1"/>
        <pt x="70" y="428" on="0"/>
        <pt x="169" y="464" on="0"/>
        <pt x="259" y="464" on="0"/>
        <pt x="320" y="440" on="0"/>
        <pt x="349" y="410" on="0"/>
        <pt x="365" y="358" on="0"/>
        <pt x="367" y="328" on="0"/>
        <pt x="367" y="303" on="1"/>
      </contour>
      <contour>
        <pt x="285" y="106" on="1"/>
        <pt x="285" y="209" on="1"/>
        <pt x="213" y="204" on="0"/>
        <pt x="121" y="150" on="0"/>
        <pt x="121" y="88" on="0"/>
        <pt x="153" y="43" on="0"/>
        <pt x="178" y="34" on="1"/>
        <pt x="211" y="40" on="0"/>
        <pt x="285" y="94" on="0"/>
      </contour>
      <contour>
        <pt x="128" y="541" on="1"/>
        <pt x="116" y="541" on="1"/>
        <pt x="110" y="541" on="0"/>
        <pt x="98" y="545" on="1"/>
        <pt x="72" y="558" on="0"/>
        <pt x="70" y="587" on="1"/>
        <pt x="70" y="591" on="1"/>
        <pt x="70" y="623" on="0"/>
        <pt x="98" y="636" on="1"/>
        <pt x="108" y="641" on="0"/>
        <pt x="118" y="641" on="1"/>
        <pt x="138" y="641" on="0"/>
        <pt x="145" y="634" on="1"/>
        <pt x="154" y="628" on="1"/>
        <pt x="165" y="617" on="0"/>
        <pt x="165" y="612" on="1"/>
        <pt x="168" y="607" on="0"/>
        <pt x="170" y="595" on="1"/>
        <pt x="170" y="591" on="1"/>
        <pt x="170" y="564" on="0"/>
        <pt x="145" y="547" on="1"/>
      </contour>
      <contour>
        <pt x="267" y="570" on="0"/>
        <pt x="267" y="612" on="0"/>
        <pt x="296" y="641" on="0"/>
        <pt x="338" y="641" on="0"/>
        <pt x="367" y="612" on="0"/>
        <pt x="367" y="570" on="0"/>
        <pt x="338" y="541" on="0"/>
        <pt x="296" y="541" on="0"/>
      </contour>
    </TTGlyph>
    <TTGlyph name="ae" xMin="33" yMin="-12" xMax="683" yMax="464">
      <contour>
        <pt x="216" y="464" on="1"/>
        <pt x="321" y="464" on="0"/>
        <pt x="352" y="398" on="1"/>
        <pt x="416" y="464" on="0"/>
        <pt x="512" y="464" on="1"/>
        <pt x="585" y="464" on="0"/>
        <pt x="683" y="348" on="0"/>
        <pt x="683" y="245" on="1"/>
        <pt x="367" y="245" on="1"/>
        <pt x="367" y="198" on="1"/>
        <pt x="378" y="115" on="0"/>
        <pt x="470" y="42" on="0"/>
        <pt x="600" y="42" on="0"/>
        <pt x="659" y="69" on="1"/>
        <pt x="659" y="34" on="1"/>
        <pt x="578" y="-12" on="0"/>
        <pt x="502" y="-12" on="1"/>
        <pt x="375" y="-12" on="0"/>
        <pt x="317" y="82" on="1"/>
        <pt x="276" y="44" on="0"/>
        <pt x="177" y="-12" on="0"/>
        <pt x="96" y="-12" on="0"/>
        <pt x="33" y="44" on="0"/>
        <pt x="33" y="129" on="0"/>
        <pt x="84" y="185" on="0"/>
        <pt x="126" y="200" on="1"/>
        <pt x="198" y="227" on="0"/>
        <pt x="285" y="234" on="1"/>
        <pt x="285" y="326" on="1"/>
        <pt x="285" y="411" on="0"/>
        <pt x="189" y="411" on="1"/>
        <pt x="134" y="411" on="0"/>
        <pt x="59" y="387" on="1"/>
        <pt x="50" y="412" on="1"/>
        <pt x="70" y="428" on="0"/>
        <pt x="169" y="464" on="0"/>
      </contour>
      <contour>
        <pt x="461" y="417" on="1"/>
        <pt x="426" y="400" on="0"/>
        <pt x="376" y="324" on="0"/>
        <pt x="368" y="275" on="1"/>
        <pt x="602" y="275" on="1"/>
        <pt x="599" y="317" on="0"/>
        <pt x="566" y="378" on="0"/>
        <pt x="543" y="392" on="1"/>
        <pt x="500" y="417" on="0"/>
      </contour>
      <contour>
        <pt x="213" y="204" on="0"/>
        <pt x="121" y="150" on="0"/>
        <pt x="121" y="88" on="0"/>
        <pt x="153" y="43" on="0"/>
        <pt x="178" y="34" on="1"/>
        <pt x="208" y="40" on="0"/>
        <pt x="290" y="98" on="0"/>
        <pt x="301" y="117" on="1"/>
        <pt x="285" y="160" on="0"/>
        <pt x="285" y="209" on="1"/>
      </contour>
    </TTGlyph>
    <TTGlyph name="agrave" xMin="33" yMin="-13" xMax="419" yMax="695">
      <contour>
        <pt x="285" y="106" on="1"/>
        <pt x="285" y="209" on="1"/>
        <pt x="213" y="204" on="0"/>
        <pt x="121" y="150" on="0"/>
        <pt x="121" y="88" on="0"/>
        <pt x="153" y="43" on="0"/>
        <pt x="178" y="34" on="1"/>
        <pt x="211" y="40" on="0"/>
        <pt x="285" y="94" on="0"/>
      </contour>
      <contour>
        <pt x="367" y="133" on="1"/>
        <pt x="367" y="62" on="0"/>
        <pt x="419" y="25" on="1"/>
        <pt x="367" y="-13" on="1"/>
        <pt x="286" y="60" on="1"/>
        <pt x="207" y="-12" on="0"/>
        <pt x="140" y="-12" on="1"/>
        <pt x="96" y="-12" on="0"/>
        <pt x="33" y="44" on="0"/>
        <pt x="33" y="129" on="0"/>
        <pt x="84" y="185" on="0"/>
        <pt x="126" y="200" on="1"/>
        <pt x="198" y="227" on="0"/>
        <pt x="285" y="234" on="1"/>
        <pt x="285" y="328" on="1"/>
        <pt x="285" y="411" on="0"/>
        <pt x="189" y="411" on="1"/>
        <pt x="134" y="411" on="0"/>
        <pt x="59" y="387" on="1"/>
        <pt x="50" y="412" on="1"/>
        <pt x="70" y="428" on="0"/>
        <pt x="169" y="464" on="0"/>
        <pt x="259" y="464" on="0"/>
        <pt x="320" y="440" on="0"/>
        <pt x="349" y="410" on="0"/>
        <pt x="365" y="358" on="0"/>
        <pt x="367" y="328" on="0"/>
        <pt x="367" y="303" on="1"/>
      </contour>
      <contour>
        <pt x="298" y="507" on="1"/>
        <pt x="258" y="507" on="1"/>
        <pt x="70" y="645" on="1"/>
        <pt x="126" y="695" on="1"/>
      </contour>
    </TTGlyph>
    <TTGlyph name="ampersand" xMin="42" yMin="-13" xMax="731" yMax="677">
      <contour>
        <pt x="250" y="-13" on="1"/>
        <pt x="180" y="-13" on="0"/>
        <pt x="116" y="24" on="1"/>
        <pt x="83" y="43" on="0"/>
        <pt x="42" y="118" on="0"/>
        <pt x="42" y="168" on="1"/>
        <pt x="42" y="234" on="0"/>
        <pt x="143" y="333" on="0"/>
        <pt x="246" y="350" on="1"/>
        <pt x="208" y="435" on="0"/>
        <pt x="208" y="506" on="1"/>
        <pt x="208" y="549" on="0"/>
        <pt x="234" y="604" on="1"/>
        <pt x="249" y="635" on="0"/>
        <pt x="321" y="677" on="0"/>
        <pt x="397" y="677" on="0"/>
        <pt x="483" y="661" on="0"/>
        <pt x="505" y="651" on="1"/>
        <pt x="495" y="588" on="1"/>
        <pt x="431" y="636" on="0"/>
        <pt x="337" y="636" on="1"/>
        <pt x="289" y="605" on="0"/>
        <pt x="289" y="445" on="0"/>
        <pt x="387" y="239" on="0"/>
        <pt x="470" y="156" on="1"/>
        <pt x="505" y="213" on="0"/>
        <pt x="542" y="330" on="1"/>
        <pt x="516" y="330" on="0"/>
        <pt x="505" y="331" on="1"/>
        <pt x="505" y="362" on="1"/>
        <pt x="606" y="365" on="0"/>
        <pt x="675" y="384" on="1"/>
        <pt x="658" y="334" on="1"/>
        <pt x="640" y="331" on="0"/>
        <pt x="589" y="329" on="1"/>
        <pt x="549" y="207" on="0"/>
        <pt x="497" y="130" on="1"/>
        <pt x="611" y="31" on="0"/>
        <pt x="731" y="31" on="1"/>
        <pt x="688" y="0" on="1"/>
        <pt x="570" y="0" on="0"/>
        <pt x="458" y="81" on="1"/>
        <pt x="371" y="-13" on="0"/>
      </contour>
      <contour>
        <pt x="279" y="34" on="1"/>
        <pt x="366" y="34" on="0"/>
        <pt x="431" y="102" on="1"/>
        <pt x="324" y="190" on="0"/>
        <pt x="260" y="318" on="1"/>
        <pt x="192" y="299" on="0"/>
        <pt x="129" y="216" on="0"/>
        <pt x="129" y="168" on="1"/>
        <pt x="129" y="99" on="0"/>
        <pt x="214" y="34" on="0"/>
      </contour>
    </TTGlyph>
    <TTGlyph name="apple" xMin="100" yMin="-114" xMax="823" yMax="608">
      <contour>
        <pt x="589" y="-89" on="1"/>
        <pt x="566" y="-88" on="1"/>
        <pt x="552" y="-88" on="0"/>
        <pt x="517" y="-112" on="0"/>
        <pt x="508" y="-112" on="1"/>
        <pt x="462" y="-102" on="1"/>
        <pt x="454" y="-102" on="0"/>
        <pt x="423" y="-114" on="0"/>
        <pt x="406" y="-114" on="0"/>
        <pt x="374" y="-89" on="0"/>
        <pt x="361" y="-89" on="1"/>
        <pt x="337" y="-91" on="1"/>
        <pt x="322" y="-91" on="0"/>
        <pt x="304" y="-74" on="1"/>
        <pt x="286" y="-55" on="1"/>
        <pt x="274" y="-49" on="0"/>
        <pt x="248" y="-47" on="0"/>
        <pt x="230" y="-36" on="0"/>
        <pt x="216" y="-1" on="0"/>
        <pt x="205" y="8" on="0"/>
        <pt x="177" y="19" on="0"/>
        <pt x="171" y="28" on="1"/>
        <pt x="166" y="37" on="0"/>
        <pt x="162" y="66" on="0"/>
        <pt x="154" y="79" on="0"/>
        <pt x="144" y="86" on="1"/>
        <pt x="122" y="104" on="0"/>
        <pt x="122" y="124" on="1"/>
        <pt x="125" y="149" on="1"/>
        <pt x="125" y="158" on="0"/>
        <pt x="100" y="193" on="0"/>
        <pt x="100" y="211" on="0"/>
        <pt x="112" y="240" on="0"/>
        <pt x="112" y="257" on="0"/>
        <pt x="100" y="283" on="0"/>
        <pt x="100" y="301" on="0"/>
        <pt x="125" y="342" on="0"/>
        <pt x="125" y="351" on="1"/>
        <pt x="124" y="376" on="1"/>
        <pt x="124" y="391" on="0"/>
        <pt x="157" y="420" on="0"/>
        <pt x="162" y="430" on="0"/>
        <pt x="166" y="462" on="0"/>
        <pt x="174" y="474" on="0"/>
        <pt x="205" y="486" on="0"/>
        <pt x="215" y="496" on="0"/>
        <pt x="229" y="527" on="0"/>
        <pt x="242" y="538" on="0"/>
        <pt x="280" y="546" on="0"/>
        <pt x="291" y="552" on="0"/>
        <pt x="321" y="586" on="0"/>
        <pt x="335" y="587" on="1"/>
        <pt x="361" y="585" on="1"/>
        <pt x="374" y="585" on="0"/>
        <pt x="405" y="608" on="0"/>
        <pt x="416" y="608" on="1"/>
        <pt x="460" y="596" on="1"/>
        <pt x="505" y="608" on="1"/>
        <pt x="518" y="608" on="0"/>
        <pt x="550" y="583" on="0"/>
        <pt x="562" y="583" on="1"/>
        <pt x="590" y="586" on="1"/>
        <pt x="606" y="586" on="0"/>
        <pt x="632" y="553" on="0"/>
        <pt x="645" y="546" on="0"/>
        <pt x="675" y="540" on="0"/>
        <pt x="690" y="530" on="0"/>
        <pt x="700" y="502" on="0"/>
        <pt x="711" y="492" on="0"/>
        <pt x="751" y="471" on="0"/>
        <pt x="760" y="455" on="0"/>
        <pt x="761" y="423" on="0"/>
        <pt x="766" y="414" on="0"/>
        <pt x="800" y="385" on="0"/>
        <pt x="800" y="369" on="1"/>
        <pt x="799" y="344" on="1"/>
        <pt x="799" y="331" on="0"/>
        <pt x="823" y="294" on="0"/>
        <pt x="823" y="276" on="0"/>
        <pt x="812" y="250" on="0"/>
        <pt x="812" y="236" on="0"/>
        <pt x="823" y="207" on="0"/>
        <pt x="822" y="191" on="0"/>
        <pt x="798" y="166" on="0"/>
        <pt x="798" y="152" on="1"/>
        <pt x="800" y="120" on="1"/>
        <pt x="800" y="104" on="0"/>
        <pt x="768" y="78" on="0"/>
        <pt x="763" y="68" on="0"/>
        <pt x="754" y="30" on="0"/>
        <pt x="743" y="17" on="0"/>
        <pt x="718" y="6" on="0"/>
        <pt x="708" y="-4" on="0"/>
        <pt x="690" y="-37" on="0"/>
        <pt x="676" y="-47" on="0"/>
        <pt x="641" y="-56" on="0"/>
        <pt x="631" y="-62" on="0"/>
        <pt x="604" y="-89" on="0"/>
      </contour>
      <contour>
        <pt x="462" y="-6" on="1"/>
        <pt x="495" y="-13" on="1"/>
        <pt x="501" y="-13" on="0"/>
        <pt x="512" y="-6" on="1"/>
        <pt x="527" y="4" on="0"/>
        <pt x="539" y="4" on="1"/>
        <pt x="554" y="3" on="1"/>
        <pt x="566" y="3" on="0"/>
        <pt x="584" y="23" on="0"/>
        <pt x="591" y="27" on="0"/>
        <pt x="617" y="34" on="0"/>
        <pt x="628" y="42" on="0"/>
        <pt x="641" y="65" on="0"/>
        <pt x="648" y="72" on="0"/>
        <pt x="666" y="80" on="0"/>
        <pt x="674" y="89" on="0"/>
        <pt x="680" y="117" on="0"/>
        <pt x="685" y="125" on="0"/>
        <pt x="707" y="143" on="0"/>
        <pt x="707" y="157" on="1"/>
        <pt x="706" y="177" on="1"/>
        <pt x="706" y="188" on="0"/>
        <pt x="723" y="207" on="0"/>
        <pt x="724" y="213" on="1"/>
        <pt x="716" y="245" on="1"/>
        <pt x="724" y="273" on="1"/>
        <pt x="724" y="281" on="0"/>
        <pt x="706" y="309" on="0"/>
        <pt x="706" y="318" on="1"/>
        <pt x="707" y="335" on="1"/>
        <pt x="707" y="347" on="0"/>
        <pt x="683" y="367" on="0"/>
        <pt x="679" y="375" on="0"/>
        <pt x="678" y="398" on="0"/>
        <pt x="672" y="409" on="0"/>
        <pt x="643" y="424" on="0"/>
        <pt x="635" y="432" on="0"/>
        <pt x="627" y="452" on="0"/>
        <pt x="617" y="460" on="0"/>
        <pt x="595" y="464" on="0"/>
        <pt x="585" y="469" on="0"/>
        <pt x="567" y="493" on="0"/>
        <pt x="555" y="493" on="1"/>
        <pt x="535" y="491" on="1"/>
        <pt x="526" y="491" on="0"/>
        <pt x="504" y="509" on="0"/>
        <pt x="494" y="509" on="1"/>
        <pt x="461" y="500" on="1"/>
        <pt x="429" y="509" on="1"/>
        <pt x="421" y="509" on="0"/>
        <pt x="397" y="492" on="0"/>
        <pt x="387" y="492" on="1"/>
        <pt x="370" y="493" on="1"/>
        <pt x="359" y="493" on="0"/>
        <pt x="338" y="468" on="0"/>
        <pt x="329" y="463" on="0"/>
        <pt x="303" y="458" on="0"/>
        <pt x="293" y="450" on="0"/>
        <pt x="283" y="428" on="0"/>
        <pt x="275" y="420" on="0"/>
        <pt x="254" y="412" on="0"/>
        <pt x="250" y="407" on="1"/>
        <pt x="248" y="403" on="0"/>
        <pt x="244" y="380" on="0"/>
        <pt x="240" y="372" on="0"/>
        <pt x="216" y="351" on="0"/>
        <pt x="216" y="340" on="1"/>
        <pt x="217" y="324" on="1"/>
        <pt x="217" y="316" on="0"/>
        <pt x="200" y="286" on="0"/>
        <pt x="200" y="278" on="1"/>
        <pt x="208" y="248" on="1"/>
        <pt x="200" y="215" on="1"/>
        <pt x="200" y="207" on="0"/>
        <pt x="217" y="182" on="0"/>
        <pt x="217" y="174" on="1"/>
        <pt x="215" y="158" on="1"/>
        <pt x="215" y="147" on="0"/>
        <pt x="240" y="124" on="0"/>
        <pt x="244" y="116" on="0"/>
        <pt x="247" y="95" on="0"/>
        <pt x="255" y="82" on="0"/>
        <pt x="275" y="74" on="0"/>
        <pt x="283" y="67" on="0"/>
        <pt x="294" y="41" on="0"/>
        <pt x="306" y="33" on="0"/>
        <pt x="325" y="33" on="0"/>
        <pt x="337" y="27" on="0"/>
        <pt x="360" y="2" on="0"/>
        <pt x="371" y="2" on="1"/>
        <pt x="386" y="3" on="1"/>
        <pt x="396" y="3" on="0"/>
        <pt x="420" y="-14" on="0"/>
        <pt x="426" y="-15" on="1"/>
      </contour>
      <contour>
        <pt x="392" y="417" on="0"/>
        <pt x="532" y="417" on="0"/>
        <pt x="632" y="318" on="0"/>
        <pt x="632" y="176" on="0"/>
        <pt x="532" y="77" on="0"/>
        <pt x="392" y="77" on="0"/>
        <pt x="292" y="176" on="0"/>
        <pt x="292" y="318" on="0"/>
      </contour>
      <contour>
        <pt x="505" y="292" on="1"/>
        <pt x="557" y="292" on="1"/>
        <pt x="557" y="360" on="1"/>
        <pt x="366" y="360" on="1"/>
        <pt x="366" y="292" on="1"/>
        <pt x="420" y="292" on="1"/>
        <pt x="420" y="117" on="1"/>
        <pt x="505" y="117" on="1"/>
      </contour>
    </TTGlyph>
    <TTGlyph name="approxequal" xMin="59" yMin="107" xMax="505" yMax="395">
      <contour>
        <pt x="505" y="312" on="1"/>
        <pt x="456" y="336" on="0"/>
        <pt x="362" y="336" on="0"/>
        <pt x="206" y="284" on="0"/>
        <pt x="102" y="284" on="0"/>
        <pt x="59" y="312" on="1"/>
        <pt x="59" y="371" on="1"/>
        <pt x="102" y="344" on="0"/>
        <pt x="197" y="344" on="0"/>
        <pt x="353" y="395" on="0"/>
        <pt x="452" y="395" on="0"/>
        <pt x="505" y="371" on="1"/>
      </contour>
      <contour>
        <pt x="505" y="135" on="1"/>
        <pt x="457" y="162" on="0"/>
        <pt x="361" y="162" on="0"/>
        <pt x="207" y="107" on="0"/>
        <pt x="102" y="107" on="0"/>
        <pt x="59" y="135" on="1"/>
        <pt x="59" y="194" on="1"/>
        <pt x="103" y="166" on="0"/>
        <pt x="198" y="166" on="0"/>
        <pt x="351" y="221" on="0"/>
        <pt x="454" y="221" on="0"/>
        <pt x="505" y="194" on="1"/>
      </contour>
    </TTGlyph>
    <TTGlyph name="aring" xMin="33" yMin="-13" xMax="419" yMax="711">
      <contour>
        <pt x="123" y="570" on="0"/>
        <pt x="123" y="652" on="0"/>
        <pt x="180" y="711" on="0"/>
        <pt x="263" y="711" on="0"/>
        <pt x="322" y="652" on="0"/>
        <pt x="322" y="570" on="0"/>
        <pt x="263" y="512" on="0"/>
        <pt x="180" y="512" on="0"/>
      </contour>
      <contour>
        <pt x="288" y="638" on="0"/>
        <pt x="250" y="677" on="0"/>
        <pt x="191" y="677" on="0"/>
        <pt x="157" y="634" on="0"/>
        <pt x="157" y="589" on="0"/>
        <pt x="190" y="546" on="0"/>
        <pt x="249" y="546" on="0"/>
        <pt x="288" y="584" on="0"/>
      </contour>
      <contour>
        <pt x="285" y="106" on="1"/>
        <pt x="285" y="209" on="1"/>
        <pt x="213" y="204" on="0"/>
        <pt x="121" y="150" on="0"/>
        <pt x="121" y="88" on="0"/>
        <pt x="153" y="43" on="0"/>
        <pt x="178" y="34" on="1"/>
        <pt x="211" y="40" on="0"/>
        <pt x="285" y="94" on="0"/>
      </contour>
      <contour>
        <pt x="367" y="133" on="1"/>
        <pt x="367" y="62" on="0"/>
        <pt x="419" y="25" on="1"/>
        <pt x="367" y="-13" on="1"/>
        <pt x="286" y="60" on="1"/>
        <pt x="207" y="-12" on="0"/>
        <pt x="140" y="-12" on="1"/>
        <pt x="96" y="-12" on="0"/>
        <pt x="33" y="44" on="0"/>
        <pt x="33" y="129" on="0"/>
        <pt x="84" y="185" on="0"/>
        <pt x="126" y="200" on="1"/>
        <pt x="198" y="227" on="0"/>
        <pt x="285" y="234" on="1"/>
        <pt x="285" y="328" on="1"/>
        <pt x="285" y="411" on="0"/>
        <pt x="189" y="411" on="1"/>
        <pt x="134" y="411" on="0"/>
        <pt x="59" y="387" on="1"/>
        <pt x="50" y="412" on="1"/>
        <pt x="70" y="428" on="0"/>
        <pt x="169" y="464" on="0"/>
        <pt x="259" y="464" on="0"/>
        <pt x="320" y="440" on="0"/>
        <pt x="349" y="410" on="0"/>
        <pt x="365" y="358" on="0"/>
        <pt x="367" y="328" on="0"/>
        <pt x="367" y="303" on="1"/>
      </contour>
    </TTGlyph>
    <TTGlyph name="asciicircum" xMin="24" yMin="297" xMax="446" yMax="662">
      <contour>
        <pt x="92" y="297" on="1"/>
        <pt x="24" y="297" on="1"/>
        <pt x="205" y="662" on="1"/>
        <pt x="265" y="662" on="1"/>
        <pt x="446" y="297" on="1"/>
        <pt x="378" y="297" on="1"/>
        <pt x="235" y="586" on="1"/>
      </contour>
    </TTGlyph>
    <TTGlyph name="asciitilde" xMin="40" yMin="183" xMax="502" yMax="323">
      <contour>
        <pt x="456" y="216" on="0"/>
        <pt x="406" y="187" on="0"/>
        <pt x="336" y="187" on="0"/>
        <pt x="213" y="255" on="0"/>
        <pt x="109" y="255" on="0"/>
        <pt x="76" y="183" on="1"/>
        <pt x="40" y="233" on="1"/>
        <pt x="85" y="319" on="0"/>
        <pt x="165" y="319" on="1"/>
        <pt x="205" y="319" on="0"/>
        <pt x="298" y="278" on="1"/>
        <pt x="357" y="251" on="0"/>
        <pt x="397" y="251" on="0"/>
        <pt x="432" y="275" on="0"/>
        <pt x="451" y="300" on="0"/>
        <pt x="466" y="323" on="1"/>
        <pt x="502" y="273" on="1"/>
        <pt x="482" y="246" on="0"/>
      </contour>
    </TTGlyph>
    <TTGlyph name="asterisk" xMin="80" yMin="292" xMax="440" yMax="662">
      <contour>
        <pt x="300" y="292" on="1"/>
        <pt x="220" y="292" on="1"/>
        <pt x="220" y="352" on="1"/>
        <pt x="242" y="445" on="1"/>
        <pt x="172" y="380" on="1"/>
        <pt x="120" y="350" on="1"/>
        <pt x="80" y="419" on="1"/>
        <pt x="132" y="449" on="1"/>
        <pt x="223" y="477" on="1"/>
        <pt x="132" y="505" on="1"/>
        <pt x="80" y="535" on="1"/>
        <pt x="120" y="604" on="1"/>
        <pt x="172" y="574" on="1"/>
        <pt x="241" y="509" on="1"/>
        <pt x="220" y="602" on="1"/>
        <pt x="220" y="662" on="1"/>
        <pt x="300" y="662" on="1"/>
        <pt x="300" y="602" on="1"/>
        <pt x="278" y="509" on="1"/>
        <pt x="348" y="574" on="1"/>
        <pt x="400" y="604" on="1"/>
        <pt x="440" y="535" on="1"/>
        <pt x="388" y="505" on="1"/>
        <pt x="297" y="477" on="1"/>
        <pt x="388" y="449" on="1"/>
        <pt x="440" y="419" on="1"/>
        <pt x="400" y="350" on="1"/>
        <pt x="348" y="380" on="1"/>
        <pt x="278" y="445" on="1"/>
        <pt x="300" y="352" on="1"/>
      </contour>
    </TTGlyph>
    <TTGlyph name="at" xMin="79" yMin="-137" xMax="872" yMax="659">
      <contour>
        <pt x="738" y="58" on="0"/>
        <pt x="684" y="40" on="0"/>
        <pt x="624" y="40" on="0"/>
        <pt x="572" y="93" on="0"/>
        <pt x="569" y="132" on="1"/>
        <pt x="565" y="132" on="1"/>
        <pt x="545" y="91" on="0"/>
        <pt x="480" y="45" on="0"/>
        <pt x="446" y="45" on="1"/>
        <pt x="385" y="45" on="0"/>
        <pt x="319" y="148" on="0"/>
        <pt x="319" y="311" on="0"/>
        <pt x="416" y="462" on="0"/>
        <pt x="502" y="462" on="1"/>
        <pt x="553" y="462" on="0"/>
        <pt x="609" y="421" on="1"/>
        <pt x="644" y="454" on="1"/>
        <pt x="676" y="454" on="1"/>
        <pt x="630" y="170" on="1"/>
        <pt x="628" y="154" on="0"/>
        <pt x="628" y="146" on="1"/>
        <pt x="628" y="81" on="0"/>
        <pt x="685" y="81" on="1"/>
        <pt x="733" y="81" on="0"/>
        <pt x="833" y="205" on="0"/>
        <pt x="833" y="443" on="0"/>
        <pt x="632" y="627" on="0"/>
        <pt x="363" y="627" on="0"/>
        <pt x="169" y="414" on="0"/>
        <pt x="169" y="110" on="0"/>
        <pt x="363" y="-103" on="0"/>
        <pt x="504" y="-103" on="1"/>
        <pt x="602" y="-103" on="0"/>
        <pt x="687" y="-47" on="1"/>
        <pt x="714" y="-84" on="1"/>
        <pt x="622" y="-137" on="0"/>
        <pt x="495" y="-137" on="1"/>
        <pt x="323" y="-137" on="0"/>
        <pt x="79" y="96" on="0"/>
        <pt x="79" y="426" on="0"/>
        <pt x="323" y="659" on="0"/>
        <pt x="652" y="659" on="0"/>
        <pt x="872" y="453" on="0"/>
        <pt x="872" y="317" on="1"/>
        <pt x="872" y="259" on="0"/>
        <pt x="842" y="162" on="0"/>
        <pt x="796" y="101" on="0"/>
      </contour>
      <contour>
        <pt x="505" y="412" on="1"/>
        <pt x="462" y="412" on="0"/>
        <pt x="397" y="311" on="0"/>
        <pt x="397" y="232" on="1"/>
        <pt x="397" y="115" on="0"/>
        <pt x="461" y="97" on="1"/>
        <pt x="488" y="99" on="0"/>
        <pt x="559" y="155" on="0"/>
        <pt x="562" y="171" on="1"/>
        <pt x="597" y="383" on="1"/>
        <pt x="561" y="412" on="0"/>
      </contour>
    </TTGlyph>
    <TTGlyph name="atilde" xMin="33" yMin="-13" xMax="419" yMax="636">
      <contour>
        <pt x="285" y="106" on="1"/>
        <pt x="285" y="209" on="1"/>
        <pt x="213" y="204" on="0"/>
        <pt x="121" y="150" on="0"/>
        <pt x="121" y="88" on="0"/>
        <pt x="153" y="43" on="0"/>
        <pt x="178" y="34" on="1"/>
        <pt x="211" y="40" on="0"/>
        <pt x="285" y="94" on="0"/>
      </contour>
      <contour>
        <pt x="367" y="133" on="1"/>
        <pt x="367" y="62" on="0"/>
        <pt x="419" y="25" on="1"/>
        <pt x="367" y="-13" on="1"/>
        <pt x="286" y="60" on="1"/>
        <pt x="207" y="-12" on="0"/>
        <pt x="140" y="-12" on="1"/>
        <pt x="96" y="-12" on="0"/>
        <pt x="33" y="44" on="0"/>
        <pt x="33" y="129" on="0"/>
        <pt x="84" y="185" on="0"/>
        <pt x="126" y="200" on="1"/>
        <pt x="198" y="227" on="0"/>
        <pt x="285" y="234" on="1"/>
        <pt x="285" y="328" on="1"/>
        <pt x="285" y="411" on="0"/>
        <pt x="189" y="411" on="1"/>
        <pt x="134" y="411" on="0"/>
        <pt x="59" y="387" on="1"/>
        <pt x="50" y="412" on="1"/>
        <pt x="70" y="428" on="0"/>
        <pt x="169" y="464" on="0"/>
        <pt x="259" y="464" on="0"/>
        <pt x="320" y="440" on="0"/>
        <pt x="349" y="410" on="0"/>
        <pt x="365" y="358" on="0"/>
        <pt x="367" y="328" on="0"/>
        <pt x="367" y="303" on="1"/>
      </contour>
      <contour>
        <pt x="257" y="532" on="0"/>
        <pt x="156" y="573" on="0"/>
        <pt x="130" y="573" on="0"/>
        <pt x="108" y="553" on="0"/>
        <pt x="91" y="530" on="1"/>
        <pt x="64" y="545" on="1"/>
        <pt x="91" y="610" on="0"/>
        <pt x="166" y="634" on="1"/>
        <pt x="188" y="634" on="0"/>
        <pt x="289" y="593" on="0"/>
        <pt x="315" y="593" on="0"/>
        <pt x="337" y="613" on="0"/>
        <pt x="354" y="636" on="1"/>
        <pt x="381" y="621" on="1"/>
        <pt x="354" y="556" on="0"/>
        <pt x="279" y="532" on="1"/>
      </contour>
    </TTGlyph>
    <TTGlyph name="b" xMin="69" yMin="-13" xMax="467" yMax="683">
      <contour>
        <pt x="153" y="389" on="1"/>
        <pt x="217" y="462" on="0"/>
        <pt x="370" y="462" on="0"/>
        <pt x="467" y="340" on="0"/>
        <pt x="467" y="121" on="0"/>
        <pt x="322" y="-13" on="0"/>
        <pt x="218" y="-13" on="1"/>
        <pt x="140" y="-13" on="0"/>
        <pt x="69" y="26" on="1"/>
        <pt x="69" y="683" on="1"/>
        <pt x="153" y="683" on="1"/>
      </contour>
      <contour>
        <pt x="153" y="342" on="1"/>
        <pt x="153" y="56" on="1"/>
        <pt x="204" y="29" on="0"/>
        <pt x="314" y="29" on="0"/>
        <pt x="381" y="137" on="0"/>
        <pt x="381" y="297" on="0"/>
        <pt x="315" y="393" on="0"/>
        <pt x="265" y="409" on="1"/>
        <pt x="238" y="407" on="0"/>
        <pt x="183" y="377" on="0"/>
        <pt x="153" y="348" on="0"/>
      </contour>
    </TTGlyph>
    <TTGlyph name="backslash" xMin="-9" yMin="-14" xMax="287" yMax="677">
      <contour>
        <pt x="-9" y="677" on="1"/>
        <pt x="58" y="677" on="1"/>
        <pt x="287" y="-14" on="1"/>
        <pt x="219" y="-14" on="1"/>
      </contour>
    </TTGlyph>
    <TTGlyph name="bar" xMin="67" yMin="-218" xMax="133" yMax="782">
      <contour>
        <pt x="67" y="782" on="1"/>
        <pt x="133" y="782" on="1"/>
        <pt x="133" y="-218" on="1"/>
        <pt x="67" y="-218" on="1"/>
      </contour>
    </TTGlyph>
    <TTGlyph name="braceleft" xMin="126" yMin="-182" xMax="358" yMax="682">
      <contour>
        <pt x="186" y="337" on="1"/>
        <pt x="186" y="545" on="1"/>
        <pt x="186" y="616" on="0"/>
        <pt x="243" y="682" on="0"/>
        <pt x="314" y="682" on="1"/>
        <pt x="335" y="682" on="0"/>
        <pt x="358" y="675" on="1"/>
        <pt x="358" y="644" on="1"/>
        <pt x="333" y="654" on="0"/>
        <pt x="300" y="654" on="1"/>
        <pt x="271" y="646" on="0"/>
        <pt x="256" y="608" on="0"/>
        <pt x="256" y="569" on="1"/>
        <pt x="256" y="362" on="1"/>
        <pt x="256" y="316" on="0"/>
        <pt x="216" y="267" on="0"/>
        <pt x="175" y="250" on="1"/>
        <pt x="216" y="232" on="0"/>
        <pt x="256" y="184" on="0"/>
        <pt x="256" y="138" on="1"/>
        <pt x="256" y="-69" on="1"/>
        <pt x="256" y="-108" on="0"/>
        <pt x="271" y="-146" on="0"/>
        <pt x="300" y="-154" on="1"/>
        <pt x="327" y="-154" on="0"/>
        <pt x="358" y="-145" on="1"/>
        <pt x="358" y="-175" on="1"/>
        <pt x="335" y="-182" on="0"/>
        <pt x="314" y="-182" on="1"/>
        <pt x="243" y="-182" on="0"/>
        <pt x="186" y="-116" on="0"/>
        <pt x="186" y="-45" on="1"/>
        <pt x="186" y="163" on="1"/>
        <pt x="186" y="192" on="0"/>
        <pt x="160" y="240" on="0"/>
        <pt x="126" y="241" on="1"/>
        <pt x="126" y="259" on="1"/>
        <pt x="160" y="260" on="0"/>
        <pt x="186" y="307" on="0"/>
      </contour>
    </TTGlyph>
    <TTGlyph name="braceright" xMin="123" yMin="-182" xMax="355" yMax="682">
      <contour>
        <pt x="295" y="163" on="1"/>
        <pt x="295" y="-45" on="1"/>
        <pt x="295" y="-116" on="0"/>
        <pt x="238" y="-182" on="0"/>
        <pt x="167" y="-182" on="1"/>
        <pt x="146" y="-182" on="0"/>
        <pt x="123" y="-175" on="1"/>
        <pt x="123" y="-144" on="1"/>
        <pt x="148" y="-154" on="0"/>
        <pt x="181" y="-154" on="1"/>
        <pt x="210" y="-146" on="0"/>
        <pt x="225" y="-108" on="0"/>
        <pt x="225" y="-69" on="1"/>
        <pt x="225" y="138" on="1"/>
        <pt x="225" y="184" on="0"/>
        <pt x="265" y="233" on="0"/>
        <pt x="306" y="250" on="1"/>
        <pt x="265" y="268" on="0"/>
        <pt x="225" y="316" on="0"/>
        <pt x="225" y="362" on="1"/>
        <pt x="225" y="569" on="1"/>
        <pt x="225" y="608" on="0"/>
        <pt x="210" y="646" on="0"/>
        <pt x="181" y="654" on="1"/>
        <pt x="154" y="654" on="0"/>
        <pt x="123" y="645" on="1"/>
        <pt x="123" y="675" on="1"/>
        <pt x="146" y="682" on="0"/>
        <pt x="167" y="682" on="1"/>
        <pt x="238" y="682" on="0"/>
        <pt x="295" y="616" on="0"/>
        <pt x="295" y="545" on="1"/>
        <pt x="295" y="337" on="1"/>
        <pt x="295" y="308" on="0"/>
        <pt x="321" y="260" on="0"/>
        <pt x="355" y="259" on="1"/>
        <pt x="355" y="241" on="1"/>
        <pt x="321" y="240" on="0"/>
        <pt x="295" y="193" on="0"/>
      </contour>
    </TTGlyph>
    <TTGlyph name="bracketleft" xMin="88" yMin="-156" xMax="299" yMax="662">
      <contour>
        <pt x="299" y="636" on="1"/>
        <pt x="164" y="608" on="1"/>
        <pt x="164" y="-102" on="1"/>
        <pt x="299" y="-131" on="1"/>
        <pt x="299" y="-156" on="1"/>
        <pt x="88" y="-140" on="1"/>
        <pt x="88" y="646" on="1"/>
        <pt x="299" y="662" on="1"/>
      </contour>
    </TTGlyph>
    <TTGlyph name="bracketright" xMin="34" yMin="-156" xMax="245" yMax="662">
      <contour>
        <pt x="34" y="-130" on="1"/>
        <pt x="169" y="-102" on="1"/>
        <pt x="169" y="608" on="1"/>
        <pt x="34" y="637" on="1"/>
        <pt x="34" y="662" on="1"/>
        <pt x="245" y="646" on="1"/>
        <pt x="245" y="-140" on="1"/>
        <pt x="34" y="-156" on="1"/>
      </contour>
    </TTGlyph>
    <TTGlyph name="breve" xMin="26" yMin="507" xMax="307" yMax="664">
      <contour>
        <pt x="164" y="507" on="1"/>
        <pt x="106" y="507" on="0"/>
        <pt x="26" y="585" on="0"/>
        <pt x="26" y="659" on="1"/>
        <pt x="26" y="664" on="1"/>
        <pt x="55" y="664" on="1"/>
        <pt x="71" y="567" on="0"/>
        <pt x="166" y="567" on="1"/>
        <pt x="220" y="567" on="0"/>
        <pt x="244" y="598" on="1"/>
        <pt x="257" y="615" on="0"/>
        <pt x="268" y="639" on="0"/>
        <pt x="278" y="664" on="1"/>
        <pt x="307" y="664" on="1"/>
        <pt x="292" y="507" on="0"/>
      </contour>
    </TTGlyph>
    <TTGlyph name="brokenbar" xMin="67" yMin="-143" xMax="133" yMax="707">
      <contour>
        <pt x="67" y="707" on="1"/>
        <pt x="133" y="707" on="1"/>
        <pt x="133" y="357" on="1"/>
        <pt x="67" y="357" on="1"/>
      </contour>
      <contour>
        <pt x="67" y="207" on="1"/>
        <pt x="133" y="207" on="1"/>
        <pt x="133" y="-143" on="1"/>
        <pt x="67" y="-143" on="1"/>
      </contour>
    </TTGlyph>
    <TTGlyph name="bullet" xMin="40" yMin="196" xMax="310" yMax="466">
      <contour>
        <pt x="310" y="387" on="0"/>
        <pt x="310" y="275" on="0"/>
        <pt x="231" y="196" on="0"/>
        <pt x="119" y="196" on="0"/>
        <pt x="40" y="275" on="0"/>
        <pt x="40" y="388" on="0"/>
        <pt x="119" y="466" on="0"/>
        <pt x="231" y="466" on="0"/>
      </contour>
    </TTGlyph>
    <TTGlyph name="c" xMin="26" yMin="-12" xMax="369" yMax="464">
      <contour>
        <pt x="228" y="-12" on="1"/>
        <pt x="141" y="-12" on="0"/>
        <pt x="26" y="107" on="0"/>
        <pt x="26" y="325" on="0"/>
        <pt x="149" y="464" on="0"/>
        <pt x="244" y="464" on="1"/>
        <pt x="297" y="464" on="0"/>
        <pt x="363" y="438" on="1"/>
        <pt x="353" y="372" on="1"/>
        <pt x="265" y="418" on="0"/>
        <pt x="202" y="418" on="1"/>
        <pt x="150" y="392" on="0"/>
        <pt x="104" y="276" on="0"/>
        <pt x="104" y="220" on="1"/>
        <pt x="104" y="144" on="0"/>
        <pt x="193" y="43" on="0"/>
        <pt x="317" y="43" on="0"/>
        <pt x="369" y="70" on="1"/>
        <pt x="369" y="35" on="1"/>
        <pt x="297" y="-12" on="0"/>
      </contour>
    </TTGlyph>
    <TTGlyph name="caron" xMin="16" yMin="506" xMax="315" yMax="673">
      <contour>
        <pt x="142" y="506" on="1"/>
        <pt x="16" y="673" on="1"/>
        <pt x="56" y="673" on="1"/>
        <pt x="166" y="580" on="1"/>
        <pt x="275" y="673" on="1"/>
        <pt x="315" y="673" on="1"/>
        <pt x="190" y="506" on="1"/>
      </contour>
    </TTGlyph>
    <TTGlyph name="ccedilla" xMin="26" yMin="-215" xMax="369" yMax="464">
      <contour>
        <pt x="26" y="212" on="1"/>
        <pt x="26" y="325" on="0"/>
        <pt x="149" y="464" on="0"/>
        <pt x="244" y="464" on="1"/>
        <pt x="297" y="464" on="0"/>
        <pt x="363" y="438" on="1"/>
        <pt x="353" y="372" on="1"/>
        <pt x="265" y="418" on="0"/>
        <pt x="202" y="418" on="1"/>
        <pt x="150" y="392" on="0"/>
        <pt x="104" y="276" on="0"/>
        <pt x="104" y="220" on="1"/>
        <pt x="104" y="144" on="0"/>
        <pt x="193" y="43" on="0"/>
        <pt x="317" y="43" on="0"/>
        <pt x="369" y="70" on="1"/>
        <pt x="369" y="35" on="1"/>
        <pt x="297" y="-12" on="0"/>
        <pt x="228" y="-12" on="1"/>
        <pt x="218" y="-12" on="1"/>
        <pt x="198" y="-65" on="1"/>
        <pt x="231" y="-65" on="0"/>
        <pt x="293" y="-100" on="0"/>
        <pt x="310" y="-132" on="1"/>
        <pt x="310" y="-166" on="0"/>
        <pt x="239" y="-215" on="0"/>
        <pt x="140" y="-215" on="0"/>
        <pt x="101" y="-199" on="1"/>
        <pt x="115" y="-168" on="1"/>
        <pt x="144" y="-180" on="0"/>
        <pt x="201" y="-180" on="0"/>
        <pt x="235" y="-157" on="0"/>
        <pt x="235" y="-141" on="1"/>
        <pt x="214" y="-100" on="0"/>
        <pt x="148" y="-100" on="1"/>
        <pt x="185" y="-8" on="1"/>
        <pt x="114" y="6" on="0"/>
        <pt x="26" y="121" on="0"/>
      </contour>
    </TTGlyph>
    <TTGlyph name="cedilla" xMin="52" yMin="-215" xMax="261" yMax="0">
      <contour>
        <pt x="261" y="-166" on="0"/>
        <pt x="190" y="-215" on="0"/>
        <pt x="91" y="-215" on="0"/>
        <pt x="52" y="-199" on="1"/>
        <pt x="66" y="-168" on="1"/>
        <pt x="95" y="-180" on="0"/>
        <pt x="152" y="-180" on="0"/>
        <pt x="186" y="-157" on="0"/>
        <pt x="186" y="-141" on="1"/>
        <pt x="165" y="-100" on="0"/>
        <pt x="99" y="-100" on="1"/>
        <pt x="139" y="0" on="1"/>
        <pt x="174" y="0" on="1"/>
        <pt x="149" y="-65" on="1"/>
        <pt x="182" y="-65" on="0"/>
        <pt x="244" y="-100" on="0"/>
        <pt x="261" y="-132" on="1"/>
      </contour>
    </TTGlyph>
    <TTGlyph name="cent" xMin="86" yMin="-87" xMax="429" yMax="538">
      <contour>
        <pt x="264" y="-87" on="1"/>
        <pt x="264" y="-11" on="1"/>
        <pt x="185" y="-3" on="0"/>
        <pt x="86" y="113" on="0"/>
        <pt x="86" y="311" on="0"/>
        <pt x="184" y="443" on="0"/>
        <pt x="264" y="457" on="1"/>
        <pt x="264" y="538" on="1"/>
        <pt x="298" y="538" on="1"/>
        <pt x="298" y="461" on="1"/>
        <pt x="357" y="461" on="0"/>
        <pt x="423" y="435" on="1"/>
        <pt x="403" y="379" on="1"/>
        <pt x="341" y="408" on="0"/>
        <pt x="298" y="413" on="1"/>
        <pt x="298" y="43" on="1"/>
        <pt x="304" y="42" on="0"/>
        <pt x="318" y="42" on="1"/>
        <pt x="377" y="42" on="0"/>
        <pt x="429" y="69" on="1"/>
        <pt x="429" y="34" on="1"/>
        <pt x="363" y="-9" on="0"/>
        <pt x="298" y="-13" on="1"/>
        <pt x="298" y="-87" on="1"/>
      </contour>
      <contour>
        <pt x="211" y="389" on="0"/>
        <pt x="164" y="274" on="0"/>
        <pt x="164" y="160" on="0"/>
        <pt x="219" y="70" on="0"/>
        <pt x="263" y="52" on="1"/>
        <pt x="263" y="415" on="1"/>
      </contour>
    </TTGlyph>
    <TTGlyph name="circumflex" xMin="17" yMin="507" xMax="316" yMax="674">
      <contour>
        <pt x="190" y="674" on="1"/>
        <pt x="316" y="507" on="1"/>
        <pt x="276" y="507" on="1"/>
        <pt x="166" y="600" on="1"/>
        <pt x="57" y="507" on="1"/>
        <pt x="17" y="507" on="1"/>
        <pt x="142" y="674" on="1"/>
      </contour>
    </TTGlyph>
    <TTGlyph name="colon" xMin="50" yMin="-11" xMax="161" yMax="459">
      <contour>
        <pt x="50" y="21" on="0"/>
        <pt x="50" y="67" on="0"/>
        <pt x="82" y="100" on="0"/>
        <pt x="128" y="100" on="0"/>
        <pt x="161" y="67" on="0"/>
        <pt x="161" y="21" on="0"/>
        <pt x="128" y="-11" on="0"/>
        <pt x="82" y="-11" on="0"/>
      </contour>
      <contour>
        <pt x="50" y="380" on="0"/>
        <pt x="50" y="426" on="0"/>
        <pt x="82" y="459" on="0"/>
        <pt x="128" y="459" on="0"/>
        <pt x="161" y="426" on="0"/>
        <pt x="161" y="380" on="0"/>
        <pt x="128" y="348" on="0"/>
        <pt x="82" y="348" on="0"/>
      </contour>
    </TTGlyph>
    <TTGlyph name="comma" xMin="51" yMin="-142" xMax="175" yMax="108">
      <contour>
        <pt x="175" y="28" on="1"/>
        <pt x="175" y="-80" on="0"/>
        <pt x="63" y="-142" on="1"/>
        <pt x="51" y="-123" on="1"/>
        <pt x="118" y="-70" on="0"/>
        <pt x="118" y="-4" on="1"/>
        <pt x="95" y="-4" on="0"/>
        <pt x="56" y="26" on="0"/>
        <pt x="56" y="51" on="1"/>
        <pt x="70" y="72" on="0"/>
        <pt x="132" y="105" on="0"/>
        <pt x="161" y="108" on="1"/>
        <pt x="175" y="67" on="0"/>
      </contour>
    </TTGlyph>
    <TTGlyph name="copyright" xMin="38" yMin="-14" xMax="722" yMax="677">
      <contour>
        <pt x="38" y="474" on="0"/>
        <pt x="237" y="677" on="0"/>
        <pt x="525" y="677" on="0"/>
        <pt x="722" y="474" on="0"/>
        <pt x="722" y="186" on="0"/>
        <pt x="525" y="-14" on="0"/>
        <pt x="237" y="-14" on="0"/>
        <pt x="38" y="186" on="0"/>
      </contour>
      <contour>
        <pt x="667" y="453" on="0"/>
        <pt x="501" y="634" on="0"/>
        <pt x="261" y="634" on="0"/>
        <pt x="93" y="453" on="0"/>
        <pt x="93" y="208" on="0"/>
        <pt x="262" y="28" on="0"/>
        <pt x="499" y="28" on="0"/>
        <pt x="667" y="209" on="0"/>
      </contour>
      <contour>
        <pt x="534" y="137" on="1"/>
        <pt x="480" y="108" on="0"/>
        <pt x="293" y="108" on="0"/>
        <pt x="155" y="219" on="0"/>
        <pt x="155" y="323" on="1"/>
        <pt x="155" y="383" on="0"/>
        <pt x="201" y="478" on="0"/>
        <pt x="238" y="506" on="1"/>
        <pt x="312" y="562" on="0"/>
        <pt x="407" y="562" on="1"/>
        <pt x="465" y="562" on="0"/>
        <pt x="525" y="541" on="1"/>
        <pt x="516" y="482" on="1"/>
        <pt x="430" y="519" on="0"/>
        <pt x="369" y="521" on="1"/>
        <pt x="307" y="506" on="0"/>
        <pt x="236" y="405" on="0"/>
        <pt x="236" y="243" on="0"/>
        <pt x="331" y="144" on="0"/>
        <pt x="487" y="144" on="0"/>
        <pt x="534" y="188" on="1"/>
      </contour>
    </TTGlyph>
    <TTGlyph name="currency" xMin="18" yMin="-13" xMax="512" yMax="674">
      <contour>
        <pt x="376" y="21" on="1"/>
        <pt x="416" y="21" on="0"/>
        <pt x="490" y="49" on="0"/>
        <pt x="512" y="75" on="1"/>
        <pt x="512" y="20" on="1"/>
        <pt x="447" y="-13" on="0"/>
        <pt x="362" y="-13" on="1"/>
        <pt x="253" y="-13" on="0"/>
        <pt x="88" y="143" on="0"/>
        <pt x="81" y="287" on="1"/>
        <pt x="18" y="287" on="1"/>
        <pt x="18" y="326" on="1"/>
        <pt x="80" y="326" on="1"/>
        <pt x="80" y="344" on="0"/>
        <pt x="84" y="380" on="1"/>
        <pt x="18" y="380" on="1"/>
        <pt x="18" y="418" on="1"/>
        <pt x="90" y="418" on="1"/>
        <pt x="108" y="504" on="0"/>
        <pt x="157" y="564" on="1"/>
        <pt x="247" y="674" on="0"/>
        <pt x="375" y="674" on="1"/>
        <pt x="406" y="674" on="0"/>
        <pt x="479" y="657" on="0"/>
        <pt x="500" y="644" on="1"/>
        <pt x="500" y="578" on="1"/>
        <pt x="405" y="633" on="0"/>
        <pt x="331" y="633" on="1"/>
        <pt x="207" y="594" on="0"/>
        <pt x="179" y="418" on="1"/>
        <pt x="381" y="418" on="1"/>
        <pt x="381" y="380" on="1"/>
        <pt x="175" y="380" on="1"/>
        <pt x="173" y="348" on="0"/>
        <pt x="173" y="326" on="1"/>
        <pt x="381" y="326" on="1"/>
        <pt x="381" y="287" on="1"/>
        <pt x="174" y="287" on="1"/>
        <pt x="182" y="160" on="0"/>
        <pt x="292" y="21" on="0"/>
      </contour>
    </TTGlyph>
    <TTGlyph name="d" xMin="26" yMin="-13" xMax="475" yMax="683">
      <contour>
        <pt x="424" y="134" on="1"/>
        <pt x="424" y="65" on="0"/>
        <pt x="475" y="24" on="1"/>
        <pt x="424" y="-13" on="1"/>
        <pt x="342" y="60" on="1"/>
        <pt x="302" y="22" on="0"/>
        <pt x="238" y="-12" on="0"/>
        <pt x="170" y="-12" on="0"/>
        <pt x="118" y="8" on="0"/>
        <pt x="61" y="55" on="0"/>
        <pt x="26" y="156" on="0"/>
        <pt x="26" y="316" on="0"/>
        <pt x="121" y="463" on="0"/>
        <pt x="204" y="463" on="1"/>
        <pt x="266" y="463" on="0"/>
        <pt x="339" y="417" on="1"/>
        <pt x="339" y="683" on="1"/>
        <pt x="424" y="683" on="1"/>
      </contour>
      <contour>
        <pt x="339" y="101" on="1"/>
        <pt x="339" y="380" on="1"/>
        <pt x="286" y="415" on="0"/>
        <pt x="242" y="415" on="1"/>
        <pt x="184" y="415" on="0"/>
        <pt x="114" y="306" on="0"/>
        <pt x="114" y="142" on="0"/>
        <pt x="165" y="43" on="0"/>
        <pt x="203" y="33" on="1"/>
        <pt x="238" y="36" on="0"/>
        <pt x="305" y="64" on="0"/>
        <pt x="339" y="93" on="0"/>
      </contour>
    </TTGlyph>
    <TTGlyph name="dagger" xMin="59" yMin="-149" xMax="442" yMax="682">
      <contour>
        <pt x="442" y="481" on="1"/>
        <pt x="442" y="415" on="1"/>
        <pt x="384" y="415" on="1"/>
        <pt x="261" y="435" on="1"/>
        <pt x="292" y="317" on="1"/>
        <pt x="262" y="-149" on="1"/>
        <pt x="241" y="-149" on="1"/>
        <pt x="209" y="317" on="1"/>
        <pt x="239" y="435" on="1"/>
        <pt x="117" y="415" on="1"/>
        <pt x="59" y="415" on="1"/>
        <pt x="59" y="481" on="1"/>
        <pt x="117" y="481" on="1"/>
        <pt x="236" y="461" on="1"/>
        <pt x="208" y="597" on="1"/>
        <pt x="208" y="677" on="1"/>
        <pt x="230" y="682" on="0"/>
        <pt x="275" y="682" on="0"/>
        <pt x="294" y="677" on="1"/>
        <pt x="294" y="597" on="1"/>
        <pt x="265" y="461" on="1"/>
        <pt x="384" y="481" on="1"/>
      </contour>
    </TTGlyph>
    <TTGlyph name="daggerdbl" xMin="58" yMin="-156" xMax="442" yMax="682">
      <contour>
        <pt x="58" y="45" on="1"/>
        <pt x="58" y="111" on="1"/>
        <pt x="116" y="111" on="1"/>
        <pt x="239" y="91" on="1"/>
        <pt x="208" y="262" on="1"/>
        <pt x="239" y="435" on="1"/>
        <pt x="117" y="415" on="1"/>
        <pt x="59" y="415" on="1"/>
        <pt x="59" y="481" on="1"/>
        <pt x="117" y="481" on="1"/>
        <pt x="236" y="461" on="1"/>
        <pt x="208" y="597" on="1"/>
        <pt x="208" y="677" on="1"/>
        <pt x="230" y="682" on="0"/>
        <pt x="275" y="682" on="0"/>
        <pt x="294" y="677" on="1"/>
        <pt x="294" y="597" on="1"/>
        <pt x="265" y="461" on="1"/>
        <pt x="384" y="481" on="1"/>
        <pt x="442" y="481" on="1"/>
        <pt x="442" y="415" on="1"/>
        <pt x="384" y="415" on="1"/>
        <pt x="261" y="435" on="1"/>
        <pt x="292" y="262" on="1"/>
        <pt x="261" y="91" on="1"/>
        <pt x="383" y="111" on="1"/>
        <pt x="441" y="111" on="1"/>
        <pt x="441" y="45" on="1"/>
        <pt x="383" y="45" on="1"/>
        <pt x="264" y="65" on="1"/>
        <pt x="292" y="-71" on="1"/>
        <pt x="292" y="-151" on="1"/>
        <pt x="270" y="-156" on="0"/>
        <pt x="225" y="-156" on="0"/>
        <pt x="206" y="-151" on="1"/>
        <pt x="206" y="-71" on="1"/>
        <pt x="235" y="65" on="1"/>
        <pt x="116" y="45" on="1"/>
      </contour>
    </TTGlyph>
    <TTGlyph name="degree" xMin="57" yMin="390" xMax="343" yMax="677">
      <contour>
        <pt x="157" y="424" on="0"/>
        <pt x="243" y="424" on="0"/>
        <pt x="304" y="489" on="0"/>
        <pt x="304" y="577" on="0"/>
        <pt x="243" y="642" on="0"/>
        <pt x="157" y="642" on="0"/>
        <pt x="96" y="577" on="0"/>
        <pt x="96" y="489" on="0"/>
      </contour>
      <contour>
        <pt x="260" y="390" on="0"/>
        <pt x="140" y="390" on="0"/>
        <pt x="57" y="473" on="0"/>
        <pt x="57" y="593" on="0"/>
        <pt x="140" y="677" on="0"/>
        <pt x="260" y="677" on="0"/>
        <pt x="343" y="593" on="0"/>
        <pt x="343" y="473" on="0"/>
      </contour>
    </TTGlyph>
    <TTGlyph name="dieresis" xMin="18" yMin="541" xMax="315" yMax="641">
      <contour>
        <pt x="18" y="587" on="1"/>
        <pt x="18" y="595" on="1"/>
        <pt x="18" y="602" on="0"/>
        <pt x="24" y="614" on="0"/>
        <pt x="24" y="616" on="1"/>
        <pt x="41" y="641" on="0"/>
        <pt x="68" y="641" on="1"/>
        <pt x="82" y="641" on="0"/>
        <pt x="89" y="636" on="1"/>
        <pt x="95" y="635" on="0"/>
        <pt x="105" y="625" on="1"/>
        <pt x="111" y="616" on="1"/>
        <pt x="116" y="608" on="0"/>
        <pt x="118" y="595" on="1"/>
        <pt x="118" y="591" on="1"/>
        <pt x="118" y="564" on="0"/>
        <pt x="93" y="547" on="1"/>
        <pt x="91" y="547" on="0"/>
        <pt x="89" y="546" on="1"/>
        <pt x="82" y="541" on="0"/>
        <pt x="70" y="541" on="1"/>
        <pt x="62" y="541" on="0"/>
        <pt x="46" y="545" on="1"/>
        <pt x="40" y="548" on="0"/>
        <pt x="28" y="560" on="1"/>
        <pt x="26" y="564" on="0"/>
        <pt x="24" y="566" on="1"/>
        <pt x="18" y="580" on="0"/>
      </contour>
      <contour>
        <pt x="215" y="570" on="0"/>
        <pt x="215" y="612" on="0"/>
        <pt x="244" y="641" on="0"/>
        <pt x="286" y="641" on="0"/>
        <pt x="315" y="612" on="0"/>
        <pt x="315" y="570" on="0"/>
        <pt x="286" y="541" on="0"/>
        <pt x="244" y="541" on="0"/>
      </contour>
    </TTGlyph>
    <TTGlyph name="divide" xMin="59" yMin="20" xMax="505" yMax="486">
      <contour>
        <pt x="505" y="224" on="1"/>
        <pt x="59" y="224" on="1"/>
        <pt x="59" y="282" on="1"/>
        <pt x="505" y="282" on="1"/>
      </contour>
      <contour>
        <pt x="299" y="388" on="0"/>
        <pt x="265" y="388" on="0"/>
        <pt x="233" y="413" on="0"/>
        <pt x="233" y="457" on="0"/>
        <pt x="262" y="486" on="0"/>
        <pt x="302" y="486" on="0"/>
        <pt x="332" y="456" on="0"/>
        <pt x="332" y="414" on="0"/>
      </contour>
      <contour>
        <pt x="299" y="20" on="0"/>
        <pt x="265" y="20" on="0"/>
        <pt x="233" y="45" on="0"/>
        <pt x="233" y="89" on="0"/>
        <pt x="262" y="118" on="0"/>
        <pt x="302" y="118" on="0"/>
        <pt x="332" y="88" on="0"/>
        <pt x="332" y="46" on="0"/>
      </contour>
    </TTGlyph>
    <TTGlyph name="dollar" xMin="58" yMin="-87" xMax="448" yMax="733">
      <contour>
        <pt x="264" y="733" on="1"/>
        <pt x="264" y="669" on="1"/>
        <pt x="351" y="669" on="0"/>
        <pt x="432" y="636" on="1"/>
        <pt x="422" y="570" on="1"/>
        <pt x="334" y="622" on="0"/>
        <pt x="264" y="631" on="1"/>
        <pt x="264" y="397" on="1"/>
        <pt x="271" y="392" on="0"/>
        <pt x="320" y="361" on="0"/>
        <pt x="338" y="349" on="0"/>
        <pt x="379" y="319" on="0"/>
        <pt x="397" y="299" on="0"/>
        <pt x="425" y="266" on="0"/>
        <pt x="432" y="252" on="1"/>
        <pt x="448" y="215" on="0"/>
        <pt x="448" y="178" on="1"/>
        <pt x="448" y="103" on="0"/>
        <pt x="353" y="3" on="0"/>
        <pt x="264" y="-4" on="1"/>
        <pt x="264" y="-87" on="1"/>
        <pt x="230" y="-87" on="1"/>
        <pt x="230" y="-6" on="1"/>
        <pt x="144" y="-5" on="0"/>
        <pt x="58" y="33" on="1"/>
        <pt x="58" y="80" on="1"/>
        <pt x="89" y="62" on="0"/>
        <pt x="189" y="29" on="0"/>
        <pt x="230" y="29" on="1"/>
        <pt x="230" y="301" on="1"/>
        <pt x="127" y="362" on="0"/>
        <pt x="97" y="403" on="1"/>
        <pt x="62" y="451" on="0"/>
        <pt x="62" y="572" on="0"/>
        <pt x="144" y="664" on="0"/>
        <pt x="230" y="669" on="1"/>
        <pt x="230" y="733" on="1"/>
      </contour>
      <contour>
        <pt x="153" y="531" on="1"/>
        <pt x="153" y="474" on="0"/>
        <pt x="230" y="420" on="1"/>
        <pt x="230" y="627" on="1"/>
        <pt x="192" y="618" on="0"/>
        <pt x="153" y="562" on="0"/>
      </contour>
      <contour>
        <pt x="307" y="44" on="0"/>
        <pt x="355" y="109" on="0"/>
        <pt x="355" y="196" on="0"/>
        <pt x="308" y="251" on="0"/>
        <pt x="264" y="280" on="1"/>
        <pt x="264" y="33" on="1"/>
      </contour>
    </TTGlyph>
    <TTGlyph name="dotaccent" xMin="65" yMin="579" xMax="168" yMax="683">
      <contour>
        <pt x="65" y="653" on="0"/>
        <pt x="94" y="683" on="0"/>
        <pt x="137" y="683" on="0"/>
        <pt x="168" y="653" on="0"/>
        <pt x="168" y="611" on="0"/>
        <pt x="137" y="579" on="0"/>
        <pt x="95" y="579" on="0"/>
        <pt x="65" y="610" on="0"/>
      </contour>
    </TTGlyph>
    <TTGlyph name="dotlessi" xMin="75" yMin="0" xMax="158" yMax="452">
      <contour>
        <pt x="75" y="0" on="1"/>
        <pt x="75" y="452" on="1"/>
        <pt x="158" y="452" on="1"/>
        <pt x="158" y="0" on="1"/>
      </contour>
    </TTGlyph>
    <TTGlyph name="e" xMin="26" yMin="-12" xMax="424" yMax="464">
      <contour>
        <pt x="105" y="246" on="1"/>
        <pt x="105" y="138" on="0"/>
        <pt x="202" y="43" on="0"/>
        <pt x="341" y="43" on="0"/>
        <pt x="400" y="70" on="1"/>
        <pt x="400" y="35" on="1"/>
        <pt x="318" y="-12" on="0"/>
        <pt x="243" y="-12" on="1"/>
        <pt x="146" y="-12" on="0"/>
        <pt x="26" y="106" on="0"/>
        <pt x="26" y="330" on="0"/>
        <pt x="159" y="464" on="0"/>
        <pt x="253" y="464" on="1"/>
        <pt x="326" y="464" on="0"/>
        <pt x="424" y="349" on="0"/>
        <pt x="424" y="246" on="1"/>
      </contour>
      <contour>
        <pt x="202" y="417" on="1"/>
        <pt x="167" y="400" on="0"/>
        <pt x="117" y="325" on="0"/>
        <pt x="109" y="276" on="1"/>
        <pt x="343" y="276" on="1"/>
        <pt x="340" y="318" on="0"/>
        <pt x="307" y="378" on="0"/>
        <pt x="284" y="392" on="1"/>
        <pt x="243" y="417" on="0"/>
      </contour>
    </TTGlyph>
    <TTGlyph name="eacute" xMin="26" yMin="-12" xMax="424" yMax="695">
      <contour>
        <pt x="105" y="246" on="1"/>
        <pt x="105" y="138" on="0"/>
        <pt x="202" y="43" on="0"/>
        <pt x="341" y="43" on="0"/>
        <pt x="400" y="70" on="1"/>
        <pt x="400" y="35" on="1"/>
        <pt x="318" y="-12" on="0"/>
        <pt x="243" y="-12" on="1"/>
        <pt x="146" y="-12" on="0"/>
        <pt x="26" y="106" on="0"/>
        <pt x="26" y="330" on="0"/>
        <pt x="159" y="464" on="0"/>
        <pt x="253" y="464" on="1"/>
        <pt x="326" y="464" on="0"/>
        <pt x="424" y="349" on="0"/>
        <pt x="424" y="246" on="1"/>
      </contour>
      <contour>
        <pt x="202" y="417" on="1"/>
        <pt x="167" y="400" on="0"/>
        <pt x="117" y="325" on="0"/>
        <pt x="109" y="276" on="1"/>
        <pt x="343" y="276" on="1"/>
        <pt x="340" y="318" on="0"/>
        <pt x="307" y="378" on="0"/>
        <pt x="284" y="392" on="1"/>
        <pt x="243" y="417" on="0"/>
      </contour>
      <contour>
        <pt x="231" y="507" on="1"/>
        <pt x="191" y="507" on="1"/>
        <pt x="363" y="695" on="1"/>
        <pt x="419" y="645" on="1"/>
      </contour>
    </TTGlyph>
    <TTGlyph name="ecircumflex" xMin="26" yMin="-12" xMax="424" yMax="674">
      <contour>
        <pt x="378" y="507" on="1"/>
        <pt x="344" y="507" on="1"/>
        <pt x="222" y="610" on="1"/>
        <pt x="101" y="507" on="1"/>
        <pt x="67" y="507" on="1"/>
        <pt x="191" y="674" on="1"/>
        <pt x="253" y="674" on="1"/>
      </contour>
      <contour>
        <pt x="105" y="246" on="1"/>
        <pt x="105" y="138" on="0"/>
        <pt x="202" y="43" on="0"/>
        <pt x="341" y="43" on="0"/>
        <pt x="400" y="70" on="1"/>
        <pt x="400" y="35" on="1"/>
        <pt x="318" y="-12" on="0"/>
        <pt x="243" y="-12" on="1"/>
        <pt x="146" y="-12" on="0"/>
        <pt x="26" y="106" on="0"/>
        <pt x="26" y="330" on="0"/>
        <pt x="159" y="464" on="0"/>
        <pt x="253" y="464" on="1"/>
        <pt x="326" y="464" on="0"/>
        <pt x="424" y="349" on="0"/>
        <pt x="424" y="246" on="1"/>
      </contour>
      <contour>
        <pt x="202" y="417" on="1"/>
        <pt x="167" y="400" on="0"/>
        <pt x="117" y="325" on="0"/>
        <pt x="109" y="276" on="1"/>
        <pt x="343" y="276" on="1"/>
        <pt x="340" y="318" on="0"/>
        <pt x="307" y="378" on="0"/>
        <pt x="284" y="392" on="1"/>
        <pt x="243" y="417" on="0"/>
      </contour>
    </TTGlyph>
    <TTGlyph name="edieresis" xMin="26" yMin="-12" xMax="424" yMax="641">
      <contour>
        <pt x="105" y="246" on="1"/>
        <pt x="105" y="138" on="0"/>
        <pt x="202" y="43" on="0"/>
        <pt x="341" y="43" on="0"/>
        <pt x="400" y="70" on="1"/>
        <pt x="400" y="35" on="1"/>
        <pt x="318" y="-12" on="0"/>
        <pt x="243" y="-12" on="1"/>
        <pt x="146" y="-12" on="0"/>
        <pt x="26" y="106" on="0"/>
        <pt x="26" y="330" on="0"/>
        <pt x="159" y="464" on="0"/>
        <pt x="253" y="464" on="1"/>
        <pt x="326" y="464" on="0"/>
        <pt x="424" y="349" on="0"/>
        <pt x="424" y="246" on="1"/>
      </contour>
      <contour>
        <pt x="202" y="417" on="1"/>
        <pt x="167" y="400" on="0"/>
        <pt x="117" y="325" on="0"/>
        <pt x="109" y="276" on="1"/>
        <pt x="343" y="276" on="1"/>
        <pt x="340" y="318" on="0"/>
        <pt x="307" y="378" on="0"/>
        <pt x="284" y="392" on="1"/>
        <pt x="243" y="417" on="0"/>
      </contour>
      <contour>
        <pt x="86" y="583" on="1"/>
        <pt x="86" y="595" on="1"/>
        <pt x="86" y="602" on="0"/>
        <pt x="90" y="612" on="1"/>
        <pt x="96" y="622" on="1"/>
        <pt x="115" y="641" on="0"/>
        <pt x="130" y="641" on="1"/>
        <pt x="157" y="641" on="0"/>
        <pt x="173" y="625" on="1"/>
        <pt x="179" y="616" on="1"/>
        <pt x="181" y="614" on="0"/>
        <pt x="185" y="606" on="0"/>
        <pt x="185" y="598" on="0"/>
        <pt x="186" y="595" on="1"/>
        <pt x="186" y="591" on="1"/>
        <pt x="186" y="573" on="0"/>
        <pt x="179" y="566" on="1"/>
        <pt x="174" y="555" on="0"/>
        <pt x="170" y="554" on="1"/>
        <pt x="167" y="551" on="1"/>
        <pt x="163" y="549" on="0"/>
        <pt x="161" y="547" on="1"/>
        <pt x="147" y="541" on="0"/>
        <pt x="117" y="541" on="0"/>
        <pt x="89" y="565" on="0"/>
      </contour>
      <contour>
        <pt x="283" y="570" on="0"/>
        <pt x="283" y="612" on="0"/>
        <pt x="312" y="641" on="0"/>
        <pt x="354" y="641" on="0"/>
        <pt x="383" y="612" on="0"/>
        <pt x="383" y="570" on="0"/>
        <pt x="354" y="541" on="0"/>
        <pt x="312" y="541" on="0"/>
      </contour>
    </TTGlyph>
    <TTGlyph name="egrave" xMin="26" yMin="-12" xMax="424" yMax="695">
      <contour>
        <pt x="105" y="246" on="1"/>
        <pt x="105" y="138" on="0"/>
        <pt x="202" y="43" on="0"/>
        <pt x="341" y="43" on="0"/>
        <pt x="400" y="70" on="1"/>
        <pt x="400" y="35" on="1"/>
        <pt x="318" y="-12" on="0"/>
        <pt x="243" y="-12" on="1"/>
        <pt x="146" y="-12" on="0"/>
        <pt x="26" y="106" on="0"/>
        <pt x="26" y="330" on="0"/>
        <pt x="159" y="464" on="0"/>
        <pt x="253" y="464" on="1"/>
        <pt x="326" y="464" on="0"/>
        <pt x="424" y="349" on="0"/>
        <pt x="424" y="246" on="1"/>
      </contour>
      <contour>
        <pt x="202" y="417" on="1"/>
        <pt x="167" y="400" on="0"/>
        <pt x="117" y="325" on="0"/>
        <pt x="109" y="276" on="1"/>
        <pt x="343" y="276" on="1"/>
        <pt x="340" y="318" on="0"/>
        <pt x="307" y="378" on="0"/>
        <pt x="284" y="392" on="1"/>
        <pt x="243" y="417" on="0"/>
      </contour>
      <contour>
        <pt x="299" y="507" on="1"/>
        <pt x="259" y="507" on="1"/>
        <pt x="71" y="645" on="1"/>
        <pt x="127" y="695" on="1"/>
      </contour>
    </TTGlyph>
    <TTGlyph name="eight" xMin="56" yMin="-12" xMax="445" yMax="675">
      <contour>
        <pt x="187" y="289" on="0"/>
        <pt x="142" y="206" on="0"/>
        <pt x="142" y="106" on="0"/>
        <pt x="210" y="32" on="0"/>
        <pt x="300" y="32" on="0"/>
        <pt x="359" y="88" on="0"/>
        <pt x="359" y="180" on="0"/>
        <pt x="304" y="245" on="0"/>
        <pt x="215" y="314" on="1"/>
      </contour>
      <contour>
        <pt x="56" y="148" on="1"/>
        <pt x="56" y="180" on="0"/>
        <pt x="69" y="226" on="0"/>
        <pt x="109" y="273" on="0"/>
        <pt x="144" y="302" on="0"/>
        <pt x="186" y="334" on="1"/>
        <pt x="134" y="380" on="0"/>
        <pt x="94" y="420" on="0"/>
        <pt x="62" y="484" on="0"/>
        <pt x="62" y="523" on="1"/>
        <pt x="62" y="594" on="0"/>
        <pt x="177" y="675" on="0"/>
        <pt x="331" y="675" on="0"/>
        <pt x="424" y="596" on="0"/>
        <pt x="424" y="536" on="1"/>
        <pt x="424" y="470" on="0"/>
        <pt x="376" y="430" on="1"/>
        <pt x="343" y="402" on="0"/>
        <pt x="290" y="373" on="1"/>
        <pt x="383" y="306" on="0"/>
        <pt x="445" y="208" on="0"/>
        <pt x="445" y="152" on="1"/>
        <pt x="445" y="110" on="0"/>
        <pt x="409" y="49" on="0"/>
        <pt x="367" y="13" on="0"/>
        <pt x="293" y="-12" on="0"/>
        <pt x="246" y="-12" on="1"/>
        <pt x="158" y="-12" on="0"/>
        <pt x="56" y="85" on="0"/>
      </contour>
      <contour>
        <pt x="145" y="548" on="1"/>
        <pt x="145" y="467" on="0"/>
        <pt x="258" y="388" on="1"/>
        <pt x="291" y="412" on="0"/>
        <pt x="344" y="492" on="0"/>
        <pt x="344" y="578" on="0"/>
        <pt x="284" y="632" on="0"/>
        <pt x="201" y="632" on="0"/>
        <pt x="145" y="583" on="0"/>
      </contour>
    </TTGlyph>
    <TTGlyph name="ellipsis" xMin="70" yMin="-11" xMax="681" yMax="100">
      <contour>
        <pt x="70" y="21" on="0"/>
        <pt x="70" y="67" on="0"/>
        <pt x="102" y="100" on="0"/>
        <pt x="148" y="100" on="0"/>
        <pt x="181" y="67" on="0"/>
        <pt x="181" y="21" on="0"/>
        <pt x="148" y="-11" on="0"/>
        <pt x="102" y="-11" on="0"/>
      </contour>
      <contour>
        <pt x="320" y="21" on="0"/>
        <pt x="320" y="67" on="0"/>
        <pt x="352" y="100" on="0"/>
        <pt x="398" y="100" on="0"/>
        <pt x="431" y="67" on="0"/>
        <pt x="431" y="21" on="0"/>
        <pt x="398" y="-11" on="0"/>
        <pt x="352" y="-11" on="0"/>
      </contour>
      <contour>
        <pt x="570" y="21" on="0"/>
        <pt x="570" y="67" on="0"/>
        <pt x="602" y="100" on="0"/>
        <pt x="648" y="100" on="0"/>
        <pt x="681" y="67" on="0"/>
        <pt x="681" y="21" on="0"/>
        <pt x="648" y="-11" on="0"/>
        <pt x="602" y="-11" on="0"/>
      </contour>
    </TTGlyph>
    <TTGlyph name="emdash" xMin="0" yMin="201" xMax="1000" yMax="250">
      <contour>
        <pt x="0" y="250" on="1"/>
        <pt x="1000" y="250" on="1"/>
        <pt x="1000" y="201" on="1"/>
        <pt x="0" y="201" on="1"/>
      </contour>
    </TTGlyph>
    <TTGlyph name="endash" xMin="0" yMin="201" xMax="500" yMax="250">
      <contour>
        <pt x="0" y="250" on="1"/>
        <pt x="500" y="250" on="1"/>
        <pt x="500" y="201" on="1"/>
        <pt x="0" y="201" on="1"/>
      </contour>
    </TTGlyph>
    <TTGlyph name="equal" xMin="59" yMin="135" xMax="505" yMax="371">
      <contour>
        <pt x="505" y="371" on="1"/>
        <pt x="505" y="312" on="1"/>
        <pt x="59" y="312" on="1"/>
        <pt x="59" y="371" on="1"/>
      </contour>
      <contour>
        <pt x="505" y="194" on="1"/>
        <pt x="505" y="135" on="1"/>
        <pt x="59" y="135" on="1"/>
        <pt x="59" y="194" on="1"/>
      </contour>
    </TTGlyph>
    <TTGlyph name="eth" xMin="27" yMin="-13" xMax="471" yMax="683">
      <contour>
        <pt x="471" y="249" on="1"/>
        <pt x="471" y="181" on="0"/>
        <pt x="428" y="77" on="0"/>
        <pt x="392" y="47" on="1"/>
        <pt x="321" y="-12" on="0"/>
        <pt x="142" y="-12" on="0"/>
        <pt x="27" y="108" on="0"/>
        <pt x="27" y="213" on="1"/>
        <pt x="27" y="280" on="0"/>
        <pt x="73" y="383" on="0"/>
        <pt x="108" y="410" on="1"/>
        <pt x="176" y="464" on="0"/>
        <pt x="238" y="464" on="1"/>
        <pt x="314" y="464" on="0"/>
        <pt x="362" y="402" on="1"/>
        <pt x="366" y="405" on="1"/>
        <pt x="348" y="509" on="0"/>
        <pt x="274" y="580" on="1"/>
        <pt x="191" y="535" on="1"/>
        <pt x="147" y="557" on="1"/>
        <pt x="240" y="607" on="1"/>
        <pt x="193" y="639" on="0"/>
        <pt x="132" y="653" on="1"/>
        <pt x="144" y="683" on="1"/>
        <pt x="221" y="670" on="0"/>
        <pt x="282" y="630" on="1"/>
        <pt x="374" y="681" on="1"/>
        <pt x="418" y="658" on="1"/>
        <pt x="319" y="604" on="1"/>
        <pt x="393" y="542" on="0"/>
        <pt x="471" y="355" on="0"/>
      </contour>
      <contour>
        <pt x="248" y="22" on="1"/>
        <pt x="292" y="22" on="0"/>
        <pt x="323" y="56" on="1"/>
        <pt x="379" y="116" on="0"/>
        <pt x="379" y="315" on="0"/>
        <pt x="311" y="426" on="0"/>
        <pt x="234" y="426" on="1"/>
        <pt x="177" y="404" on="0"/>
        <pt x="118" y="293" on="0"/>
        <pt x="118" y="136" on="0"/>
        <pt x="182" y="22" on="0"/>
      </contour>
    </TTGlyph>
    <TTGlyph name="exclam" xMin="128" yMin="-9" xMax="237" yMax="653">
      <contour>
        <pt x="165" y="158" on="1"/>
        <pt x="135" y="653" on="1"/>
        <pt x="230" y="653" on="1"/>
        <pt x="200" y="158" on="1"/>
      </contour>
      <contour>
        <pt x="237" y="17" on="0"/>
        <pt x="203" y="-9" on="0"/>
        <pt x="162" y="-9" on="0"/>
        <pt x="128" y="16" on="0"/>
        <pt x="128" y="65" on="0"/>
        <pt x="160" y="96" on="0"/>
        <pt x="205" y="96" on="0"/>
        <pt x="237" y="64" on="0"/>
      </contour>
    </TTGlyph>
    <TTGlyph name="exclamdown" xMin="95" yMin="-196" xMax="204" yMax="466">
      <contour>
        <pt x="132" y="299" on="1"/>
        <pt x="167" y="299" on="1"/>
        <pt x="197" y="-196" on="1"/>
        <pt x="102" y="-196" on="1"/>
      </contour>
      <contour>
        <pt x="170" y="466" on="0"/>
        <pt x="204" y="440" on="0"/>
        <pt x="204" y="393" on="0"/>
        <pt x="172" y="361" on="0"/>
        <pt x="127" y="361" on="0"/>
        <pt x="95" y="392" on="0"/>
        <pt x="95" y="441" on="0"/>
        <pt x="129" y="466" on="0"/>
      </contour>
    </TTGlyph>
    <TTGlyph name="f" xMin="21" yMin="0" xMax="373" yMax="692">
      <contour>
        <pt x="308" y="452" on="1"/>
        <pt x="308" y="416" on="1"/>
        <pt x="187" y="416" on="1"/>
        <pt x="187" y="0" on="1"/>
        <pt x="103" y="0" on="1"/>
        <pt x="103" y="416" on="1"/>
        <pt x="21" y="432" on="1"/>
        <pt x="21" y="452" on="1"/>
        <pt x="104" y="452" on="1"/>
        <pt x="110" y="558" on="0"/>
        <pt x="211" y="692" on="0"/>
        <pt x="297" y="692" on="1"/>
        <pt x="325" y="692" on="0"/>
        <pt x="373" y="680" on="1"/>
        <pt x="363" y="615" on="1"/>
        <pt x="341" y="627" on="0"/>
        <pt x="272" y="645" on="0"/>
        <pt x="254" y="645" on="1"/>
        <pt x="220" y="628" on="0"/>
        <pt x="189" y="510" on="0"/>
        <pt x="187" y="452" on="1"/>
      </contour>
    </TTGlyph>
    <TTGlyph name="fi" xMin="21" yMin="0" xMax="501" yMax="692">
      <contour>
        <pt x="308" y="452" on="1"/>
        <pt x="308" y="416" on="1"/>
        <pt x="187" y="416" on="1"/>
        <pt x="187" y="0" on="1"/>
        <pt x="103" y="0" on="1"/>
        <pt x="103" y="416" on="1"/>
        <pt x="21" y="432" on="1"/>
        <pt x="21" y="452" on="1"/>
        <pt x="104" y="452" on="1"/>
        <pt x="110" y="558" on="0"/>
        <pt x="211" y="692" on="0"/>
        <pt x="297" y="692" on="1"/>
        <pt x="325" y="692" on="0"/>
        <pt x="373" y="680" on="1"/>
        <pt x="363" y="615" on="1"/>
        <pt x="341" y="627" on="0"/>
        <pt x="272" y="645" on="0"/>
        <pt x="254" y="645" on="1"/>
        <pt x="220" y="628" on="0"/>
        <pt x="189" y="510" on="0"/>
        <pt x="187" y="452" on="1"/>
      </contour>
      <contour>
        <pt x="408" y="0" on="1"/>
        <pt x="408" y="452" on="1"/>
        <pt x="491" y="452" on="1"/>
        <pt x="491" y="0" on="1"/>
      </contour>
      <contour>
        <pt x="398" y="613" on="0"/>
        <pt x="427" y="643" on="0"/>
        <pt x="470" y="643" on="0"/>
        <pt x="501" y="613" on="0"/>
        <pt x="501" y="571" on="0"/>
        <pt x="470" y="539" on="0"/>
        <pt x="428" y="539" on="0"/>
        <pt x="398" y="570" on="0"/>
      </contour>
    </TTGlyph>
    <TTGlyph name="five" xMin="20" yMin="-108" xMax="426" yMax="562">
      <contour>
        <pt x="20" y="-84" on="1"/>
        <pt x="40" y="-20" on="1"/>
        <pt x="105" y="-51" on="0"/>
        <pt x="180" y="-66" on="1"/>
        <pt x="244" y="-66" on="0"/>
        <pt x="330" y="4" on="0"/>
        <pt x="330" y="138" on="0"/>
        <pt x="217" y="236" on="0"/>
        <pt x="95" y="236" on="1"/>
        <pt x="65" y="236" on="1"/>
        <pt x="81" y="562" on="1"/>
        <pt x="412" y="562" on="1"/>
        <pt x="402" y="495" on="1"/>
        <pt x="159" y="510" on="1"/>
        <pt x="147" y="261" on="1"/>
        <pt x="285" y="255" on="0"/>
        <pt x="426" y="149" on="0"/>
        <pt x="426" y="73" on="1"/>
        <pt x="426" y="24" on="0"/>
        <pt x="379" y="-50" on="0"/>
        <pt x="342" y="-70" on="1"/>
        <pt x="269" y="-108" on="0"/>
        <pt x="95" y="-108" on="0"/>
      </contour>
    </TTGlyph>
    <TTGlyph name="fl" xMin="21" yMin="0" xMax="457" yMax="692">
      <contour>
        <pt x="457" y="0" on="1"/>
        <pt x="373" y="0" on="1"/>
        <pt x="373" y="625" on="1"/>
        <pt x="317" y="645" on="0"/>
        <pt x="254" y="645" on="1"/>
        <pt x="220" y="628" on="0"/>
        <pt x="189" y="510" on="0"/>
        <pt x="187" y="452" on="1"/>
        <pt x="308" y="452" on="1"/>
        <pt x="308" y="416" on="1"/>
        <pt x="187" y="416" on="1"/>
        <pt x="187" y="0" on="1"/>
        <pt x="103" y="0" on="1"/>
        <pt x="103" y="416" on="1"/>
        <pt x="21" y="432" on="1"/>
        <pt x="21" y="452" on="1"/>
        <pt x="104" y="452" on="1"/>
        <pt x="110" y="558" on="0"/>
        <pt x="211" y="692" on="0"/>
        <pt x="297" y="692" on="1"/>
        <pt x="340" y="692" on="0"/>
        <pt x="373" y="670" on="1"/>
        <pt x="457" y="683" on="1"/>
      </contour>
    </TTGlyph>
    <TTGlyph name="florin" xMin="-3" yMin="-189" xMax="489" yMax="675">
      <contour>
        <pt x="102" y="398" on="1"/>
        <pt x="210" y="398" on="1"/>
        <pt x="216" y="453" on="1"/>
        <pt x="238" y="675" on="0"/>
        <pt x="413" y="675" on="1"/>
        <pt x="450" y="675" on="0"/>
        <pt x="489" y="663" on="1"/>
        <pt x="479" y="598" on="1"/>
        <pt x="417" y="621" on="0"/>
        <pt x="375" y="629" on="1"/>
        <pt x="340" y="615" on="0"/>
        <pt x="311" y="542" on="0"/>
        <pt x="300" y="453" on="1"/>
        <pt x="293" y="398" on="1"/>
        <pt x="425" y="398" on="1"/>
        <pt x="425" y="360" on="1"/>
        <pt x="288" y="360" on="1"/>
        <pt x="242" y="6" on="1"/>
        <pt x="228" y="-99" on="0"/>
        <pt x="143" y="-189" on="0"/>
        <pt x="71" y="-189" on="1"/>
        <pt x="38" y="-189" on="0"/>
        <pt x="-3" y="-174" on="1"/>
        <pt x="9" y="-135" on="1"/>
        <pt x="43" y="-143" on="0"/>
        <pt x="74" y="-143" on="1"/>
        <pt x="153" y="-143" on="0"/>
        <pt x="165" y="-33" on="1"/>
        <pt x="206" y="360" on="1"/>
        <pt x="102" y="360" on="1"/>
      </contour>
    </TTGlyph>
    <TTGlyph name="four" xMin="-1" yMin="-100" xMax="484" yMax="562">
      <contour>
        <pt x="484" y="132" on="1"/>
        <pt x="484" y="69" on="1"/>
        <pt x="370" y="69" on="1"/>
        <pt x="370" y="-100" on="1"/>
        <pt x="286" y="-100" on="1"/>
        <pt x="286" y="69" on="1"/>
        <pt x="-1" y="69" on="1"/>
        <pt x="-1" y="112" on="1"/>
        <pt x="286" y="562" on="1"/>
        <pt x="370" y="562" on="1"/>
        <pt x="370" y="132" on="1"/>
      </contour>
      <contour>
        <pt x="286" y="132" on="1"/>
        <pt x="286" y="499" on="1"/>
        <pt x="57" y="132" on="1"/>
      </contour>
    </TTGlyph>
    <TTGlyph name="fraction" xMin="200" yMin="-14" xMax="599" yMax="677">
      <contour>
        <pt x="599" y="677" on="1"/>
        <pt x="249" y="-14" on="1"/>
        <pt x="200" y="-14" on="1"/>
        <pt x="553" y="677" on="1"/>
      </contour>
    </TTGlyph>
    <TTGlyph name="g" xMin="26" yMin="-222" xMax="449" yMax="464">
      <contour>
        <pt x="132" y="71" on="0"/>
        <pt x="189" y="57" on="0"/>
        <pt x="351" y="57" on="0"/>
        <pt x="449" y="21" on="0"/>
        <pt x="449" y="-29" on="1"/>
        <pt x="449" y="-103" on="0"/>
        <pt x="304" y="-222" on="0"/>
        <pt x="199" y="-222" on="1"/>
        <pt x="123" y="-222" on="0"/>
        <pt x="26" y="-165" on="0"/>
        <pt x="26" y="-112" on="1"/>
        <pt x="26" y="-37" on="0"/>
        <pt x="108" y="-1" on="1"/>
        <pt x="62" y="16" on="0"/>
        <pt x="62" y="109" on="0"/>
        <pt x="134" y="164" on="1"/>
        <pt x="59" y="203" on="0"/>
        <pt x="59" y="380" on="0"/>
        <pt x="170" y="464" on="0"/>
        <pt x="239" y="464" on="1"/>
        <pt x="288" y="464" on="0"/>
        <pt x="333" y="437" on="1"/>
        <pt x="421" y="462" on="1"/>
        <pt x="441" y="419" on="1"/>
        <pt x="379" y="388" on="1"/>
        <pt x="398" y="355" on="0"/>
        <pt x="398" y="267" on="0"/>
        <pt x="363" y="200" on="0"/>
        <pt x="335" y="182" on="1"/>
        <pt x="279" y="146" on="0"/>
        <pt x="214" y="146" on="1"/>
        <pt x="204" y="146" on="0"/>
        <pt x="186" y="148" on="1"/>
        <pt x="169" y="143" on="0"/>
        <pt x="132" y="109" on="0"/>
      </contour>
      <contour>
        <pt x="319" y="354" on="0"/>
        <pt x="264" y="431" on="0"/>
        <pt x="183" y="431" on="0"/>
        <pt x="135" y="361" on="0"/>
        <pt x="135" y="250" on="0"/>
        <pt x="189" y="177" on="0"/>
        <pt x="227" y="177" on="1"/>
        <pt x="319" y="177" on="0"/>
        <pt x="319" y="302" on="1"/>
      </contour>
      <contour>
        <pt x="215" y="-176" on="1"/>
        <pt x="298" y="-176" on="0"/>
        <pt x="414" y="-84" on="0"/>
        <pt x="414" y="-38" on="1"/>
        <pt x="363" y="-17" on="0"/>
        <pt x="180" y="-17" on="0"/>
        <pt x="145" y="-11" on="1"/>
        <pt x="101" y="-48" on="0"/>
        <pt x="101" y="-90" on="1"/>
        <pt x="101" y="-176" on="0"/>
      </contour>
    </TTGlyph>
    <TTGlyph name="germandbls" xMin="20" yMin="-12" xMax="553" yMax="683">
      <contour>
        <pt x="466" y="180" on="1"/>
        <pt x="466" y="215" on="0"/>
        <pt x="436" y="274" on="0"/>
        <pt x="392" y="310" on="0"/>
        <pt x="348" y="339" on="0"/>
        <pt x="318" y="365" on="0"/>
        <pt x="318" y="394" on="0"/>
        <pt x="364" y="454" on="0"/>
        <pt x="409" y="523" on="0"/>
        <pt x="409" y="577" on="0"/>
        <pt x="364" y="624" on="0"/>
        <pt x="329" y="635" on="1"/>
        <pt x="277" y="635" on="0"/>
        <pt x="185" y="607" on="1"/>
        <pt x="185" y="0" on="1"/>
        <pt x="103" y="0" on="1"/>
        <pt x="103" y="416" on="1"/>
        <pt x="20" y="432" on="1"/>
        <pt x="20" y="452" on="1"/>
        <pt x="104" y="452" on="1"/>
        <pt x="104" y="655" on="1"/>
        <pt x="197" y="683" on="0"/>
        <pt x="402" y="683" on="0"/>
        <pt x="497" y="616" on="0"/>
        <pt x="497" y="563" on="1"/>
        <pt x="497" y="533" on="0"/>
        <pt x="456" y="464" on="0"/>
        <pt x="415" y="422" on="0"/>
        <pt x="375" y="386" on="1"/>
        <pt x="553" y="294" on="0"/>
        <pt x="553" y="180" on="1"/>
        <pt x="553" y="86" on="0"/>
        <pt x="424" y="-12" on="0"/>
        <pt x="281" y="-12" on="0"/>
        <pt x="208" y="14" on="1"/>
        <pt x="231" y="78" on="1"/>
        <pt x="291" y="48" on="0"/>
        <pt x="343" y="30" on="1"/>
        <pt x="395" y="38" on="0"/>
        <pt x="466" y="112" on="0"/>
      </contour>
    </TTGlyph>
    <TTGlyph name="grave" xMin="14" yMin="507" xMax="242" yMax="695">
      <contour>
        <pt x="242" y="507" on="1"/>
        <pt x="202" y="507" on="1"/>
        <pt x="14" y="645" on="1"/>
        <pt x="70" y="695" on="1"/>
      </contour>
    </TTGlyph>
    <TTGlyph name="greater" xMin="57" yMin="22" xMax="507" yMax="484">
      <contour>
        <pt x="57" y="82" on="1"/>
        <pt x="434" y="253" on="1"/>
        <pt x="57" y="424" on="1"/>
        <pt x="57" y="484" on="1"/>
        <pt x="507" y="280" on="1"/>
        <pt x="507" y="226" on="1"/>
        <pt x="57" y="22" on="1"/>
      </contour>
    </TTGlyph>
    <TTGlyph name="greaterequal" xMin="57" yMin="0" xMax="507" yMax="560">
      <contour>
        <pt x="57" y="158" on="1"/>
        <pt x="434" y="329" on="1"/>
        <pt x="57" y="500" on="1"/>
        <pt x="57" y="560" on="1"/>
        <pt x="507" y="356" on="1"/>
        <pt x="507" y="302" on="1"/>
        <pt x="57" y="98" on="1"/>
      </contour>
      <contour>
        <pt x="505" y="0" on="1"/>
        <pt x="59" y="0" on="1"/>
        <pt x="59" y="58" on="1"/>
        <pt x="505" y="58" on="1"/>
      </contour>
    </TTGlyph>
    <TTGlyph name="guillemotleft" xMin="42" yMin="33" xMax="456" yMax="416">
      <contour>
        <pt x="42" y="227" on="1"/>
        <pt x="253" y="416" on="1"/>
        <pt x="263" y="416" on="0"/>
        <pt x="263" y="405" on="1"/>
        <pt x="135" y="225" on="1"/>
        <pt x="264" y="44" on="1"/>
        <pt x="264" y="33" on="0"/>
        <pt x="253" y="33" on="1"/>
      </contour>
      <contour>
        <pt x="234" y="227" on="1"/>
        <pt x="445" y="416" on="1"/>
        <pt x="455" y="416" on="0"/>
        <pt x="455" y="405" on="1"/>
        <pt x="327" y="225" on="1"/>
        <pt x="456" y="44" on="1"/>
        <pt x="456" y="33" on="0"/>
        <pt x="445" y="33" on="1"/>
      </contour>
    </TTGlyph>
    <TTGlyph name="guillemotright" xMin="48" yMin="32" xMax="460" yMax="415">
      <contour>
        <pt x="460" y="221" on="1"/>
        <pt x="249" y="32" on="1"/>
        <pt x="239" y="32" on="0"/>
        <pt x="239" y="43" on="1"/>
        <pt x="367" y="223" on="1"/>
        <pt x="238" y="404" on="1"/>
        <pt x="238" y="415" on="0"/>
        <pt x="249" y="415" on="1"/>
      </contour>
      <contour>
        <pt x="270" y="221" on="1"/>
        <pt x="59" y="32" on="1"/>
        <pt x="49" y="32" on="0"/>
        <pt x="49" y="43" on="1"/>
        <pt x="177" y="223" on="1"/>
        <pt x="48" y="404" on="1"/>
        <pt x="48" y="415" on="0"/>
        <pt x="59" y="415" on="1"/>
      </contour>
    </TTGlyph>
    <TTGlyph name="guilsinglleft" xMin="63" yMin="33" xMax="285" yMax="416">
      <contour>
        <pt x="63" y="227" on="1"/>
        <pt x="274" y="416" on="1"/>
        <pt x="284" y="416" on="0"/>
        <pt x="284" y="405" on="1"/>
        <pt x="156" y="225" on="1"/>
        <pt x="285" y="44" on="1"/>
        <pt x="285" y="33" on="0"/>
        <pt x="274" y="33" on="1"/>
      </contour>
    </TTGlyph>
    <TTGlyph name="guilsinglright" xMin="48" yMin="32" xMax="270" yMax="415">
      <contour>
        <pt x="270" y="221" on="1"/>
        <pt x="59" y="32" on="1"/>
        <pt x="49" y="32" on="0"/>
        <pt x="49" y="43" on="1"/>
        <pt x="177" y="223" on="1"/>
        <pt x="48" y="404" on="1"/>
        <pt x="48" y="415" on="0"/>
        <pt x="59" y="415" on="1"/>
      </contour>
    </TTGlyph>
    <TTGlyph name="h" xMin="76" yMin="0" xMax="432" yMax="683">
      <contour>
        <pt x="314" y="462" on="1"/>
        <pt x="360" y="462" on="0"/>
        <pt x="432" y="394" on="0"/>
        <pt x="432" y="311" on="1"/>
        <pt x="432" y="0" on="1"/>
        <pt x="348" y="0" on="1"/>
        <pt x="348" y="301" on="1"/>
        <pt x="348" y="350" on="0"/>
        <pt x="313" y="399" on="0"/>
        <pt x="214" y="399" on="0"/>
        <pt x="160" y="346" on="1"/>
        <pt x="160" y="0" on="1"/>
        <pt x="76" y="0" on="1"/>
        <pt x="76" y="683" on="1"/>
        <pt x="157" y="683" on="1"/>
        <pt x="157" y="388" on="1"/>
        <pt x="236" y="462" on="0"/>
      </contour>
    </TTGlyph>
    <TTGlyph name="hungarumlaut" xMin="-5" yMin="507" xMax="378" yMax="695">
      <contour>
        <pt x="35" y="507" on="1"/>
        <pt x="-5" y="507" on="1"/>
        <pt x="167" y="695" on="1"/>
        <pt x="223" y="645" on="1"/>
      </contour>
      <contour>
        <pt x="190" y="507" on="1"/>
        <pt x="150" y="507" on="1"/>
        <pt x="322" y="695" on="1"/>
        <pt x="378" y="645" on="1"/>
      </contour>
    </TTGlyph>
    <TTGlyph name="hyphen" xMin="39" yMin="194" xMax="285" yMax="257">
      <contour>
        <pt x="39" y="257" on="1"/>
        <pt x="285" y="257" on="1"/>
        <pt x="285" y="194" on="1"/>
        <pt x="39" y="194" on="1"/>
      </contour>
    </TTGlyph>
    <TTGlyph name="i" xMin="65" yMin="0" xMax="168" yMax="643">
      <contour>
        <pt x="75" y="0" on="1"/>
        <pt x="75" y="452" on="1"/>
        <pt x="158" y="452" on="1"/>
        <pt x="158" y="0" on="1"/>
      </contour>
      <contour>
        <pt x="65" y="613" on="0"/>
        <pt x="94" y="643" on="0"/>
        <pt x="137" y="643" on="0"/>
        <pt x="168" y="613" on="0"/>
        <pt x="168" y="571" on="0"/>
        <pt x="137" y="539" on="0"/>
        <pt x="95" y="539" on="0"/>
        <pt x="65" y="570" on="0"/>
      </contour>
    </TTGlyph>
    <TTGlyph name="iacute" xMin="65" yMin="0" xMax="293" yMax="695">
      <contour>
        <pt x="105" y="507" on="1"/>
        <pt x="65" y="507" on="1"/>
        <pt x="237" y="695" on="1"/>
        <pt x="293" y="645" on="1"/>
      </contour>
      <contour>
        <pt x="75" y="0" on="1"/>
        <pt x="75" y="452" on="1"/>
        <pt x="158" y="452" on="1"/>
        <pt x="158" y="0" on="1"/>
      </contour>
    </TTGlyph>
    <TTGlyph name="icircumflex" xMin="-33" yMin="0" xMax="266" yMax="674">
      <contour>
        <pt x="75" y="0" on="1"/>
        <pt x="75" y="452" on="1"/>
        <pt x="158" y="452" on="1"/>
        <pt x="158" y="0" on="1"/>
      </contour>
      <contour>
        <pt x="140" y="674" on="1"/>
        <pt x="266" y="507" on="1"/>
        <pt x="226" y="507" on="1"/>
        <pt x="116" y="600" on="1"/>
        <pt x="7" y="507" on="1"/>
        <pt x="-33" y="507" on="1"/>
        <pt x="92" y="674" on="1"/>
      </contour>
    </TTGlyph>
    <TTGlyph name="idieresis" xMin="-32" yMin="0" xMax="265" yMax="641">
      <contour>
        <pt x="75" y="0" on="1"/>
        <pt x="75" y="452" on="1"/>
        <pt x="158" y="452" on="1"/>
        <pt x="158" y="0" on="1"/>
      </contour>
      <contour>
        <pt x="165" y="570" on="0"/>
        <pt x="165" y="612" on="0"/>
        <pt x="194" y="641" on="0"/>
        <pt x="236" y="641" on="0"/>
        <pt x="265" y="612" on="0"/>
        <pt x="265" y="570" on="0"/>
        <pt x="236" y="541" on="0"/>
        <pt x="194" y="541" on="0"/>
      </contour>
      <contour>
        <pt x="52" y="628" on="1"/>
        <pt x="66" y="614" on="0"/>
        <pt x="67" y="598" on="0"/>
        <pt x="68" y="595" on="1"/>
        <pt x="68" y="591" on="1"/>
        <pt x="68" y="585" on="0"/>
        <pt x="68" y="581" on="1"/>
        <pt x="66" y="571" on="0"/>
        <pt x="61" y="566" on="1"/>
        <pt x="56" y="555" on="0"/>
        <pt x="52" y="554" on="1"/>
        <pt x="39" y="541" on="0"/>
        <pt x="5" y="541" on="0"/>
        <pt x="-5" y="547" on="0"/>
        <pt x="-7" y="547" on="1"/>
        <pt x="-9" y="549" on="0"/>
        <pt x="-13" y="551" on="1"/>
        <pt x="-20" y="557" on="0"/>
        <pt x="-25" y="566" on="1"/>
        <pt x="-32" y="571" on="0"/>
        <pt x="-32" y="600" on="0"/>
        <pt x="-29" y="609" on="1"/>
        <pt x="-17" y="641" on="0"/>
        <pt x="18" y="641" on="1"/>
        <pt x="22" y="641" on="1"/>
        <pt x="25" y="640" on="0"/>
        <pt x="30" y="640" on="0"/>
        <pt x="45" y="633" on="0"/>
      </contour>
    </TTGlyph>
    <TTGlyph name="igrave" xMin="-31" yMin="0" xMax="197" yMax="695">
      <contour>
        <pt x="197" y="507" on="1"/>
        <pt x="157" y="507" on="1"/>
        <pt x="-31" y="645" on="1"/>
        <pt x="25" y="695" on="1"/>
      </contour>
      <contour>
        <pt x="75" y="0" on="1"/>
        <pt x="75" y="452" on="1"/>
        <pt x="158" y="452" on="1"/>
        <pt x="158" y="0" on="1"/>
      </contour>
    </TTGlyph>
    <TTGlyph name="infinity" xMin="50" yMin="55" xMax="819" yMax="451">
      <contour>
        <pt x="495" y="376" on="1"/>
        <pt x="554" y="451" on="0"/>
        <pt x="729" y="451" on="0"/>
        <pt x="819" y="333" on="0"/>
        <pt x="819" y="173" on="0"/>
        <pt x="729" y="55" on="0"/>
        <pt x="648" y="55" on="1"/>
        <pt x="552" y="55" on="0"/>
        <pt x="494" y="129" on="1"/>
        <pt x="434" y="204" on="1"/>
        <pt x="375" y="129" on="1"/>
        <pt x="317" y="55" on="0"/>
        <pt x="221" y="55" on="1"/>
        <pt x="140" y="55" on="0"/>
        <pt x="50" y="173" on="0"/>
        <pt x="50" y="333" on="0"/>
        <pt x="140" y="451" on="0"/>
        <pt x="315" y="451" on="0"/>
        <pt x="374" y="376" on="1"/>
        <pt x="434" y="301" on="1"/>
      </contour>
      <contour>
        <pt x="328" y="339" on="1"/>
        <pt x="283" y="393" on="0"/>
        <pt x="168" y="393" on="0"/>
        <pt x="108" y="310" on="0"/>
        <pt x="108" y="196" on="0"/>
        <pt x="168" y="113" on="0"/>
        <pt x="288" y="113" on="0"/>
        <pt x="329" y="165" on="1"/>
        <pt x="400" y="253" on="1"/>
      </contour>
      <contour>
        <pt x="540" y="165" on="1"/>
        <pt x="581" y="113" on="0"/>
        <pt x="701" y="113" on="0"/>
        <pt x="761" y="196" on="0"/>
        <pt x="761" y="310" on="0"/>
        <pt x="701" y="393" on="0"/>
        <pt x="586" y="393" on="0"/>
        <pt x="541" y="339" on="1"/>
        <pt x="469" y="253" on="1"/>
      </contour>
    </TTGlyph>
    <TTGlyph name="integral" xMin="-30" yMin="-113" xMax="369" yMax="677">
      <contour>
        <pt x="212" y="521" on="1"/>
        <pt x="212" y="92" on="1"/>
        <pt x="212" y="-12" on="0"/>
        <pt x="120" y="-113" on="0"/>
        <pt x="46" y="-113" on="1"/>
        <pt x="13" y="-113" on="0"/>
        <pt x="-30" y="-98" on="1"/>
        <pt x="-22" y="-59" on="1"/>
        <pt x="12" y="-67" on="0"/>
        <pt x="44" y="-67" on="1"/>
        <pt x="90" y="-67" on="0"/>
        <pt x="127" y="-1" on="0"/>
        <pt x="127" y="43" on="1"/>
        <pt x="127" y="472" on="1"/>
        <pt x="127" y="576" on="0"/>
        <pt x="219" y="677" on="0"/>
        <pt x="293" y="677" on="1"/>
        <pt x="326" y="677" on="0"/>
        <pt x="369" y="662" on="1"/>
        <pt x="361" y="623" on="1"/>
        <pt x="327" y="631" on="0"/>
        <pt x="295" y="631" on="1"/>
        <pt x="249" y="631" on="0"/>
        <pt x="212" y="565" on="0"/>
      </contour>
    </TTGlyph>
    <TTGlyph name="j" xMin="-82" yMin="-223" xMax="169" yMax="643">
      <contour>
        <pt x="169" y="569" on="0"/>
        <pt x="139" y="539" on="0"/>
        <pt x="96" y="539" on="0"/>
        <pt x="66" y="569" on="0"/>
        <pt x="66" y="613" on="0"/>
        <pt x="96" y="643" on="0"/>
        <pt x="139" y="643" on="0"/>
        <pt x="169" y="613" on="0"/>
      </contour>
      <contour>
        <pt x="75" y="452" on="1"/>
        <pt x="160" y="452" on="1"/>
        <pt x="160" y="-18" on="1"/>
        <pt x="160" y="-122" on="0"/>
        <pt x="68" y="-223" on="0"/>
        <pt x="-6" y="-223" on="1"/>
        <pt x="-39" y="-223" on="0"/>
        <pt x="-82" y="-208" on="1"/>
        <pt x="-74" y="-169" on="1"/>
        <pt x="-40" y="-177" on="0"/>
        <pt x="-8" y="-177" on="1"/>
        <pt x="38" y="-177" on="0"/>
        <pt x="75" y="-111" on="0"/>
        <pt x="75" y="-67" on="1"/>
      </contour>
    </TTGlyph>
    <TTGlyph name="k" xMin="75" yMin="-13" xMax="471" yMax="683">
      <contour>
        <pt x="159" y="0" on="1"/>
        <pt x="75" y="0" on="1"/>
        <pt x="75" y="683" on="1"/>
        <pt x="159" y="683" on="1"/>
        <pt x="159" y="260" on="1"/>
        <pt x="390" y="452" on="1"/>
        <pt x="456" y="452" on="1"/>
        <pt x="221" y="274" on="1"/>
        <pt x="471" y="0" on="1"/>
        <pt x="371" y="-13" on="1"/>
        <pt x="159" y="251" on="1"/>
      </contour>
    </TTGlyph>
    <TTGlyph name="l" xMin="75" yMin="0" xMax="159" yMax="683">
      <contour>
        <pt x="159" y="683" on="1"/>
        <pt x="159" y="0" on="1"/>
        <pt x="75" y="0" on="1"/>
        <pt x="75" y="683" on="1"/>
      </contour>
    </TTGlyph>
    <TTGlyph name="less" xMin="57" yMin="22" xMax="507" yMax="484">
      <contour>
        <pt x="507" y="82" on="1"/>
        <pt x="507" y="22" on="1"/>
        <pt x="57" y="226" on="1"/>
        <pt x="57" y="280" on="1"/>
        <pt x="507" y="484" on="1"/>
        <pt x="507" y="424" on="1"/>
        <pt x="130" y="253" on="1"/>
      </contour>
    </TTGlyph>
    <TTGlyph name="lessequal" xMin="57" yMin="0" xMax="507" yMax="560">
      <contour>
        <pt x="507" y="158" on="1"/>
        <pt x="507" y="98" on="1"/>
        <pt x="57" y="302" on="1"/>
        <pt x="57" y="356" on="1"/>
        <pt x="507" y="560" on="1"/>
        <pt x="507" y="500" on="1"/>
        <pt x="130" y="329" on="1"/>
      </contour>
      <contour>
        <pt x="505" y="0" on="1"/>
        <pt x="59" y="0" on="1"/>
        <pt x="59" y="58" on="1"/>
        <pt x="505" y="58" on="1"/>
      </contour>
    </TTGlyph>
    <TTGlyph name="logicalnot" xMin="59" yMin="124" xMax="505" yMax="370">
      <contour>
        <pt x="447" y="124" on="1"/>
        <pt x="447" y="312" on="1"/>
        <pt x="59" y="312" on="1"/>
        <pt x="59" y="370" on="1"/>
        <pt x="505" y="370" on="1"/>
        <pt x="505" y="124" on="1"/>
      </contour>
    </TTGlyph>
    <TTGlyph name="lozenge" xMin="50" yMin="-200" xMax="539" yMax="678">
      <contour>
        <pt x="302" y="678" on="1"/>
        <pt x="539" y="239" on="1"/>
        <pt x="302" y="-200" on="1"/>
        <pt x="287" y="-200" on="1"/>
        <pt x="50" y="239" on="1"/>
        <pt x="287" y="678" on="1"/>
      </contour>
      <contour>
        <pt x="294" y="593" on="1"/>
        <pt x="107" y="239" on="1"/>
        <pt x="294" y="-115" on="1"/>
        <pt x="482" y="239" on="1"/>
      </contour>
    </TTGlyph>
    <TTGlyph name="lslash" xMin="10" yMin="0" xMax="224" yMax="683">
      <contour>
        <pt x="159" y="683" on="1"/>
        <pt x="159" y="449" on="1"/>
        <pt x="224" y="493" on="1"/>
        <pt x="224" y="444" on="1"/>
        <pt x="159" y="400" on="1"/>
        <pt x="159" y="0" on="1"/>
        <pt x="75" y="0" on="1"/>
        <pt x="75" y="343" on="1"/>
        <pt x="10" y="300" on="1"/>
        <pt x="10" y="349" on="1"/>
        <pt x="75" y="392" on="1"/>
        <pt x="75" y="683" on="1"/>
      </contour>
    </TTGlyph>
    <TTGlyph name="m" xMin="32" yMin="0" xMax="706" yMax="464">
      <contour>
        <pt x="588" y="464" on="1"/>
        <pt x="706" y="464" on="0"/>
        <pt x="706" y="285" on="1"/>
        <pt x="706" y="0" on="1"/>
        <pt x="622" y="0" on="1"/>
        <pt x="622" y="293" on="1"/>
        <pt x="622" y="377" on="0"/>
        <pt x="590" y="395" on="1"/>
        <pt x="574" y="404" on="0"/>
        <pt x="517" y="404" on="0"/>
        <pt x="452" y="369" on="0"/>
        <pt x="437" y="347" on="1"/>
        <pt x="437" y="0" on="1"/>
        <pt x="352" y="0" on="1"/>
        <pt x="352" y="298" on="1"/>
        <pt x="352" y="351" on="0"/>
        <pt x="320" y="404" on="0"/>
        <pt x="258" y="404" on="0"/>
        <pt x="201" y="376" on="0"/>
        <pt x="167" y="348" on="0"/>
        <pt x="167" y="345" on="1"/>
        <pt x="167" y="0" on="1"/>
        <pt x="83" y="0" on="1"/>
        <pt x="83" y="314" on="1"/>
        <pt x="83" y="382" on="0"/>
        <pt x="32" y="423" on="1"/>
        <pt x="83" y="461" on="1"/>
        <pt x="163" y="388" on="1"/>
        <pt x="210" y="427" on="0"/>
        <pt x="280" y="464" on="0"/>
        <pt x="318" y="464" on="1"/>
        <pt x="405" y="464" on="0"/>
        <pt x="426" y="383" on="1"/>
        <pt x="461" y="423" on="0"/>
        <pt x="551" y="464" on="0"/>
      </contour>
    </TTGlyph>
    <TTGlyph name="macron" xMin="11" yMin="547" xMax="322" yMax="601">
      <contour>
        <pt x="11" y="601" on="1"/>
        <pt x="322" y="601" on="1"/>
        <pt x="322" y="547" on="1"/>
        <pt x="11" y="547" on="1"/>
      </contour>
    </TTGlyph>
    <TTGlyph name="minus" xMin="59" yMin="224" xMax="505" yMax="282">
      <contour>
        <pt x="505" y="224" on="1"/>
        <pt x="59" y="224" on="1"/>
        <pt x="59" y="282" on="1"/>
        <pt x="505" y="282" on="1"/>
      </contour>
    </TTGlyph>
    <TTGlyph name="mu" xMin="79" yMin="-210" xMax="457" yMax="452">
      <contour>
        <pt x="405" y="452" on="1"/>
        <pt x="405" y="134" on="1"/>
        <pt x="405" y="65" on="0"/>
        <pt x="457" y="25" on="1"/>
        <pt x="405" y="-12" on="1"/>
        <pt x="324" y="61" on="1"/>
        <pt x="292" y="22" on="0"/>
        <pt x="238" y="-13" on="0"/>
        <pt x="197" y="-13" on="1"/>
        <pt x="143" y="-13" on="0"/>
        <pt x="111" y="44" on="1"/>
        <pt x="107" y="44" on="1"/>
        <pt x="110" y="-4" on="0"/>
        <pt x="134" y="-113" on="0"/>
        <pt x="144" y="-144" on="1"/>
        <pt x="155" y="-174" on="1"/>
        <pt x="130" y="-210" on="0"/>
        <pt x="79" y="-210" on="1"/>
        <pt x="79" y="452" on="1"/>
        <pt x="164" y="452" on="1"/>
        <pt x="164" y="132" on="1"/>
        <pt x="164" y="84" on="0"/>
        <pt x="199" y="35" on="0"/>
        <pt x="241" y="35" on="1"/>
        <pt x="262" y="35" on="0"/>
        <pt x="307" y="75" on="0"/>
        <pt x="320" y="99" on="1"/>
        <pt x="320" y="452" on="1"/>
      </contour>
    </TTGlyph>
    <TTGlyph name="multiply" xMin="66" yMin="36" xMax="499" yMax="469">
      <contour>
        <pt x="240" y="253" on="1"/>
        <pt x="66" y="427" on="1"/>
        <pt x="108" y="469" on="1"/>
        <pt x="282" y="295" on="1"/>
        <pt x="457" y="469" on="1"/>
        <pt x="499" y="427" on="1"/>
        <pt x="325" y="253" on="1"/>
        <pt x="499" y="78" on="1"/>
        <pt x="457" y="36" on="1"/>
        <pt x="282" y="210" on="1"/>
        <pt x="108" y="36" on="1"/>
        <pt x="66" y="78" on="1"/>
      </contour>
    </TTGlyph>
    <TTGlyph name="n" xMin="29" yMin="0" xMax="426" yMax="464">
      <contour>
        <pt x="204" y="428" on="0"/>
        <pt x="267" y="464" on="0"/>
        <pt x="353" y="464" on="0"/>
        <pt x="426" y="396" on="0"/>
        <pt x="426" y="313" on="1"/>
        <pt x="426" y="0" on="1"/>
        <pt x="341" y="0" on="1"/>
        <pt x="341" y="303" on="1"/>
        <pt x="341" y="352" on="0"/>
        <pt x="306" y="401" on="0"/>
        <pt x="221" y="401" on="0"/>
        <pt x="165" y="345" on="1"/>
        <pt x="165" y="0" on="1"/>
        <pt x="80" y="0" on="1"/>
        <pt x="80" y="314" on="1"/>
        <pt x="80" y="382" on="0"/>
        <pt x="29" y="423" on="1"/>
        <pt x="80" y="461" on="1"/>
        <pt x="162" y="388" on="1"/>
      </contour>
    </TTGlyph>
    <TTGlyph name="nine" xMin="33" yMin="-107" xMax="452" yMax="580">
      <contour>
        <pt x="357" y="254" on="1"/>
        <pt x="305" y="186" on="0"/>
        <pt x="134" y="186" on="0"/>
        <pt x="33" y="291" on="0"/>
        <pt x="33" y="377" on="1"/>
        <pt x="33" y="432" on="0"/>
        <pt x="71" y="514" on="0"/>
        <pt x="103" y="536" on="1"/>
        <pt x="165" y="580" on="0"/>
        <pt x="244" y="580" on="1"/>
        <pt x="344" y="580" on="0"/>
        <pt x="452" y="407" on="0"/>
        <pt x="452" y="274" on="1"/>
        <pt x="452" y="101" on="0"/>
        <pt x="279" y="-107" on="0"/>
        <pt x="175" y="-107" on="1"/>
        <pt x="115" y="-107" on="0"/>
        <pt x="43" y="-84" on="1"/>
        <pt x="63" y="-20" on="1"/>
        <pt x="164" y="-52" on="0"/>
        <pt x="217" y="-52" on="1"/>
        <pt x="279" y="-28" on="0"/>
        <pt x="359" y="143" on="0"/>
        <pt x="363" y="254" on="1"/>
      </contour>
      <contour>
        <pt x="363" y="391" on="0"/>
        <pt x="298" y="536" on="0"/>
        <pt x="196" y="536" on="0"/>
        <pt x="128" y="446" on="0"/>
        <pt x="128" y="381" on="1"/>
        <pt x="128" y="253" on="0"/>
        <pt x="235" y="232" on="1"/>
        <pt x="270" y="236" on="0"/>
        <pt x="333" y="265" on="0"/>
        <pt x="363" y="292" on="0"/>
        <pt x="363" y="297" on="1"/>
      </contour>
    </TTGlyph>
    <TTGlyph name="notequal" xMin="59" yMin="-52" xMax="505" yMax="561">
      <contour>
        <pt x="505" y="371" on="1"/>
        <pt x="505" y="313" on="1"/>
        <pt x="331" y="313" on="1"/>
        <pt x="292" y="194" on="1"/>
        <pt x="505" y="194" on="1"/>
        <pt x="505" y="135" on="1"/>
        <pt x="272" y="135" on="1"/>
        <pt x="211" y="-52" on="1"/>
        <pt x="151" y="-52" on="1"/>
        <pt x="213" y="135" on="1"/>
        <pt x="59" y="135" on="1"/>
        <pt x="59" y="194" on="1"/>
        <pt x="232" y="194" on="1"/>
        <pt x="271" y="313" on="1"/>
        <pt x="59" y="313" on="1"/>
        <pt x="59" y="371" on="1"/>
        <pt x="291" y="371" on="1"/>
        <pt x="354" y="561" on="1"/>
        <pt x="413" y="561" on="1"/>
        <pt x="350" y="371" on="1"/>
      </contour>
    </TTGlyph>
    <TTGlyph name="ntilde" xMin="29" yMin="0" xMax="426" yMax="636">
      <contour>
        <pt x="204" y="428" on="0"/>
        <pt x="267" y="464" on="0"/>
        <pt x="353" y="464" on="0"/>
        <pt x="426" y="396" on="0"/>
        <pt x="426" y="313" on="1"/>
        <pt x="426" y="0" on="1"/>
        <pt x="341" y="0" on="1"/>
        <pt x="341" y="303" on="1"/>
        <pt x="341" y="352" on="0"/>
        <pt x="306" y="401" on="0"/>
        <pt x="221" y="401" on="0"/>
        <pt x="165" y="345" on="1"/>
        <pt x="165" y="0" on="1"/>
        <pt x="80" y="0" on="1"/>
        <pt x="80" y="314" on="1"/>
        <pt x="80" y="382" on="0"/>
        <pt x="29" y="423" on="1"/>
        <pt x="80" y="461" on="1"/>
        <pt x="162" y="388" on="1"/>
      </contour>
      <contour>
        <pt x="285" y="532" on="0"/>
        <pt x="184" y="573" on="0"/>
        <pt x="158" y="573" on="0"/>
        <pt x="136" y="553" on="0"/>
        <pt x="119" y="530" on="1"/>
        <pt x="92" y="545" on="1"/>
        <pt x="119" y="610" on="0"/>
        <pt x="194" y="634" on="1"/>
        <pt x="216" y="634" on="0"/>
        <pt x="317" y="593" on="0"/>
        <pt x="343" y="593" on="0"/>
        <pt x="365" y="613" on="0"/>
        <pt x="382" y="636" on="1"/>
        <pt x="409" y="621" on="1"/>
        <pt x="382" y="556" on="0"/>
        <pt x="307" y="532" on="1"/>
      </contour>
    </TTGlyph>
    <TTGlyph name="numbersign" xMin="5" yMin="0" xMax="496" yMax="662">
      <contour>
        <pt x="471" y="271" on="1"/>
        <pt x="471" y="216" on="1"/>
        <pt x="362" y="216" on="1"/>
        <pt x="331" y="0" on="1"/>
        <pt x="273" y="0" on="1"/>
        <pt x="304" y="216" on="1"/>
        <pt x="170" y="216" on="1"/>
        <pt x="137" y="0" on="1"/>
        <pt x="79" y="0" on="1"/>
        <pt x="112" y="216" on="1"/>
        <pt x="5" y="216" on="1"/>
        <pt x="5" y="271" on="1"/>
        <pt x="121" y="271" on="1"/>
        <pt x="142" y="405" on="1"/>
        <pt x="32" y="405" on="1"/>
        <pt x="32" y="460" on="1"/>
        <pt x="150" y="460" on="1"/>
        <pt x="181" y="662" on="1"/>
        <pt x="239" y="662" on="1"/>
        <pt x="208" y="460" on="1"/>
        <pt x="341" y="460" on="1"/>
        <pt x="371" y="662" on="1"/>
        <pt x="429" y="662" on="1"/>
        <pt x="399" y="460" on="1"/>
        <pt x="496" y="460" on="1"/>
        <pt x="496" y="405" on="1"/>
        <pt x="391" y="405" on="1"/>
        <pt x="371" y="271" on="1"/>
      </contour>
      <contour>
        <pt x="333" y="405" on="1"/>
        <pt x="200" y="405" on="1"/>
        <pt x="179" y="271" on="1"/>
        <pt x="313" y="271" on="1"/>
      </contour>
    </TTGlyph>
    <TTGlyph name="o" xMin="27" yMin="-13" xMax="471" yMax="464">
      <contour>
        <pt x="356" y="464" on="0"/>
        <pt x="471" y="344" on="0"/>
        <pt x="471" y="239" on="1"/>
        <pt x="471" y="172" on="0"/>
        <pt x="425" y="70" on="0"/>
        <pt x="388" y="42" on="1"/>
        <pt x="317" y="-12" on="0"/>
        <pt x="142" y="-12" on="0"/>
        <pt x="27" y="108" on="0"/>
        <pt x="27" y="213" on="1"/>
        <pt x="27" y="280" on="0"/>
        <pt x="72" y="382" on="0"/>
        <pt x="109" y="410" on="1"/>
        <pt x="180" y="464" on="0"/>
      </contour>
      <contour>
        <pt x="248" y="22" on="1"/>
        <pt x="292" y="22" on="0"/>
        <pt x="323" y="56" on="1"/>
        <pt x="379" y="116" on="0"/>
        <pt x="379" y="315" on="0"/>
        <pt x="311" y="426" on="0"/>
        <pt x="234" y="426" on="1"/>
        <pt x="177" y="404" on="0"/>
        <pt x="118" y="293" on="0"/>
        <pt x="118" y="136" on="0"/>
        <pt x="182" y="22" on="0"/>
      </contour>
    </TTGlyph>
    <TTGlyph name="oacute" xMin="27" yMin="-13" xMax="471" yMax="695">
      <contour>
        <pt x="356" y="464" on="0"/>
        <pt x="471" y="344" on="0"/>
        <pt x="471" y="239" on="1"/>
        <pt x="471" y="172" on="0"/>
        <pt x="425" y="70" on="0"/>
        <pt x="388" y="42" on="1"/>
        <pt x="317" y="-12" on="0"/>
        <pt x="142" y="-12" on="0"/>
        <pt x="27" y="108" on="0"/>
        <pt x="27" y="213" on="1"/>
        <pt x="27" y="280" on="0"/>
        <pt x="72" y="382" on="0"/>
        <pt x="109" y="410" on="1"/>
        <pt x="180" y="464" on="0"/>
      </contour>
      <contour>
        <pt x="248" y="22" on="1"/>
        <pt x="292" y="22" on="0"/>
        <pt x="323" y="56" on="1"/>
        <pt x="379" y="116" on="0"/>
        <pt x="379" y="315" on="0"/>
        <pt x="311" y="426" on="0"/>
        <pt x="234" y="426" on="1"/>
        <pt x="177" y="404" on="0"/>
        <pt x="118" y="293" on="0"/>
        <pt x="118" y="136" on="0"/>
        <pt x="182" y="22" on="0"/>
      </contour>
      <contour>
        <pt x="217" y="507" on="1"/>
        <pt x="177" y="507" on="1"/>
        <pt x="349" y="695" on="1"/>
        <pt x="405" y="645" on="1"/>
      </contour>
    </TTGlyph>
    <TTGlyph name="ocircumflex" xMin="27" yMin="-13" xMax="471" yMax="674">
      <contour>
        <pt x="356" y="464" on="0"/>
        <pt x="471" y="344" on="0"/>
        <pt x="471" y="239" on="1"/>
        <pt x="471" y="172" on="0"/>
        <pt x="425" y="70" on="0"/>
        <pt x="388" y="42" on="1"/>
        <pt x="317" y="-12" on="0"/>
        <pt x="142" y="-12" on="0"/>
        <pt x="27" y="108" on="0"/>
        <pt x="27" y="213" on="1"/>
        <pt x="27" y="280" on="0"/>
        <pt x="72" y="382" on="0"/>
        <pt x="109" y="410" on="1"/>
        <pt x="180" y="464" on="0"/>
      </contour>
      <contour>
        <pt x="248" y="22" on="1"/>
        <pt x="292" y="22" on="0"/>
        <pt x="323" y="56" on="1"/>
        <pt x="379" y="116" on="0"/>
        <pt x="379" y="315" on="0"/>
        <pt x="311" y="426" on="0"/>
        <pt x="234" y="426" on="1"/>
        <pt x="177" y="404" on="0"/>
        <pt x="118" y="293" on="0"/>
        <pt x="118" y="136" on="0"/>
        <pt x="182" y="22" on="0"/>
      </contour>
      <contour>
        <pt x="274" y="674" on="1"/>
        <pt x="400" y="507" on="1"/>
        <pt x="360" y="507" on="1"/>
        <pt x="250" y="600" on="1"/>
        <pt x="141" y="507" on="1"/>
        <pt x="101" y="507" on="1"/>
        <pt x="226" y="674" on="1"/>
      </contour>
    </TTGlyph>
    <TTGlyph name="odieresis" xMin="27" yMin="-13" xMax="471" yMax="641">
      <contour>
        <pt x="356" y="464" on="0"/>
        <pt x="471" y="344" on="0"/>
        <pt x="471" y="239" on="1"/>
        <pt x="471" y="172" on="0"/>
        <pt x="425" y="70" on="0"/>
        <pt x="388" y="42" on="1"/>
        <pt x="317" y="-12" on="0"/>
        <pt x="142" y="-12" on="0"/>
        <pt x="27" y="108" on="0"/>
        <pt x="27" y="213" on="1"/>
        <pt x="27" y="280" on="0"/>
        <pt x="72" y="382" on="0"/>
        <pt x="109" y="410" on="1"/>
        <pt x="180" y="464" on="0"/>
      </contour>
      <contour>
        <pt x="248" y="22" on="1"/>
        <pt x="292" y="22" on="0"/>
        <pt x="323" y="56" on="1"/>
        <pt x="379" y="116" on="0"/>
        <pt x="379" y="315" on="0"/>
        <pt x="311" y="426" on="0"/>
        <pt x="234" y="426" on="1"/>
        <pt x="177" y="404" on="0"/>
        <pt x="118" y="293" on="0"/>
        <pt x="118" y="136" on="0"/>
        <pt x="182" y="22" on="0"/>
      </contour>
      <contour>
        <pt x="160" y="541" on="1"/>
        <pt x="148" y="541" on="1"/>
        <pt x="129" y="543" on="0"/>
        <pt x="112" y="560" on="1"/>
        <pt x="104" y="570" on="0"/>
        <pt x="102" y="587" on="1"/>
        <pt x="102" y="591" on="1"/>
        <pt x="102" y="612" on="0"/>
        <pt x="131" y="641" on="0"/>
        <pt x="152" y="641" on="1"/>
        <pt x="157" y="641" on="0"/>
        <pt x="162" y="640" on="1"/>
        <pt x="171" y="640" on="0"/>
        <pt x="177" y="634" on="1"/>
        <pt x="187" y="629" on="0"/>
        <pt x="191" y="622" on="1"/>
        <pt x="196" y="617" on="0"/>
        <pt x="197" y="612" on="1"/>
        <pt x="201" y="606" on="0"/>
        <pt x="201" y="598" on="0"/>
        <pt x="202" y="595" on="1"/>
        <pt x="202" y="591" on="1"/>
        <pt x="202" y="585" on="0"/>
        <pt x="202" y="581" on="1"/>
        <pt x="200" y="569" on="0"/>
        <pt x="191" y="560" on="1"/>
        <pt x="189" y="555" on="0"/>
        <pt x="186" y="554" on="1"/>
        <pt x="176" y="544" on="0"/>
      </contour>
      <contour>
        <pt x="299" y="570" on="0"/>
        <pt x="299" y="612" on="0"/>
        <pt x="328" y="641" on="0"/>
        <pt x="370" y="641" on="0"/>
        <pt x="399" y="612" on="0"/>
        <pt x="399" y="570" on="0"/>
        <pt x="370" y="541" on="0"/>
        <pt x="328" y="541" on="0"/>
      </contour>
    </TTGlyph>
    <TTGlyph name="oe" xMin="29" yMin="-12" xMax="770" yMax="464">
      <contour>
        <pt x="263" y="464" on="1"/>
        <pt x="370" y="464" on="0"/>
        <pt x="418" y="372" on="1"/>
        <pt x="484" y="464" on="0"/>
        <pt x="599" y="464" on="1"/>
        <pt x="672" y="464" on="0"/>
        <pt x="770" y="348" on="0"/>
        <pt x="770" y="245" on="1"/>
        <pt x="451" y="245" on="1"/>
        <pt x="451" y="137" on="0"/>
        <pt x="548" y="42" on="0"/>
        <pt x="687" y="42" on="0"/>
        <pt x="746" y="69" on="1"/>
        <pt x="746" y="34" on="1"/>
        <pt x="666" y="-12" on="0"/>
        <pt x="589" y="-12" on="1"/>
        <pt x="463" y="-12" on="0"/>
        <pt x="405" y="79" on="1"/>
        <pt x="345" y="-12" on="0"/>
        <pt x="225" y="-12" on="1"/>
        <pt x="140" y="-12" on="0"/>
        <pt x="29" y="107" on="0"/>
        <pt x="29" y="212" on="1"/>
        <pt x="29" y="279" on="0"/>
        <pt x="73" y="382" on="0"/>
        <pt x="109" y="410" on="1"/>
        <pt x="180" y="464" on="0"/>
      </contour>
      <contour>
        <pt x="548" y="417" on="1"/>
        <pt x="513" y="400" on="0"/>
        <pt x="463" y="324" on="0"/>
        <pt x="455" y="275" on="1"/>
        <pt x="689" y="275" on="1"/>
        <pt x="686" y="317" on="0"/>
        <pt x="653" y="378" on="0"/>
        <pt x="630" y="392" on="1"/>
        <pt x="587" y="417" on="0"/>
      </contour>
      <contour>
        <pt x="243" y="31" on="1"/>
        <pt x="299" y="31" on="0"/>
        <pt x="371" y="150" on="0"/>
        <pt x="371" y="306" on="0"/>
        <pt x="296" y="416" on="0"/>
        <pt x="227" y="416" on="1"/>
        <pt x="173" y="395" on="0"/>
        <pt x="117" y="286" on="0"/>
        <pt x="117" y="224" on="1"/>
        <pt x="117" y="31" on="0"/>
      </contour>
    </TTGlyph>
    <TTGlyph name="ogonek" xMin="62" yMin="-165" xMax="243" yMax="0">
      <contour>
        <pt x="116" y="-75" on="1"/>
        <pt x="116" y="-95" on="0"/>
        <pt x="141" y="-116" on="0"/>
        <pt x="180" y="-116" on="0"/>
        <pt x="219" y="-91" on="0"/>
        <pt x="227" y="-73" on="1"/>
        <pt x="243" y="-80" on="1"/>
        <pt x="233" y="-115" on="0"/>
        <pt x="174" y="-165" on="0"/>
        <pt x="108" y="-165" on="0"/>
        <pt x="62" y="-125" on="0"/>
        <pt x="62" y="-97" on="1"/>
        <pt x="62" y="-36" on="0"/>
        <pt x="118" y="0" on="1"/>
        <pt x="162" y="0" on="1"/>
        <pt x="116" y="-36" on="0"/>
      </contour>
    </TTGlyph>
    <TTGlyph name="ograve" xMin="27" yMin="-13" xMax="471" yMax="695">
      <contour>
        <pt x="356" y="464" on="0"/>
        <pt x="471" y="344" on="0"/>
        <pt x="471" y="239" on="1"/>
        <pt x="471" y="172" on="0"/>
        <pt x="425" y="70" on="0"/>
        <pt x="388" y="42" on="1"/>
        <pt x="317" y="-12" on="0"/>
        <pt x="142" y="-12" on="0"/>
        <pt x="27" y="108" on="0"/>
        <pt x="27" y="213" on="1"/>
        <pt x="27" y="280" on="0"/>
        <pt x="72" y="382" on="0"/>
        <pt x="109" y="410" on="1"/>
        <pt x="180" y="464" on="0"/>
      </contour>
      <contour>
        <pt x="248" y="22" on="1"/>
        <pt x="292" y="22" on="0"/>
        <pt x="323" y="56" on="1"/>
        <pt x="379" y="116" on="0"/>
        <pt x="379" y="315" on="0"/>
        <pt x="311" y="426" on="0"/>
        <pt x="234" y="426" on="1"/>
        <pt x="177" y="404" on="0"/>
        <pt x="118" y="293" on="0"/>
        <pt x="118" y="136" on="0"/>
        <pt x="182" y="22" on="0"/>
      </contour>
      <contour>
        <pt x="326" y="507" on="1"/>
        <pt x="286" y="507" on="1"/>
        <pt x="98" y="645" on="1"/>
        <pt x="154" y="695" on="1"/>
      </contour>
    </TTGlyph>
    <TTGlyph name="one" xMin="45" yMin="0" xMax="440" yMax="580">
      <contour>
        <pt x="298" y="580" on="1"/>
        <pt x="298" y="53" on="1"/>
        <pt x="440" y="63" on="1"/>
        <pt x="440" y="0" on="1"/>
        <pt x="71" y="0" on="1"/>
        <pt x="71" y="63" on="1"/>
        <pt x="213" y="53" on="1"/>
        <pt x="213" y="490" on="1"/>
        <pt x="79" y="421" on="1"/>
        <pt x="45" y="479" on="1"/>
        <pt x="294" y="580" on="1"/>
      </contour>
    </TTGlyph>
    <TTGlyph name="onehalf" xMin="49" yMin="-14" xMax="742" yMax="687">
      <contour>
        <pt x="227" y="687" on="1"/>
        <pt x="227" y="301" on="1"/>
        <pt x="159" y="301" on="1"/>
        <pt x="159" y="608" on="1"/>
        <pt x="78" y="567" on="1"/>
        <pt x="49" y="615" on="1"/>
        <pt x="218" y="687" on="1"/>
      </contour>
      <contour>
        <pt x="667" y="383" on="0"/>
        <pt x="733" y="316" on="0"/>
        <pt x="733" y="221" on="0"/>
        <pt x="630" y="102" on="0"/>
        <pt x="566" y="54" on="1"/>
        <pt x="566" y="49" on="1"/>
        <pt x="742" y="57" on="1"/>
        <pt x="742" y="0" on="1"/>
        <pt x="480" y="0" on="1"/>
        <pt x="480" y="41" on="1"/>
        <pt x="546" y="81" on="0"/>
        <pt x="664" y="215" on="0"/>
        <pt x="664" y="314" on="0"/>
        <pt x="615" y="334" on="1"/>
        <pt x="578" y="333" on="0"/>
        <pt x="509" y="313" on="1"/>
        <pt x="493" y="367" on="1"/>
        <pt x="541" y="383" on="0"/>
      </contour>
      <contour>
        <pt x="599" y="677" on="1"/>
        <pt x="249" y="-14" on="1"/>
        <pt x="200" y="-14" on="1"/>
        <pt x="553" y="677" on="1"/>
      </contour>
    </TTGlyph>
    <TTGlyph name="onequarter" xMin="49" yMin="-14" xMax="757" yMax="687">
      <contour>
        <pt x="227" y="687" on="1"/>
        <pt x="227" y="301" on="1"/>
        <pt x="159" y="301" on="1"/>
        <pt x="159" y="608" on="1"/>
        <pt x="78" y="567" on="1"/>
        <pt x="49" y="615" on="1"/>
        <pt x="218" y="687" on="1"/>
      </contour>
      <contour>
        <pt x="757" y="120" on="1"/>
        <pt x="757" y="76" on="1"/>
        <pt x="704" y="76" on="1"/>
        <pt x="704" y="0" on="1"/>
        <pt x="637" y="0" on="1"/>
        <pt x="637" y="76" on="1"/>
        <pt x="454" y="76" on="1"/>
        <pt x="454" y="102" on="1"/>
        <pt x="640" y="378" on="1"/>
        <pt x="704" y="378" on="1"/>
        <pt x="704" y="120" on="1"/>
      </contour>
      <contour>
        <pt x="637" y="120" on="1"/>
        <pt x="637" y="313" on="1"/>
        <pt x="510" y="120" on="1"/>
      </contour>
      <contour>
        <pt x="599" y="677" on="1"/>
        <pt x="249" y="-14" on="1"/>
        <pt x="200" y="-14" on="1"/>
        <pt x="553" y="677" on="1"/>
      </contour>
    </TTGlyph>
    <TTGlyph name="onesuperior" xMin="80" yMin="281" xMax="258" yMax="667">
      <contour>
        <pt x="258" y="667" on="1"/>
        <pt x="258" y="281" on="1"/>
        <pt x="190" y="281" on="1"/>
        <pt x="190" y="588" on="1"/>
        <pt x="109" y="547" on="1"/>
        <pt x="80" y="595" on="1"/>
        <pt x="249" y="667" on="1"/>
      </contour>
    </TTGlyph>
    <TTGlyph name="ordfeminine" xMin="17" yMin="392" xMax="251" yMax="677">
      <contour>
        <pt x="217" y="579" on="1"/>
        <pt x="217" y="483" on="1"/>
        <pt x="217" y="444" on="0"/>
        <pt x="251" y="422" on="1"/>
        <pt x="212" y="392" on="1"/>
        <pt x="165" y="434" on="1"/>
        <pt x="122" y="394" on="0"/>
        <pt x="56" y="394" on="0"/>
        <pt x="17" y="430" on="0"/>
        <pt x="17" y="488" on="0"/>
        <pt x="42" y="508" on="1"/>
        <pt x="85" y="541" on="0"/>
        <pt x="159" y="546" on="1"/>
        <pt x="159" y="594" on="1"/>
        <pt x="159" y="636" on="0"/>
        <pt x="111" y="636" on="1"/>
        <pt x="81" y="636" on="0"/>
        <pt x="33" y="619" on="1"/>
        <pt x="25" y="643" on="1"/>
        <pt x="39" y="654" on="0"/>
        <pt x="99" y="677" on="0"/>
        <pt x="158" y="677" on="0"/>
        <pt x="198" y="659" on="0"/>
        <pt x="206" y="640" on="1"/>
        <pt x="217" y="612" on="0"/>
      </contour>
      <contour>
        <pt x="78" y="475" on="1"/>
        <pt x="78" y="444" on="0"/>
        <pt x="105" y="432" on="1"/>
        <pt x="123" y="437" on="0"/>
        <pt x="159" y="462" on="0"/>
        <pt x="159" y="468" on="1"/>
        <pt x="159" y="521" on="1"/>
        <pt x="123" y="517" on="0"/>
        <pt x="78" y="490" on="0"/>
      </contour>
    </TTGlyph>
    <TTGlyph name="ordmasculine" xMin="15" yMin="393" xMax="287" yMax="677">
      <contour>
        <pt x="15" y="605" on="0"/>
        <pt x="105" y="677" on="0"/>
        <pt x="217" y="677" on="0"/>
        <pt x="287" y="606" on="0"/>
        <pt x="287" y="465" on="0"/>
        <pt x="197" y="393" on="0"/>
        <pt x="86" y="393" on="0"/>
        <pt x="15" y="465" on="0"/>
      </contour>
      <contour>
        <pt x="77" y="487" on="0"/>
        <pt x="113" y="425" on="0"/>
        <pt x="186" y="425" on="0"/>
        <pt x="223" y="493" on="0"/>
        <pt x="223" y="534" on="1"/>
        <pt x="223" y="644" on="0"/>
        <pt x="143" y="644" on="1"/>
        <pt x="110" y="632" on="0"/>
        <pt x="77" y="572" on="0"/>
      </contour>
    </TTGlyph>
    <TTGlyph name="oslash" xMin="27" yMin="-112" xMax="471" yMax="551">
      <contour>
        <pt x="146" y="438" on="0"/>
        <pt x="226" y="464" on="0"/>
        <pt x="308" y="464" on="0"/>
        <pt x="345" y="450" on="1"/>
        <pt x="398" y="551" on="1"/>
        <pt x="437" y="551" on="1"/>
        <pt x="376" y="434" on="1"/>
        <pt x="471" y="376" on="0"/>
        <pt x="471" y="239" on="1"/>
        <pt x="471" y="172" on="0"/>
        <pt x="425" y="70" on="0"/>
        <pt x="388" y="42" on="1"/>
        <pt x="317" y="-12" on="0"/>
        <pt x="229" y="-12" on="1"/>
        <pt x="186" y="-12" on="0"/>
        <pt x="149" y="3" on="1"/>
        <pt x="89" y="-112" on="1"/>
        <pt x="52" y="-112" on="1"/>
        <pt x="120" y="18" on="1"/>
        <pt x="27" y="78" on="0"/>
        <pt x="27" y="213" on="1"/>
        <pt x="27" y="280" on="0"/>
        <pt x="72" y="382" on="0"/>
      </contour>
      <contour>
        <pt x="204" y="22" on="0"/>
        <pt x="292" y="22" on="0"/>
        <pt x="323" y="56" on="1"/>
        <pt x="379" y="116" on="0"/>
        <pt x="379" y="321" on="0"/>
        <pt x="343" y="372" on="1"/>
        <pt x="174" y="49" on="1"/>
      </contour>
      <contour>
        <pt x="177" y="404" on="0"/>
        <pt x="118" y="293" on="0"/>
        <pt x="118" y="132" on="0"/>
        <pt x="151" y="77" on="1"/>
        <pt x="319" y="399" on="1"/>
        <pt x="284" y="426" on="0"/>
        <pt x="234" y="426" on="1"/>
      </contour>
    </TTGlyph>
    <TTGlyph name="otilde" xMin="27" yMin="-13" xMax="471" yMax="636">
      <contour>
        <pt x="356" y="464" on="0"/>
        <pt x="471" y="344" on="0"/>
        <pt x="471" y="239" on="1"/>
        <pt x="471" y="172" on="0"/>
        <pt x="425" y="70" on="0"/>
        <pt x="388" y="42" on="1"/>
        <pt x="317" y="-12" on="0"/>
        <pt x="142" y="-12" on="0"/>
        <pt x="27" y="108" on="0"/>
        <pt x="27" y="213" on="1"/>
        <pt x="27" y="280" on="0"/>
        <pt x="72" y="382" on="0"/>
        <pt x="109" y="410" on="1"/>
        <pt x="180" y="464" on="0"/>
      </contour>
      <contour>
        <pt x="248" y="22" on="1"/>
        <pt x="292" y="22" on="0"/>
        <pt x="323" y="56" on="1"/>
        <pt x="379" y="116" on="0"/>
        <pt x="379" y="315" on="0"/>
        <pt x="311" y="426" on="0"/>
        <pt x="234" y="426" on="1"/>
        <pt x="177" y="404" on="0"/>
        <pt x="118" y="293" on="0"/>
        <pt x="118" y="136" on="0"/>
        <pt x="182" y="22" on="0"/>
      </contour>
      <contour>
        <pt x="285" y="532" on="0"/>
        <pt x="184" y="573" on="0"/>
        <pt x="158" y="573" on="0"/>
        <pt x="136" y="553" on="0"/>
        <pt x="119" y="530" on="1"/>
        <pt x="92" y="545" on="1"/>
        <pt x="119" y="610" on="0"/>
        <pt x="194" y="634" on="1"/>
        <pt x="216" y="634" on="0"/>
        <pt x="317" y="593" on="0"/>
        <pt x="343" y="593" on="0"/>
        <pt x="365" y="613" on="0"/>
        <pt x="382" y="636" on="1"/>
        <pt x="409" y="621" on="1"/>
        <pt x="382" y="556" on="0"/>
        <pt x="307" y="532" on="1"/>
      </contour>
    </TTGlyph>
    <TTGlyph name="p" xMin="23" yMin="-212" xMax="476" yMax="464">
      <contour>
        <pt x="202" y="428" on="0"/>
        <pt x="265" y="464" on="0"/>
        <pt x="332" y="464" on="0"/>
        <pt x="385" y="442" on="0"/>
        <pt x="441" y="393" on="0"/>
        <pt x="476" y="290" on="0"/>
        <pt x="476" y="167" on="0"/>
        <pt x="436" y="61" on="0"/>
        <pt x="350" y="-17" on="0"/>
        <pt x="229" y="-17" on="0"/>
        <pt x="160" y="30" on="1"/>
        <pt x="160" y="-212" on="1"/>
        <pt x="75" y="-212" on="1"/>
        <pt x="75" y="317" on="1"/>
        <pt x="75" y="386" on="0"/>
        <pt x="23" y="426" on="1"/>
        <pt x="75" y="464" on="1"/>
        <pt x="160" y="388" on="1"/>
      </contour>
      <contour>
        <pt x="160" y="327" on="1"/>
        <pt x="160" y="59" on="1"/>
        <pt x="297" y="-6" on="0"/>
        <pt x="354" y="80" on="1"/>
        <pt x="385" y="129" on="0"/>
        <pt x="385" y="290" on="0"/>
        <pt x="334" y="405" on="0"/>
        <pt x="296" y="417" on="1"/>
        <pt x="261" y="413" on="0"/>
        <pt x="194" y="371" on="0"/>
        <pt x="160" y="334" on="0"/>
      </contour>
    </TTGlyph>
    <TTGlyph name="paragraph" xMin="-22" yMin="-154" xMax="362" yMax="662">
      <contour>
        <pt x="238" y="640" on="1"/>
        <pt x="238" y="-154" on="1"/>
        <pt x="172" y="-154" on="1"/>
        <pt x="172" y="323" on="1"/>
        <pt x="71" y="323" on="0"/>
        <pt x="-22" y="406" on="0"/>
        <pt x="-22" y="499" on="1"/>
        <pt x="-22" y="662" on="0"/>
        <pt x="187" y="662" on="1"/>
        <pt x="362" y="662" on="1"/>
        <pt x="362" y="-154" on="1"/>
        <pt x="296" y="-154" on="1"/>
        <pt x="296" y="640" on="1"/>
      </contour>
      <contour>
        <pt x="111" y="636" on="0"/>
        <pt x="54" y="569" on="0"/>
        <pt x="54" y="409" on="0"/>
        <pt x="111" y="349" on="0"/>
        <pt x="172" y="345" on="1"/>
        <pt x="172" y="640" on="1"/>
      </contour>
    </TTGlyph>
    <TTGlyph name="parenleft" xMin="48" yMin="-176" xMax="284" yMax="677">
      <contour>
        <pt x="126" y="369" on="0"/>
        <pt x="126" y="133" on="0"/>
        <pt x="169" y="-29" on="0"/>
        <pt x="230" y="-114" on="0"/>
        <pt x="284" y="-159" on="1"/>
        <pt x="282" y="-176" on="1"/>
        <pt x="48" y="-44" on="0"/>
        <pt x="48" y="546" on="0"/>
        <pt x="282" y="677" on="1"/>
        <pt x="284" y="661" on="1"/>
        <pt x="230" y="615" on="0"/>
        <pt x="169" y="531" on="0"/>
      </contour>
    </TTGlyph>
    <TTGlyph name="parenright" xMin="49" yMin="-177" xMax="285" yMax="676">
      <contour>
        <pt x="207" y="131" on="0"/>
        <pt x="207" y="367" on="0"/>
        <pt x="164" y="529" on="0"/>
        <pt x="103" y="614" on="0"/>
        <pt x="49" y="659" on="1"/>
        <pt x="51" y="676" on="1"/>
        <pt x="285" y="544" on="0"/>
        <pt x="285" y="-47" on="0"/>
        <pt x="51" y="-177" on="1"/>
        <pt x="49" y="-161" on="1"/>
        <pt x="103" y="-115" on="0"/>
        <pt x="164" y="-31" on="0"/>
      </contour>
    </TTGlyph>
    <TTGlyph name="partialdiff" xMin="17" yMin="-12" xMax="471" yMax="677">
      <contour>
        <pt x="192" y="446" on="0"/>
        <pt x="263" y="464" on="0"/>
        <pt x="327" y="464" on="0"/>
        <pt x="360" y="454" on="1"/>
        <pt x="319" y="590" on="0"/>
        <pt x="236" y="622" on="1"/>
        <pt x="183" y="622" on="0"/>
        <pt x="82" y="590" on="1"/>
        <pt x="62" y="654" on="1"/>
        <pt x="134" y="677" on="0"/>
        <pt x="260" y="677" on="0"/>
        <pt x="369" y="599" on="0"/>
        <pt x="402" y="539" on="1"/>
        <pt x="471" y="414" on="0"/>
        <pt x="471" y="284" on="1"/>
        <pt x="471" y="220" on="0"/>
        <pt x="433" y="115" on="0"/>
        <pt x="373" y="50" on="0"/>
        <pt x="334" y="28" on="1"/>
        <pt x="264" y="-12" on="0"/>
        <pt x="114" y="-12" on="0"/>
        <pt x="17" y="83" on="0"/>
        <pt x="17" y="168" on="1"/>
        <pt x="17" y="232" on="0"/>
        <pt x="55" y="337" on="0"/>
        <pt x="115" y="402" on="0"/>
      </contour>
      <contour>
        <pt x="109" y="101" on="0"/>
        <pt x="160" y="22" on="0"/>
        <pt x="258" y="22" on="0"/>
        <pt x="325" y="79" on="0"/>
        <pt x="343" y="122" on="1"/>
        <pt x="379" y="208" on="0"/>
        <pt x="379" y="283" on="1"/>
        <pt x="379" y="426" on="0"/>
        <pt x="258" y="426" on="1"/>
        <pt x="184" y="399" on="0"/>
        <pt x="109" y="253" on="0"/>
      </contour>
    </TTGlyph>
    <TTGlyph name="percent" xMin="40" yMin="-14" xMax="759" yMax="684">
      <contour>
        <pt x="40" y="582" on="0"/>
        <pt x="140" y="684" on="0"/>
        <pt x="260" y="684" on="0"/>
        <pt x="338" y="584" on="0"/>
        <pt x="338" y="392" on="0"/>
        <pt x="239" y="291" on="0"/>
        <pt x="117" y="291" on="0"/>
        <pt x="40" y="389" on="0"/>
      </contour>
      <contour>
        <pt x="265" y="547" on="0"/>
        <pt x="219" y="638" on="0"/>
        <pt x="150" y="638" on="0"/>
        <pt x="110" y="556" on="0"/>
        <pt x="110" y="423" on="0"/>
        <pt x="155" y="334" on="0"/>
        <pt x="187" y="334" on="1"/>
        <pt x="265" y="334" on="0"/>
        <pt x="265" y="485" on="1"/>
      </contour>
      <contour>
        <pt x="461" y="281" on="0"/>
        <pt x="561" y="383" on="0"/>
        <pt x="681" y="383" on="0"/>
        <pt x="759" y="283" on="0"/>
        <pt x="759" y="91" on="0"/>
        <pt x="660" y="-10" on="0"/>
        <pt x="538" y="-10" on="0"/>
        <pt x="461" y="88" on="0"/>
      </contour>
      <contour>
        <pt x="686" y="246" on="0"/>
        <pt x="640" y="337" on="0"/>
        <pt x="571" y="337" on="0"/>
        <pt x="531" y="255" on="0"/>
        <pt x="531" y="122" on="0"/>
        <pt x="576" y="33" on="0"/>
        <pt x="608" y="33" on="1"/>
        <pt x="686" y="33" on="0"/>
        <pt x="686" y="184" on="1"/>
      </contour>
      <contour>
        <pt x="599" y="677" on="1"/>
        <pt x="249" y="-14" on="1"/>
        <pt x="200" y="-14" on="1"/>
        <pt x="553" y="677" on="1"/>
      </contour>
    </TTGlyph>
    <TTGlyph name="period" xMin="70" yMin="-11" xMax="181" yMax="100">
      <contour>
        <pt x="70" y="21" on="0"/>
        <pt x="70" y="67" on="0"/>
        <pt x="102" y="100" on="0"/>
        <pt x="148" y="100" on="0"/>
        <pt x="181" y="67" on="0"/>
        <pt x="181" y="21" on="0"/>
        <pt x="148" y="-11" on="0"/>
        <pt x="102" y="-11" on="0"/>
      </contour>
    </TTGlyph>
</ttFont>
